<?xml version="1.0" encoding="utf-8" standalone="no"?>
<!DOCTYPE svg PUBLIC "-//W3C//DTD SVG 1.1//EN"
  "http://www.w3.org/Graphics/SVG/1.1/DTD/svg11.dtd">
<svg xmlns:xlink="http://www.w3.org/1999/xlink" width="795.6pt" height="413.568pt" viewBox="0 0 795.6 413.568" xmlns="http://www.w3.org/2000/svg" version="1.1">
 <metadata>
  <rdf:RDF xmlns:dc="http://purl.org/dc/elements/1.1/" xmlns:cc="http://creativecommons.org/ns#" xmlns:rdf="http://www.w3.org/1999/02/22-rdf-syntax-ns#">
   <cc:Work>
    <dc:type rdf:resource="http://purl.org/dc/dcmitype/StillImage"/>
    <dc:format>image/svg+xml</dc:format>
    <dc:creator>
     <cc:Agent>
      <dc:title>Matplotlib v3.10.8, https://matplotlib.org/</dc:title>
     </cc:Agent>
    </dc:creator>
   </cc:Work>
  </rdf:RDF>
 </metadata>
 <defs>
  <style type="text/css">*{stroke-linejoin: round; stroke-linecap: butt}</style>
 </defs>
 <g id="figure_1">
  <g id="patch_1">
   <path d="M 0 413.568
L 795.6 413.568
L 795.6 0
L 0 0
z
" style="fill: #ffffff"/>
  </g>
  <g id="axes_1">
   <g id="patch_2">
    <path d="M 42.354 194.80896
L 167.346 194.80896
Q 186.876 194.80896 186.876 184.82976
L 186.876 101.00448
Q 186.876 91.02528 167.346 91.02528
L 42.354 91.02528
Q 22.824 91.02528 22.824 101.00448
L 22.824 184.82976
Q 22.824 194.80896 42.354 194.80896
z
" clip-path="url(#p62cd0c759c)" style="fill: #ffffff; stroke: #1f6f78; stroke-width: 1.2; stroke-linejoin: miter"/>
   </g>
   <g id="patch_3">
    <path d="M 206.406 194.80896
L 331.398 194.80896
Q 350.928 194.80896 350.928 184.82976
L 350.928 101.00448
Q 350.928 91.02528 331.398 91.02528
L 206.406 91.02528
Q 186.876 91.02528 186.876 101.00448
L 186.876 184.82976
Q 186.876 194.80896 206.406 194.80896
z
" clip-path="url(#p62cd0c759c)" style="fill: #ffffff; stroke: #4c6f9f; stroke-width: 1.2; stroke-linejoin: miter"/>
   </g>
   <g id="patch_4">
    <path d="M 370.458 194.80896
L 495.45 194.80896
Q 514.98 194.80896 514.98 184.82976
L 514.98 101.00448
Q 514.98 91.02528 495.45 91.02528
L 370.458 91.02528
Q 350.928 91.02528 350.928 101.00448
L 350.928 184.82976
Q 350.928 194.80896 370.458 194.80896
z
" clip-path="url(#p62cd0c759c)" style="fill: #ffffff; stroke: #6f7d2a; stroke-width: 1.2; stroke-linejoin: miter"/>
   </g>
   <g id="patch_5">
    <path d="M 534.51 194.80896
L 659.502 194.80896
Q 679.032 194.80896 679.032 184.82976
L 679.032 101.00448
Q 679.032 91.02528 659.502 91.02528
L 534.51 91.02528
Q 514.98 91.02528 514.98 101.00448
L 514.98 184.82976
Q 514.98 194.80896 534.51 194.80896
z
" clip-path="url(#p62cd0c759c)" style="fill: #ffffff; stroke: #c85a3a; stroke-width: 1.2; stroke-linejoin: miter"/>
   </g>
   <g id="patch_6">
    <path d="M 604.818 334.51776
L 745.434 334.51776
Q 764.964 334.51776 764.964 324.53856
L 764.964 236.7216
Q 764.964 226.7424 745.434 226.7424
L 604.818 226.7424
Q 585.288 226.7424 585.288 236.7216
L 585.288 324.53856
Q 585.288 334.51776 604.818 334.51776
z
" clip-path="url(#p62cd0c759c)" style="fill: #ffffff; stroke: #b8860b; stroke-width: 1.2; stroke-linejoin: miter"/>
   </g>
   <g id="patch_7">
    <path d="M 173.254588 142.91712
Q 186.87591 142.91712 198.931984 142.91712
" clip-path="url(#p62cd0c759c)" style="fill: none; stroke: #5b6670; stroke-width: 1.4; stroke-linecap: round"/>
    <path d="M 192.531984 139.71712
L 198.931984 142.91712
L 192.531984 146.11712
z
" clip-path="url(#p62cd0c759c)" style="fill: #5b6670; stroke: #5b6670; stroke-width: 1.4; stroke-linecap: round"/>
   </g>
   <g id="patch_8">
    <path d="M 337.306588 142.91712
Q 350.92791 142.91712 362.983984 142.91712
" clip-path="url(#p62cd0c759c)" style="fill: none; stroke: #5b6670; stroke-width: 1.4; stroke-linecap: round"/>
    <path d="M 356.583984 139.71712
L 362.983984 142.91712
L 356.583984 146.11712
z
" clip-path="url(#p62cd0c759c)" style="fill: #5b6670; stroke: #5b6670; stroke-width: 1.4; stroke-linecap: round"/>
   </g>
   <g id="patch_9">
    <path d="M 501.358588 142.91712
Q 514.97991 142.91712 527.035984 142.91712
" clip-path="url(#p62cd0c759c)" style="fill: none; stroke: #5b6670; stroke-width: 1.4; stroke-linecap: round"/>
    <path d="M 520.635984 139.71712
L 527.035984 142.91712
L 520.635984 146.11712
z
" clip-path="url(#p62cd0c759c)" style="fill: #5b6670; stroke: #5b6670; stroke-width: 1.4; stroke-linecap: round"/>
   </g>
   <g id="patch_10">
    <path d="M 617.934951 188.255237
Q 639.973448 210.77716 660.917221 232.180344
" clip-path="url(#p62cd0c759c)" style="fill: none; stroke: #5b6670; stroke-width: 1.4; stroke-linecap: round"/>
    <path d="M 658.728252 225.367972
L 660.917221 232.180344
L 654.153942 229.844096
z
" clip-path="url(#p62cd0c759c)" style="fill: #5b6670; stroke: #5b6670; stroke-width: 1.4; stroke-linecap: round"/>
   </g>
   <g id="patch_11">
    <path d="M 73.602 338.50944
L 495.45 338.50944
Q 514.98 338.50944 514.98 328.53024
L 514.98 240.71328
Q 514.98 230.73408 495.45 230.73408
L 73.602 230.73408
Q 54.072 230.73408 54.072 240.71328
L 54.072 328.53024
Q 54.072 338.50944 73.602 338.50944
z
" clip-path="url(#p62cd0c759c)" style="fill: #fbfbf8; stroke: #1f2328; stroke-width: 1.2; stroke-linejoin: miter"/>
   </g>
   <g id="patch_12">
    <path d="M 435.00999 187.593652
Q 374.361583 212.772523 314.952275 237.436969
" clip-path="url(#p62cd0c759c)" style="fill: none; stroke: #5b6670; stroke-width: 1.2; stroke-linecap: round"/>
    <path d="M 322.090098 237.938437
L 314.952275 237.436969
L 319.636144 232.027591
z
" clip-path="url(#p62cd0c759c)" style="fill: #5b6670; stroke: #5b6670; stroke-width: 1.2; stroke-linecap: round"/>
   </g>
   <g id="patch_13">
    <path d="M 501.355012 282.62592
Q 550.132406 282.62592 597.56816 282.62592
" clip-path="url(#p62cd0c759c)" style="fill: none; stroke: #5b6670; stroke-width: 1.2; stroke-linecap: round"/>
    <path d="M 591.16816 279.42592
L 597.56816 282.62592
L 591.16816 285.82592
z
" clip-path="url(#p62cd0c759c)" style="fill: #5b6670; stroke: #5b6670; stroke-width: 1.2; stroke-linecap: round"/>
   </g>
   <g id="text_1">
    <!-- Artifact lineage: one evidence contract from scenario to slide -->
    <g style="fill: #1f2328" transform="translate(38.448 39.13344) scale(0.2 -0.2)">
     <defs>
      <path id="DejaVuSans-Bold-41" d="M 3419 850
L 1538 850
L 1241 0
L 31 0
L 1759 4666
L 3194 4666
L 4922 0
L 3713 0
L 3419 850
z
M 1838 1716
L 3116 1716
L 2478 3572
L 1838 1716
z
" transform="scale(0.015625)"/>
      <path id="DejaVuSans-Bold-72" d="M 3138 2547
Q 2991 2616 2845 2648
Q 2700 2681 2553 2681
Q 2122 2681 1889 2404
Q 1656 2128 1656 1613
L 1656 0
L 538 0
L 538 3500
L 1656 3500
L 1656 2925
Q 1872 3269 2151 3426
Q 2431 3584 2822 3584
Q 2878 3584 2943 3579
Q 3009 3575 3134 3559
L 3138 2547
z
" transform="scale(0.015625)"/>
      <path id="DejaVuSans-Bold-74" d="M 1759 4494
L 1759 3500
L 2913 3500
L 2913 2700
L 1759 2700
L 1759 1216
Q 1759 972 1856 886
Q 1953 800 2241 800
L 2816 800
L 2816 0
L 1856 0
Q 1194 0 917 276
Q 641 553 641 1216
L 641 2700
L 84 2700
L 84 3500
L 641 3500
L 641 4494
L 1759 4494
z
" transform="scale(0.015625)"/>
      <path id="DejaVuSans-Bold-69" d="M 538 3500
L 1656 3500
L 1656 0
L 538 0
L 538 3500
z
M 538 4863
L 1656 4863
L 1656 3950
L 538 3950
L 538 4863
z
" transform="scale(0.015625)"/>
      <path id="DejaVuSans-Bold-66" d="M 2841 4863
L 2841 4128
L 2222 4128
Q 1984 4128 1890 4042
Q 1797 3956 1797 3744
L 1797 3500
L 2753 3500
L 2753 2700
L 1797 2700
L 1797 0
L 678 0
L 678 2700
L 122 2700
L 122 3500
L 678 3500
L 678 3744
Q 678 4316 997 4589
Q 1316 4863 1984 4863
L 2841 4863
z
" transform="scale(0.015625)"/>
      <path id="DejaVuSans-Bold-61" d="M 2106 1575
Q 1756 1575 1579 1456
Q 1403 1338 1403 1106
Q 1403 894 1545 773
Q 1688 653 1941 653
Q 2256 653 2472 879
Q 2688 1106 2688 1447
L 2688 1575
L 2106 1575
z
M 3816 1997
L 3816 0
L 2688 0
L 2688 519
Q 2463 200 2181 54
Q 1900 -91 1497 -91
Q 953 -91 614 226
Q 275 544 275 1050
Q 275 1666 698 1953
Q 1122 2241 2028 2241
L 2688 2241
L 2688 2328
Q 2688 2594 2478 2717
Q 2269 2841 1825 2841
Q 1466 2841 1156 2769
Q 847 2697 581 2553
L 581 3406
Q 941 3494 1303 3539
Q 1666 3584 2028 3584
Q 2975 3584 3395 3211
Q 3816 2838 3816 1997
z
" transform="scale(0.015625)"/>
      <path id="DejaVuSans-Bold-63" d="M 3366 3391
L 3366 2478
Q 3138 2634 2908 2709
Q 2678 2784 2431 2784
Q 1963 2784 1702 2511
Q 1441 2238 1441 1747
Q 1441 1256 1702 982
Q 1963 709 2431 709
Q 2694 709 2930 787
Q 3166 866 3366 1019
L 3366 103
Q 3103 6 2833 -42
Q 2563 -91 2291 -91
Q 1344 -91 809 395
Q 275 881 275 1747
Q 275 2613 809 3098
Q 1344 3584 2291 3584
Q 2566 3584 2833 3536
Q 3100 3488 3366 3391
z
" transform="scale(0.015625)"/>
      <path id="DejaVuSans-Bold-20" transform="scale(0.015625)"/>
      <path id="DejaVuSans-Bold-6c" d="M 538 4863
L 1656 4863
L 1656 0
L 538 0
L 538 4863
z
" transform="scale(0.015625)"/>
      <path id="DejaVuSans-Bold-6e" d="M 4056 2131
L 4056 0
L 2931 0
L 2931 347
L 2931 1631
Q 2931 2084 2911 2256
Q 2891 2428 2841 2509
Q 2775 2619 2662 2680
Q 2550 2741 2406 2741
Q 2056 2741 1856 2470
Q 1656 2200 1656 1722
L 1656 0
L 538 0
L 538 3500
L 1656 3500
L 1656 2988
Q 1909 3294 2193 3439
Q 2478 3584 2822 3584
Q 3428 3584 3742 3212
Q 4056 2841 4056 2131
z
" transform="scale(0.015625)"/>
      <path id="DejaVuSans-Bold-65" d="M 4031 1759
L 4031 1441
L 1416 1441
Q 1456 1047 1700 850
Q 1944 653 2381 653
Q 2734 653 3104 758
Q 3475 863 3866 1075
L 3866 213
Q 3469 63 3072 -14
Q 2675 -91 2278 -91
Q 1328 -91 801 392
Q 275 875 275 1747
Q 275 2603 792 3093
Q 1309 3584 2216 3584
Q 3041 3584 3536 3087
Q 4031 2591 4031 1759
z
M 2881 2131
Q 2881 2450 2695 2645
Q 2509 2841 2209 2841
Q 1884 2841 1681 2658
Q 1478 2475 1428 2131
L 2881 2131
z
" transform="scale(0.015625)"/>
      <path id="DejaVuSans-Bold-67" d="M 2919 594
Q 2688 288 2409 144
Q 2131 0 1766 0
Q 1125 0 706 504
Q 288 1009 288 1791
Q 288 2575 706 3076
Q 1125 3578 1766 3578
Q 2131 3578 2409 3434
Q 2688 3291 2919 2981
L 2919 3500
L 4044 3500
L 4044 353
Q 4044 -491 3511 -936
Q 2978 -1381 1966 -1381
Q 1638 -1381 1331 -1331
Q 1025 -1281 716 -1178
L 716 -306
Q 1009 -475 1290 -558
Q 1572 -641 1856 -641
Q 2406 -641 2662 -400
Q 2919 -159 2919 353
L 2919 594
z
M 2181 2772
Q 1834 2772 1640 2515
Q 1447 2259 1447 1791
Q 1447 1309 1634 1061
Q 1822 813 2181 813
Q 2531 813 2725 1069
Q 2919 1325 2919 1791
Q 2919 2259 2725 2515
Q 2531 2772 2181 2772
z
" transform="scale(0.015625)"/>
      <path id="DejaVuSans-Bold-3a" d="M 716 3500
L 1844 3500
L 1844 2291
L 716 2291
L 716 3500
z
M 716 1209
L 1844 1209
L 1844 0
L 716 0
L 716 1209
z
" transform="scale(0.015625)"/>
      <path id="DejaVuSans-Bold-6f" d="M 2203 2784
Q 1831 2784 1636 2517
Q 1441 2250 1441 1747
Q 1441 1244 1636 976
Q 1831 709 2203 709
Q 2569 709 2762 976
Q 2956 1244 2956 1747
Q 2956 2250 2762 2517
Q 2569 2784 2203 2784
z
M 2203 3584
Q 3106 3584 3614 3096
Q 4122 2609 4122 1747
Q 4122 884 3614 396
Q 3106 -91 2203 -91
Q 1297 -91 786 396
Q 275 884 275 1747
Q 275 2609 786 3096
Q 1297 3584 2203 3584
z
" transform="scale(0.015625)"/>
      <path id="DejaVuSans-Bold-76" d="M 97 3500
L 1216 3500
L 2088 1081
L 2956 3500
L 4078 3500
L 2700 0
L 1472 0
L 97 3500
z
" transform="scale(0.015625)"/>
      <path id="DejaVuSans-Bold-64" d="M 2919 2988
L 2919 4863
L 4044 4863
L 4044 0
L 2919 0
L 2919 506
Q 2688 197 2409 53
Q 2131 -91 1766 -91
Q 1119 -91 703 423
Q 288 938 288 1747
Q 288 2556 703 3070
Q 1119 3584 1766 3584
Q 2128 3584 2408 3439
Q 2688 3294 2919 2988
z
M 2181 722
Q 2541 722 2730 984
Q 2919 1247 2919 1747
Q 2919 2247 2730 2509
Q 2541 2772 2181 2772
Q 1825 2772 1636 2509
Q 1447 2247 1447 1747
Q 1447 1247 1636 984
Q 1825 722 2181 722
z
" transform="scale(0.015625)"/>
      <path id="DejaVuSans-Bold-6d" d="M 3781 2919
Q 3994 3244 4286 3414
Q 4578 3584 4928 3584
Q 5531 3584 5847 3212
Q 6163 2841 6163 2131
L 6163 0
L 5038 0
L 5038 1825
Q 5041 1866 5042 1909
Q 5044 1953 5044 2034
Q 5044 2406 4934 2573
Q 4825 2741 4581 2741
Q 4263 2741 4089 2478
Q 3916 2216 3909 1719
L 3909 0
L 2784 0
L 2784 1825
Q 2784 2406 2684 2573
Q 2584 2741 2328 2741
Q 2006 2741 1831 2477
Q 1656 2213 1656 1722
L 1656 0
L 531 0
L 531 3500
L 1656 3500
L 1656 2988
Q 1863 3284 2130 3434
Q 2397 3584 2719 3584
Q 3081 3584 3359 3409
Q 3638 3234 3781 2919
z
" transform="scale(0.015625)"/>
      <path id="DejaVuSans-Bold-73" d="M 3272 3391
L 3272 2541
Q 2913 2691 2578 2766
Q 2244 2841 1947 2841
Q 1628 2841 1473 2761
Q 1319 2681 1319 2516
Q 1319 2381 1436 2309
Q 1553 2238 1856 2203
L 2053 2175
Q 2913 2066 3209 1816
Q 3506 1566 3506 1031
Q 3506 472 3093 190
Q 2681 -91 1863 -91
Q 1516 -91 1145 -36
Q 775 19 384 128
L 384 978
Q 719 816 1070 734
Q 1422 653 1784 653
Q 2113 653 2278 743
Q 2444 834 2444 1013
Q 2444 1163 2330 1236
Q 2216 1309 1875 1350
L 1678 1375
Q 931 1469 631 1722
Q 331 1975 331 2491
Q 331 3047 712 3315
Q 1094 3584 1881 3584
Q 2191 3584 2531 3537
Q 2872 3491 3272 3391
z
" transform="scale(0.015625)"/>
     </defs>
     <use xlink:href="#DejaVuSans-Bold-41"/>
     <use xlink:href="#DejaVuSans-Bold-72" transform="translate(77.392578 0)"/>
     <use xlink:href="#DejaVuSans-Bold-74" transform="translate(126.708984 0)"/>
     <use xlink:href="#DejaVuSans-Bold-69" transform="translate(174.511719 0)"/>
     <use xlink:href="#DejaVuSans-Bold-66" transform="translate(208.789062 0)"/>
     <use xlink:href="#DejaVuSans-Bold-61" transform="translate(252.294922 0)"/>
     <use xlink:href="#DejaVuSans-Bold-63" transform="translate(319.775391 0)"/>
     <use xlink:href="#DejaVuSans-Bold-74" transform="translate(379.052734 0)"/>
     <use xlink:href="#DejaVuSans-Bold-20" transform="translate(426.855469 0)"/>
     <use xlink:href="#DejaVuSans-Bold-6c" transform="translate(461.669922 0)"/>
     <use xlink:href="#DejaVuSans-Bold-69" transform="translate(495.947266 0)"/>
     <use xlink:href="#DejaVuSans-Bold-6e" transform="translate(530.224609 0)"/>
     <use xlink:href="#DejaVuSans-Bold-65" transform="translate(601.416016 0)"/>
     <use xlink:href="#DejaVuSans-Bold-61" transform="translate(669.238281 0)"/>
     <use xlink:href="#DejaVuSans-Bold-67" transform="translate(736.71875 0)"/>
     <use xlink:href="#DejaVuSans-Bold-65" transform="translate(808.300781 0)"/>
     <use xlink:href="#DejaVuSans-Bold-3a" transform="translate(876.123047 0)"/>
     <use xlink:href="#DejaVuSans-Bold-20" transform="translate(916.113281 0)"/>
     <use xlink:href="#DejaVuSans-Bold-6f" transform="translate(950.927734 0)"/>
     <use xlink:href="#DejaVuSans-Bold-6e" transform="translate(1019.628906 0)"/>
     <use xlink:href="#DejaVuSans-Bold-65" transform="translate(1090.820312 0)"/>
     <use xlink:href="#DejaVuSans-Bold-20" transform="translate(1158.642578 0)"/>
     <use xlink:href="#DejaVuSans-Bold-65" transform="translate(1193.457031 0)"/>
     <use xlink:href="#DejaVuSans-Bold-76" transform="translate(1261.279297 0)"/>
     <use xlink:href="#DejaVuSans-Bold-69" transform="translate(1326.464844 0)"/>
     <use xlink:href="#DejaVuSans-Bold-64" transform="translate(1360.742188 0)"/>
     <use xlink:href="#DejaVuSans-Bold-65" transform="translate(1432.324219 0)"/>
     <use xlink:href="#DejaVuSans-Bold-6e" transform="translate(1500.146484 0)"/>
     <use xlink:href="#DejaVuSans-Bold-63" transform="translate(1571.337891 0)"/>
     <use xlink:href="#DejaVuSans-Bold-65" transform="translate(1630.615234 0)"/>
     <use xlink:href="#DejaVuSans-Bold-20" transform="translate(1698.4375 0)"/>
     <use xlink:href="#DejaVuSans-Bold-63" transform="translate(1733.251953 0)"/>
     <use xlink:href="#DejaVuSans-Bold-6f" transform="translate(1792.529297 0)"/>
     <use xlink:href="#DejaVuSans-Bold-6e" transform="translate(1861.230469 0)"/>
     <use xlink:href="#DejaVuSans-Bold-74" transform="translate(1932.421875 0)"/>
     <use xlink:href="#DejaVuSans-Bold-72" transform="translate(1980.224609 0)"/>
     <use xlink:href="#DejaVuSans-Bold-61" transform="translate(2029.541016 0)"/>
     <use xlink:href="#DejaVuSans-Bold-63" transform="translate(2097.021484 0)"/>
     <use xlink:href="#DejaVuSans-Bold-74" transform="translate(2156.298828 0)"/>
     <use xlink:href="#DejaVuSans-Bold-20" transform="translate(2204.101562 0)"/>
     <use xlink:href="#DejaVuSans-Bold-66" transform="translate(2238.916016 0)"/>
     <use xlink:href="#DejaVuSans-Bold-72" transform="translate(2282.421875 0)"/>
     <use xlink:href="#DejaVuSans-Bold-6f" transform="translate(2331.738281 0)"/>
     <use xlink:href="#DejaVuSans-Bold-6d" transform="translate(2400.439453 0)"/>
     <use xlink:href="#DejaVuSans-Bold-20" transform="translate(2504.638672 0)"/>
     <use xlink:href="#DejaVuSans-Bold-73" transform="translate(2539.453125 0)"/>
     <use xlink:href="#DejaVuSans-Bold-63" transform="translate(2598.974609 0)"/>
     <use xlink:href="#DejaVuSans-Bold-65" transform="translate(2658.251953 0)"/>
     <use xlink:href="#DejaVuSans-Bold-6e" transform="translate(2726.074219 0)"/>
     <use xlink:href="#DejaVuSans-Bold-61" transform="translate(2797.265625 0)"/>
     <use xlink:href="#DejaVuSans-Bold-72" transform="translate(2864.746094 0)"/>
     <use xlink:href="#DejaVuSans-Bold-69" transform="translate(2914.0625 0)"/>
     <use xlink:href="#DejaVuSans-Bold-6f" transform="translate(2948.339844 0)"/>
     <use xlink:href="#DejaVuSans-Bold-20" transform="translate(3017.041016 0)"/>
     <use xlink:href="#DejaVuSans-Bold-74" transform="translate(3051.855469 0)"/>
     <use xlink:href="#DejaVuSans-Bold-6f" transform="translate(3099.658203 0)"/>
     <use xlink:href="#DejaVuSans-Bold-20" transform="translate(3168.359375 0)"/>
     <use xlink:href="#DejaVuSans-Bold-73" transform="translate(3203.173828 0)"/>
     <use xlink:href="#DejaVuSans-Bold-6c" transform="translate(3262.695312 0)"/>
     <use xlink:href="#DejaVuSans-Bold-69" transform="translate(3296.972656 0)"/>
     <use xlink:href="#DejaVuSans-Bold-64" transform="translate(3331.25 0)"/>
     <use xlink:href="#DejaVuSans-Bold-65" transform="translate(3402.832031 0)"/>
    </g>
   </g>
   <g id="text_2">
    <!-- Every result shown in the deck should trace back to scenario files, raw trajectories, judge rows, and current metrics exports. -->
    <g style="fill: #5b6670" transform="translate(38.448 61.08768) scale(0.12 -0.12)">
     <defs>
      <path id="DejaVuSans-45" d="M 628 4666
L 3578 4666
L 3578 4134
L 1259 4134
L 1259 2753
L 3481 2753
L 3481 2222
L 1259 2222
L 1259 531
L 3634 531
L 3634 0
L 628 0
L 628 4666
z
" transform="scale(0.015625)"/>
      <path id="DejaVuSans-76" d="M 191 3500
L 800 3500
L 1894 563
L 2988 3500
L 3597 3500
L 2284 0
L 1503 0
L 191 3500
z
" transform="scale(0.015625)"/>
      <path id="DejaVuSans-65" d="M 3597 1894
L 3597 1613
L 953 1613
Q 991 1019 1311 708
Q 1631 397 2203 397
Q 2534 397 2845 478
Q 3156 559 3463 722
L 3463 178
Q 3153 47 2828 -22
Q 2503 -91 2169 -91
Q 1331 -91 842 396
Q 353 884 353 1716
Q 353 2575 817 3079
Q 1281 3584 2069 3584
Q 2775 3584 3186 3129
Q 3597 2675 3597 1894
z
M 3022 2063
Q 3016 2534 2758 2815
Q 2500 3097 2075 3097
Q 1594 3097 1305 2825
Q 1016 2553 972 2059
L 3022 2063
z
" transform="scale(0.015625)"/>
      <path id="DejaVuSans-72" d="M 2631 2963
Q 2534 3019 2420 3045
Q 2306 3072 2169 3072
Q 1681 3072 1420 2755
Q 1159 2438 1159 1844
L 1159 0
L 581 0
L 581 3500
L 1159 3500
L 1159 2956
Q 1341 3275 1631 3429
Q 1922 3584 2338 3584
Q 2397 3584 2469 3576
Q 2541 3569 2628 3553
L 2631 2963
z
" transform="scale(0.015625)"/>
      <path id="DejaVuSans-79" d="M 2059 -325
Q 1816 -950 1584 -1140
Q 1353 -1331 966 -1331
L 506 -1331
L 506 -850
L 844 -850
Q 1081 -850 1212 -737
Q 1344 -625 1503 -206
L 1606 56
L 191 3500
L 800 3500
L 1894 763
L 2988 3500
L 3597 3500
L 2059 -325
z
" transform="scale(0.015625)"/>
      <path id="DejaVuSans-20" transform="scale(0.015625)"/>
      <path id="DejaVuSans-73" d="M 2834 3397
L 2834 2853
Q 2591 2978 2328 3040
Q 2066 3103 1784 3103
Q 1356 3103 1142 2972
Q 928 2841 928 2578
Q 928 2378 1081 2264
Q 1234 2150 1697 2047
L 1894 2003
Q 2506 1872 2764 1633
Q 3022 1394 3022 966
Q 3022 478 2636 193
Q 2250 -91 1575 -91
Q 1294 -91 989 -36
Q 684 19 347 128
L 347 722
Q 666 556 975 473
Q 1284 391 1588 391
Q 1994 391 2212 530
Q 2431 669 2431 922
Q 2431 1156 2273 1281
Q 2116 1406 1581 1522
L 1381 1569
Q 847 1681 609 1914
Q 372 2147 372 2553
Q 372 3047 722 3315
Q 1072 3584 1716 3584
Q 2034 3584 2315 3537
Q 2597 3491 2834 3397
z
" transform="scale(0.015625)"/>
      <path id="DejaVuSans-75" d="M 544 1381
L 544 3500
L 1119 3500
L 1119 1403
Q 1119 906 1312 657
Q 1506 409 1894 409
Q 2359 409 2629 706
Q 2900 1003 2900 1516
L 2900 3500
L 3475 3500
L 3475 0
L 2900 0
L 2900 538
Q 2691 219 2414 64
Q 2138 -91 1772 -91
Q 1169 -91 856 284
Q 544 659 544 1381
z
M 1991 3584
L 1991 3584
z
" transform="scale(0.015625)"/>
      <path id="DejaVuSans-6c" d="M 603 4863
L 1178 4863
L 1178 0
L 603 0
L 603 4863
z
" transform="scale(0.015625)"/>
      <path id="DejaVuSans-74" d="M 1172 4494
L 1172 3500
L 2356 3500
L 2356 3053
L 1172 3053
L 1172 1153
Q 1172 725 1289 603
Q 1406 481 1766 481
L 2356 481
L 2356 0
L 1766 0
Q 1100 0 847 248
Q 594 497 594 1153
L 594 3053
L 172 3053
L 172 3500
L 594 3500
L 594 4494
L 1172 4494
z
" transform="scale(0.015625)"/>
      <path id="DejaVuSans-68" d="M 3513 2113
L 3513 0
L 2938 0
L 2938 2094
Q 2938 2591 2744 2837
Q 2550 3084 2163 3084
Q 1697 3084 1428 2787
Q 1159 2491 1159 1978
L 1159 0
L 581 0
L 581 4863
L 1159 4863
L 1159 2956
Q 1366 3272 1645 3428
Q 1925 3584 2291 3584
Q 2894 3584 3203 3211
Q 3513 2838 3513 2113
z
" transform="scale(0.015625)"/>
      <path id="DejaVuSans-6f" d="M 1959 3097
Q 1497 3097 1228 2736
Q 959 2375 959 1747
Q 959 1119 1226 758
Q 1494 397 1959 397
Q 2419 397 2687 759
Q 2956 1122 2956 1747
Q 2956 2369 2687 2733
Q 2419 3097 1959 3097
z
M 1959 3584
Q 2709 3584 3137 3096
Q 3566 2609 3566 1747
Q 3566 888 3137 398
Q 2709 -91 1959 -91
Q 1206 -91 779 398
Q 353 888 353 1747
Q 353 2609 779 3096
Q 1206 3584 1959 3584
z
" transform="scale(0.015625)"/>
      <path id="DejaVuSans-77" d="M 269 3500
L 844 3500
L 1563 769
L 2278 3500
L 2956 3500
L 3675 769
L 4391 3500
L 4966 3500
L 4050 0
L 3372 0
L 2619 2869
L 1863 0
L 1184 0
L 269 3500
z
" transform="scale(0.015625)"/>
      <path id="DejaVuSans-6e" d="M 3513 2113
L 3513 0
L 2938 0
L 2938 2094
Q 2938 2591 2744 2837
Q 2550 3084 2163 3084
Q 1697 3084 1428 2787
Q 1159 2491 1159 1978
L 1159 0
L 581 0
L 581 3500
L 1159 3500
L 1159 2956
Q 1366 3272 1645 3428
Q 1925 3584 2291 3584
Q 2894 3584 3203 3211
Q 3513 2838 3513 2113
z
" transform="scale(0.015625)"/>
      <path id="DejaVuSans-69" d="M 603 3500
L 1178 3500
L 1178 0
L 603 0
L 603 3500
z
M 603 4863
L 1178 4863
L 1178 4134
L 603 4134
L 603 4863
z
" transform="scale(0.015625)"/>
      <path id="DejaVuSans-64" d="M 2906 2969
L 2906 4863
L 3481 4863
L 3481 0
L 2906 0
L 2906 525
Q 2725 213 2448 61
Q 2172 -91 1784 -91
Q 1150 -91 751 415
Q 353 922 353 1747
Q 353 2572 751 3078
Q 1150 3584 1784 3584
Q 2172 3584 2448 3432
Q 2725 3281 2906 2969
z
M 947 1747
Q 947 1113 1208 752
Q 1469 391 1925 391
Q 2381 391 2643 752
Q 2906 1113 2906 1747
Q 2906 2381 2643 2742
Q 2381 3103 1925 3103
Q 1469 3103 1208 2742
Q 947 2381 947 1747
z
" transform="scale(0.015625)"/>
      <path id="DejaVuSans-63" d="M 3122 3366
L 3122 2828
Q 2878 2963 2633 3030
Q 2388 3097 2138 3097
Q 1578 3097 1268 2742
Q 959 2388 959 1747
Q 959 1106 1268 751
Q 1578 397 2138 397
Q 2388 397 2633 464
Q 2878 531 3122 666
L 3122 134
Q 2881 22 2623 -34
Q 2366 -91 2075 -91
Q 1284 -91 818 406
Q 353 903 353 1747
Q 353 2603 823 3093
Q 1294 3584 2113 3584
Q 2378 3584 2631 3529
Q 2884 3475 3122 3366
z
" transform="scale(0.015625)"/>
      <path id="DejaVuSans-6b" d="M 581 4863
L 1159 4863
L 1159 1991
L 2875 3500
L 3609 3500
L 1753 1863
L 3688 0
L 2938 0
L 1159 1709
L 1159 0
L 581 0
L 581 4863
z
" transform="scale(0.015625)"/>
      <path id="DejaVuSans-61" d="M 2194 1759
Q 1497 1759 1228 1600
Q 959 1441 959 1056
Q 959 750 1161 570
Q 1363 391 1709 391
Q 2188 391 2477 730
Q 2766 1069 2766 1631
L 2766 1759
L 2194 1759
z
M 3341 1997
L 3341 0
L 2766 0
L 2766 531
Q 2569 213 2275 61
Q 1981 -91 1556 -91
Q 1019 -91 701 211
Q 384 513 384 1019
Q 384 1609 779 1909
Q 1175 2209 1959 2209
L 2766 2209
L 2766 2266
Q 2766 2663 2505 2880
Q 2244 3097 1772 3097
Q 1472 3097 1187 3025
Q 903 2953 641 2809
L 641 3341
Q 956 3463 1253 3523
Q 1550 3584 1831 3584
Q 2591 3584 2966 3190
Q 3341 2797 3341 1997
z
" transform="scale(0.015625)"/>
      <path id="DejaVuSans-62" d="M 3116 1747
Q 3116 2381 2855 2742
Q 2594 3103 2138 3103
Q 1681 3103 1420 2742
Q 1159 2381 1159 1747
Q 1159 1113 1420 752
Q 1681 391 2138 391
Q 2594 391 2855 752
Q 3116 1113 3116 1747
z
M 1159 2969
Q 1341 3281 1617 3432
Q 1894 3584 2278 3584
Q 2916 3584 3314 3078
Q 3713 2572 3713 1747
Q 3713 922 3314 415
Q 2916 -91 2278 -91
Q 1894 -91 1617 61
Q 1341 213 1159 525
L 1159 0
L 581 0
L 581 4863
L 1159 4863
L 1159 2969
z
" transform="scale(0.015625)"/>
      <path id="DejaVuSans-66" d="M 2375 4863
L 2375 4384
L 1825 4384
Q 1516 4384 1395 4259
Q 1275 4134 1275 3809
L 1275 3500
L 2222 3500
L 2222 3053
L 1275 3053
L 1275 0
L 697 0
L 697 3053
L 147 3053
L 147 3500
L 697 3500
L 697 3744
Q 697 4328 969 4595
Q 1241 4863 1831 4863
L 2375 4863
z
" transform="scale(0.015625)"/>
      <path id="DejaVuSans-2c" d="M 750 794
L 1409 794
L 1409 256
L 897 -744
L 494 -744
L 750 256
L 750 794
z
" transform="scale(0.015625)"/>
      <path id="DejaVuSans-6a" d="M 603 3500
L 1178 3500
L 1178 -63
Q 1178 -731 923 -1031
Q 669 -1331 103 -1331
L -116 -1331
L -116 -844
L 38 -844
Q 366 -844 484 -692
Q 603 -541 603 -63
L 603 3500
z
M 603 4863
L 1178 4863
L 1178 4134
L 603 4134
L 603 4863
z
" transform="scale(0.015625)"/>
      <path id="DejaVuSans-67" d="M 2906 1791
Q 2906 2416 2648 2759
Q 2391 3103 1925 3103
Q 1463 3103 1205 2759
Q 947 2416 947 1791
Q 947 1169 1205 825
Q 1463 481 1925 481
Q 2391 481 2648 825
Q 2906 1169 2906 1791
z
M 3481 434
Q 3481 -459 3084 -895
Q 2688 -1331 1869 -1331
Q 1566 -1331 1297 -1286
Q 1028 -1241 775 -1147
L 775 -588
Q 1028 -725 1275 -790
Q 1522 -856 1778 -856
Q 2344 -856 2625 -561
Q 2906 -266 2906 331
L 2906 616
Q 2728 306 2450 153
Q 2172 0 1784 0
Q 1141 0 747 490
Q 353 981 353 1791
Q 353 2603 747 3093
Q 1141 3584 1784 3584
Q 2172 3584 2450 3431
Q 2728 3278 2906 2969
L 2906 3500
L 3481 3500
L 3481 434
z
" transform="scale(0.015625)"/>
      <path id="DejaVuSans-6d" d="M 3328 2828
Q 3544 3216 3844 3400
Q 4144 3584 4550 3584
Q 5097 3584 5394 3201
Q 5691 2819 5691 2113
L 5691 0
L 5113 0
L 5113 2094
Q 5113 2597 4934 2840
Q 4756 3084 4391 3084
Q 3944 3084 3684 2787
Q 3425 2491 3425 1978
L 3425 0
L 2847 0
L 2847 2094
Q 2847 2600 2669 2842
Q 2491 3084 2119 3084
Q 1678 3084 1418 2786
Q 1159 2488 1159 1978
L 1159 0
L 581 0
L 581 3500
L 1159 3500
L 1159 2956
Q 1356 3278 1631 3431
Q 1906 3584 2284 3584
Q 2666 3584 2933 3390
Q 3200 3197 3328 2828
z
" transform="scale(0.015625)"/>
      <path id="DejaVuSans-78" d="M 3513 3500
L 2247 1797
L 3578 0
L 2900 0
L 1881 1375
L 863 0
L 184 0
L 1544 1831
L 300 3500
L 978 3500
L 1906 2253
L 2834 3500
L 3513 3500
z
" transform="scale(0.015625)"/>
      <path id="DejaVuSans-70" d="M 1159 525
L 1159 -1331
L 581 -1331
L 581 3500
L 1159 3500
L 1159 2969
Q 1341 3281 1617 3432
Q 1894 3584 2278 3584
Q 2916 3584 3314 3078
Q 3713 2572 3713 1747
Q 3713 922 3314 415
Q 2916 -91 2278 -91
Q 1894 -91 1617 61
Q 1341 213 1159 525
z
M 3116 1747
Q 3116 2381 2855 2742
Q 2594 3103 2138 3103
Q 1681 3103 1420 2742
Q 1159 2381 1159 1747
Q 1159 1113 1420 752
Q 1681 391 2138 391
Q 2594 391 2855 752
Q 3116 1113 3116 1747
z
" transform="scale(0.015625)"/>
      <path id="DejaVuSans-2e" d="M 684 794
L 1344 794
L 1344 0
L 684 0
L 684 794
z
" transform="scale(0.015625)"/>
     </defs>
     <use xlink:href="#DejaVuSans-45"/>
     <use xlink:href="#DejaVuSans-76" transform="translate(63.183594 0)"/>
     <use xlink:href="#DejaVuSans-65" transform="translate(122.363281 0)"/>
     <use xlink:href="#DejaVuSans-72" transform="translate(183.886719 0)"/>
     <use xlink:href="#DejaVuSans-79" transform="translate(225 0)"/>
     <use xlink:href="#DejaVuSans-20" transform="translate(284.179688 0)"/>
     <use xlink:href="#DejaVuSans-72" transform="translate(315.966797 0)"/>
     <use xlink:href="#DejaVuSans-65" transform="translate(354.830078 0)"/>
     <use xlink:href="#DejaVuSans-73" transform="translate(416.353516 0)"/>
     <use xlink:href="#DejaVuSans-75" transform="translate(468.453125 0)"/>
     <use xlink:href="#DejaVuSans-6c" transform="translate(531.832031 0)"/>
     <use xlink:href="#DejaVuSans-74" transform="translate(559.615234 0)"/>
     <use xlink:href="#DejaVuSans-20" transform="translate(598.824219 0)"/>
     <use xlink:href="#DejaVuSans-73" transform="translate(630.611328 0)"/>
     <use xlink:href="#DejaVuSans-68" transform="translate(682.710938 0)"/>
     <use xlink:href="#DejaVuSans-6f" transform="translate(746.089844 0)"/>
     <use xlink:href="#DejaVuSans-77" transform="translate(807.271484 0)"/>
     <use xlink:href="#DejaVuSans-6e" transform="translate(889.058594 0)"/>
     <use xlink:href="#DejaVuSans-20" transform="translate(952.4375 0)"/>
     <use xlink:href="#DejaVuSans-69" transform="translate(984.224609 0)"/>
     <use xlink:href="#DejaVuSans-6e" transform="translate(1012.007812 0)"/>
     <use xlink:href="#DejaVuSans-20" transform="translate(1075.386719 0)"/>
     <use xlink:href="#DejaVuSans-74" transform="translate(1107.173828 0)"/>
     <use xlink:href="#DejaVuSans-68" transform="translate(1146.382812 0)"/>
     <use xlink:href="#DejaVuSans-65" transform="translate(1209.761719 0)"/>
     <use xlink:href="#DejaVuSans-20" transform="translate(1271.285156 0)"/>
     <use xlink:href="#DejaVuSans-64" transform="translate(1303.072266 0)"/>
     <use xlink:href="#DejaVuSans-65" transform="translate(1366.548828 0)"/>
     <use xlink:href="#DejaVuSans-63" transform="translate(1428.072266 0)"/>
     <use xlink:href="#DejaVuSans-6b" transform="translate(1483.052734 0)"/>
     <use xlink:href="#DejaVuSans-20" transform="translate(1540.962891 0)"/>
     <use xlink:href="#DejaVuSans-73" transform="translate(1572.75 0)"/>
     <use xlink:href="#DejaVuSans-68" transform="translate(1624.849609 0)"/>
     <use xlink:href="#DejaVuSans-6f" transform="translate(1688.228516 0)"/>
     <use xlink:href="#DejaVuSans-75" transform="translate(1749.410156 0)"/>
     <use xlink:href="#DejaVuSans-6c" transform="translate(1812.789062 0)"/>
     <use xlink:href="#DejaVuSans-64" transform="translate(1840.572266 0)"/>
     <use xlink:href="#DejaVuSans-20" transform="translate(1904.048828 0)"/>
     <use xlink:href="#DejaVuSans-74" transform="translate(1935.835938 0)"/>
     <use xlink:href="#DejaVuSans-72" transform="translate(1975.044922 0)"/>
     <use xlink:href="#DejaVuSans-61" transform="translate(2016.158203 0)"/>
     <use xlink:href="#DejaVuSans-63" transform="translate(2077.4375 0)"/>
     <use xlink:href="#DejaVuSans-65" transform="translate(2132.417969 0)"/>
     <use xlink:href="#DejaVuSans-20" transform="translate(2193.941406 0)"/>
     <use xlink:href="#DejaVuSans-62" transform="translate(2225.728516 0)"/>
     <use xlink:href="#DejaVuSans-61" transform="translate(2289.205078 0)"/>
     <use xlink:href="#DejaVuSans-63" transform="translate(2350.484375 0)"/>
     <use xlink:href="#DejaVuSans-6b" transform="translate(2405.464844 0)"/>
     <use xlink:href="#DejaVuSans-20" transform="translate(2463.375 0)"/>
     <use xlink:href="#DejaVuSans-74" transform="translate(2495.162109 0)"/>
     <use xlink:href="#DejaVuSans-6f" transform="translate(2534.371094 0)"/>
     <use xlink:href="#DejaVuSans-20" transform="translate(2595.552734 0)"/>
     <use xlink:href="#DejaVuSans-73" transform="translate(2627.339844 0)"/>
     <use xlink:href="#DejaVuSans-63" transform="translate(2679.439453 0)"/>
     <use xlink:href="#DejaVuSans-65" transform="translate(2734.419922 0)"/>
     <use xlink:href="#DejaVuSans-6e" transform="translate(2795.943359 0)"/>
     <use xlink:href="#DejaVuSans-61" transform="translate(2859.322266 0)"/>
     <use xlink:href="#DejaVuSans-72" transform="translate(2920.601562 0)"/>
     <use xlink:href="#DejaVuSans-69" transform="translate(2961.714844 0)"/>
     <use xlink:href="#DejaVuSans-6f" transform="translate(2989.498047 0)"/>
     <use xlink:href="#DejaVuSans-20" transform="translate(3050.679688 0)"/>
     <use xlink:href="#DejaVuSans-66" transform="translate(3082.466797 0)"/>
     <use xlink:href="#DejaVuSans-69" transform="translate(3117.671875 0)"/>
     <use xlink:href="#DejaVuSans-6c" transform="translate(3145.455078 0)"/>
     <use xlink:href="#DejaVuSans-65" transform="translate(3173.238281 0)"/>
     <use xlink:href="#DejaVuSans-73" transform="translate(3234.761719 0)"/>
     <use xlink:href="#DejaVuSans-2c" transform="translate(3286.861328 0)"/>
     <use xlink:href="#DejaVuSans-20" transform="translate(3318.648438 0)"/>
     <use xlink:href="#DejaVuSans-72" transform="translate(3350.435547 0)"/>
     <use xlink:href="#DejaVuSans-61" transform="translate(3391.548828 0)"/>
     <use xlink:href="#DejaVuSans-77" transform="translate(3452.828125 0)"/>
     <use xlink:href="#DejaVuSans-20" transform="translate(3534.615234 0)"/>
     <use xlink:href="#DejaVuSans-74" transform="translate(3566.402344 0)"/>
     <use xlink:href="#DejaVuSans-72" transform="translate(3605.611328 0)"/>
     <use xlink:href="#DejaVuSans-61" transform="translate(3646.724609 0)"/>
     <use xlink:href="#DejaVuSans-6a" transform="translate(3708.003906 0)"/>
     <use xlink:href="#DejaVuSans-65" transform="translate(3735.787109 0)"/>
     <use xlink:href="#DejaVuSans-63" transform="translate(3797.310547 0)"/>
     <use xlink:href="#DejaVuSans-74" transform="translate(3852.291016 0)"/>
     <use xlink:href="#DejaVuSans-6f" transform="translate(3891.5 0)"/>
     <use xlink:href="#DejaVuSans-72" transform="translate(3952.681641 0)"/>
     <use xlink:href="#DejaVuSans-69" transform="translate(3993.794922 0)"/>
     <use xlink:href="#DejaVuSans-65" transform="translate(4021.578125 0)"/>
     <use xlink:href="#DejaVuSans-73" transform="translate(4083.101562 0)"/>
     <use xlink:href="#DejaVuSans-2c" transform="translate(4135.201172 0)"/>
     <use xlink:href="#DejaVuSans-20" transform="translate(4166.988281 0)"/>
     <use xlink:href="#DejaVuSans-6a" transform="translate(4198.775391 0)"/>
     <use xlink:href="#DejaVuSans-75" transform="translate(4226.558594 0)"/>
     <use xlink:href="#DejaVuSans-64" transform="translate(4289.9375 0)"/>
     <use xlink:href="#DejaVuSans-67" transform="translate(4353.414062 0)"/>
     <use xlink:href="#DejaVuSans-65" transform="translate(4416.890625 0)"/>
     <use xlink:href="#DejaVuSans-20" transform="translate(4478.414062 0)"/>
     <use xlink:href="#DejaVuSans-72" transform="translate(4510.201172 0)"/>
     <use xlink:href="#DejaVuSans-6f" transform="translate(4549.064453 0)"/>
     <use xlink:href="#DejaVuSans-77" transform="translate(4610.246094 0)"/>
     <use xlink:href="#DejaVuSans-73" transform="translate(4692.033203 0)"/>
     <use xlink:href="#DejaVuSans-2c" transform="translate(4744.132812 0)"/>
     <use xlink:href="#DejaVuSans-20" transform="translate(4775.919922 0)"/>
     <use xlink:href="#DejaVuSans-61" transform="translate(4807.707031 0)"/>
     <use xlink:href="#DejaVuSans-6e" transform="translate(4868.986328 0)"/>
     <use xlink:href="#DejaVuSans-64" transform="translate(4932.365234 0)"/>
     <use xlink:href="#DejaVuSans-20" transform="translate(4995.841797 0)"/>
     <use xlink:href="#DejaVuSans-63" transform="translate(5027.628906 0)"/>
     <use xlink:href="#DejaVuSans-75" transform="translate(5082.609375 0)"/>
     <use xlink:href="#DejaVuSans-72" transform="translate(5145.988281 0)"/>
     <use xlink:href="#DejaVuSans-72" transform="translate(5185.351562 0)"/>
     <use xlink:href="#DejaVuSans-65" transform="translate(5224.214844 0)"/>
     <use xlink:href="#DejaVuSans-6e" transform="translate(5285.738281 0)"/>
     <use xlink:href="#DejaVuSans-74" transform="translate(5349.117188 0)"/>
     <use xlink:href="#DejaVuSans-20" transform="translate(5388.326172 0)"/>
     <use xlink:href="#DejaVuSans-6d" transform="translate(5420.113281 0)"/>
     <use xlink:href="#DejaVuSans-65" transform="translate(5517.525391 0)"/>
     <use xlink:href="#DejaVuSans-74" transform="translate(5579.048828 0)"/>
     <use xlink:href="#DejaVuSans-72" transform="translate(5618.257812 0)"/>
     <use xlink:href="#DejaVuSans-69" transform="translate(5659.371094 0)"/>
     <use xlink:href="#DejaVuSans-63" transform="translate(5687.154297 0)"/>
     <use xlink:href="#DejaVuSans-73" transform="translate(5742.134766 0)"/>
     <use xlink:href="#DejaVuSans-20" transform="translate(5794.234375 0)"/>
     <use xlink:href="#DejaVuSans-65" transform="translate(5826.021484 0)"/>
     <use xlink:href="#DejaVuSans-78" transform="translate(5885.794922 0)"/>
     <use xlink:href="#DejaVuSans-70" transform="translate(5944.974609 0)"/>
     <use xlink:href="#DejaVuSans-6f" transform="translate(6008.451172 0)"/>
     <use xlink:href="#DejaVuSans-72" transform="translate(6069.632812 0)"/>
     <use xlink:href="#DejaVuSans-74" transform="translate(6110.746094 0)"/>
     <use xlink:href="#DejaVuSans-73" transform="translate(6149.955078 0)"/>
     <use xlink:href="#DejaVuSans-2e" transform="translate(6202.054688 0)"/>
    </g>
   </g>
   <g id="text_3">
    <!-- Scenario -->
    <g style="fill: #1f6f78" transform="translate(61.884 130.94208) scale(0.13 -0.13)">
     <defs>
      <path id="DejaVuSans-Bold-53" d="M 3834 4519
L 3834 3531
Q 3450 3703 3084 3790
Q 2719 3878 2394 3878
Q 1963 3878 1756 3759
Q 1550 3641 1550 3391
Q 1550 3203 1689 3098
Q 1828 2994 2194 2919
L 2706 2816
Q 3484 2659 3812 2340
Q 4141 2022 4141 1434
Q 4141 663 3683 286
Q 3225 -91 2284 -91
Q 1841 -91 1394 -6
Q 947 78 500 244
L 500 1259
Q 947 1022 1364 901
Q 1781 781 2169 781
Q 2563 781 2772 912
Q 2981 1044 2981 1288
Q 2981 1506 2839 1625
Q 2697 1744 2272 1838
L 1806 1941
Q 1106 2091 782 2419
Q 459 2747 459 3303
Q 459 4000 909 4375
Q 1359 4750 2203 4750
Q 2588 4750 2994 4692
Q 3400 4634 3834 4519
z
" transform="scale(0.015625)"/>
     </defs>
     <use xlink:href="#DejaVuSans-Bold-53"/>
     <use xlink:href="#DejaVuSans-Bold-63" transform="translate(72.021484 0)"/>
     <use xlink:href="#DejaVuSans-Bold-65" transform="translate(131.298828 0)"/>
     <use xlink:href="#DejaVuSans-Bold-6e" transform="translate(199.121094 0)"/>
     <use xlink:href="#DejaVuSans-Bold-61" transform="translate(270.3125 0)"/>
     <use xlink:href="#DejaVuSans-Bold-72" transform="translate(337.792969 0)"/>
     <use xlink:href="#DejaVuSans-Bold-69" transform="translate(387.109375 0)"/>
     <use xlink:href="#DejaVuSans-Bold-6f" transform="translate(421.386719 0)"/>
    </g>
   </g>
   <g id="text_4">
    <!-- 36 paper-grade -->
    <g style="fill: #1f2328" transform="translate(61.884 169.714114) scale(0.09 -0.09)">
     <defs>
      <path id="DejaVuSans-33" d="M 2597 2516
Q 3050 2419 3304 2112
Q 3559 1806 3559 1356
Q 3559 666 3084 287
Q 2609 -91 1734 -91
Q 1441 -91 1130 -33
Q 819 25 488 141
L 488 750
Q 750 597 1062 519
Q 1375 441 1716 441
Q 2309 441 2620 675
Q 2931 909 2931 1356
Q 2931 1769 2642 2001
Q 2353 2234 1838 2234
L 1294 2234
L 1294 2753
L 1863 2753
Q 2328 2753 2575 2939
Q 2822 3125 2822 3475
Q 2822 3834 2567 4026
Q 2313 4219 1838 4219
Q 1578 4219 1281 4162
Q 984 4106 628 3988
L 628 4550
Q 988 4650 1302 4700
Q 1616 4750 1894 4750
Q 2613 4750 3031 4423
Q 3450 4097 3450 3541
Q 3450 3153 3228 2886
Q 3006 2619 2597 2516
z
" transform="scale(0.015625)"/>
      <path id="DejaVuSans-36" d="M 2113 2584
Q 1688 2584 1439 2293
Q 1191 2003 1191 1497
Q 1191 994 1439 701
Q 1688 409 2113 409
Q 2538 409 2786 701
Q 3034 994 3034 1497
Q 3034 2003 2786 2293
Q 2538 2584 2113 2584
z
M 3366 4563
L 3366 3988
Q 3128 4100 2886 4159
Q 2644 4219 2406 4219
Q 1781 4219 1451 3797
Q 1122 3375 1075 2522
Q 1259 2794 1537 2939
Q 1816 3084 2150 3084
Q 2853 3084 3261 2657
Q 3669 2231 3669 1497
Q 3669 778 3244 343
Q 2819 -91 2113 -91
Q 1303 -91 875 529
Q 447 1150 447 2328
Q 447 3434 972 4092
Q 1497 4750 2381 4750
Q 2619 4750 2861 4703
Q 3103 4656 3366 4563
z
" transform="scale(0.015625)"/>
      <path id="DejaVuSans-2d" d="M 313 2009
L 1997 2009
L 1997 1497
L 313 1497
L 313 2009
z
" transform="scale(0.015625)"/>
     </defs>
     <use xlink:href="#DejaVuSans-33"/>
     <use xlink:href="#DejaVuSans-36" transform="translate(63.623047 0)"/>
     <use xlink:href="#DejaVuSans-20" transform="translate(127.246094 0)"/>
     <use xlink:href="#DejaVuSans-70" transform="translate(159.033203 0)"/>
     <use xlink:href="#DejaVuSans-61" transform="translate(222.509766 0)"/>
     <use xlink:href="#DejaVuSans-70" transform="translate(283.789062 0)"/>
     <use xlink:href="#DejaVuSans-65" transform="translate(347.265625 0)"/>
     <use xlink:href="#DejaVuSans-72" transform="translate(408.789062 0)"/>
     <use xlink:href="#DejaVuSans-2d" transform="translate(443.527344 0)"/>
     <use xlink:href="#DejaVuSans-67" transform="translate(479.611328 0)"/>
     <use xlink:href="#DejaVuSans-72" transform="translate(543.087891 0)"/>
     <use xlink:href="#DejaVuSans-61" transform="translate(584.201172 0)"/>
     <use xlink:href="#DejaVuSans-64" transform="translate(645.480469 0)"/>
     <use xlink:href="#DejaVuSans-65" transform="translate(708.957031 0)"/>
    </g>
    <!-- 5 negative fixtures -->
    <g style="fill: #1f2328" transform="translate(61.884 180.134075) scale(0.09 -0.09)">
     <defs>
      <path id="DejaVuSans-35" d="M 691 4666
L 3169 4666
L 3169 4134
L 1269 4134
L 1269 2991
Q 1406 3038 1543 3061
Q 1681 3084 1819 3084
Q 2600 3084 3056 2656
Q 3513 2228 3513 1497
Q 3513 744 3044 326
Q 2575 -91 1722 -91
Q 1428 -91 1123 -41
Q 819 9 494 109
L 494 744
Q 775 591 1075 516
Q 1375 441 1709 441
Q 2250 441 2565 725
Q 2881 1009 2881 1497
Q 2881 1984 2565 2268
Q 2250 2553 1709 2553
Q 1456 2553 1204 2497
Q 953 2441 691 2322
L 691 4666
z
" transform="scale(0.015625)"/>
     </defs>
     <use xlink:href="#DejaVuSans-35"/>
     <use xlink:href="#DejaVuSans-20" transform="translate(63.623047 0)"/>
     <use xlink:href="#DejaVuSans-6e" transform="translate(95.410156 0)"/>
     <use xlink:href="#DejaVuSans-65" transform="translate(158.789062 0)"/>
     <use xlink:href="#DejaVuSans-67" transform="translate(220.3125 0)"/>
     <use xlink:href="#DejaVuSans-61" transform="translate(283.789062 0)"/>
     <use xlink:href="#DejaVuSans-74" transform="translate(345.068359 0)"/>
     <use xlink:href="#DejaVuSans-69" transform="translate(384.277344 0)"/>
     <use xlink:href="#DejaVuSans-76" transform="translate(412.060547 0)"/>
     <use xlink:href="#DejaVuSans-65" transform="translate(471.240234 0)"/>
     <use xlink:href="#DejaVuSans-20" transform="translate(532.763672 0)"/>
     <use xlink:href="#DejaVuSans-66" transform="translate(564.550781 0)"/>
     <use xlink:href="#DejaVuSans-69" transform="translate(599.755859 0)"/>
     <use xlink:href="#DejaVuSans-78" transform="translate(627.539062 0)"/>
     <use xlink:href="#DejaVuSans-74" transform="translate(686.71875 0)"/>
     <use xlink:href="#DejaVuSans-75" transform="translate(725.927734 0)"/>
     <use xlink:href="#DejaVuSans-72" transform="translate(789.306641 0)"/>
     <use xlink:href="#DejaVuSans-65" transform="translate(828.169922 0)"/>
     <use xlink:href="#DejaVuSans-73" transform="translate(889.693359 0)"/>
    </g>
   </g>
   <g id="text_5">
    <!-- Tools -->
    <g style="fill: #4c6f9f" transform="translate(225.936 130.94208) scale(0.13 -0.13)">
     <defs>
      <path id="DejaVuSans-Bold-54" d="M 31 4666
L 4331 4666
L 4331 3756
L 2784 3756
L 2784 0
L 1581 0
L 1581 3756
L 31 3756
L 31 4666
z
" transform="scale(0.015625)"/>
     </defs>
     <use xlink:href="#DejaVuSans-Bold-54"/>
     <use xlink:href="#DejaVuSans-Bold-6f" transform="translate(54.962891 0)"/>
     <use xlink:href="#DejaVuSans-Bold-6f" transform="translate(123.664062 0)"/>
     <use xlink:href="#DejaVuSans-Bold-6c" transform="translate(192.365234 0)"/>
     <use xlink:href="#DejaVuSans-Bold-73" transform="translate(226.642578 0)"/>
    </g>
   </g>
   <g id="text_6">
    <!-- MCP or direct -->
    <g style="fill: #1f2328" transform="translate(225.936 169.714114) scale(0.09 -0.09)">
     <defs>
      <path id="DejaVuSans-4d" d="M 628 4666
L 1569 4666
L 2759 1491
L 3956 4666
L 4897 4666
L 4897 0
L 4281 0
L 4281 4097
L 3078 897
L 2444 897
L 1241 4097
L 1241 0
L 628 0
L 628 4666
z
" transform="scale(0.015625)"/>
      <path id="DejaVuSans-43" d="M 4122 4306
L 4122 3641
Q 3803 3938 3442 4084
Q 3081 4231 2675 4231
Q 1875 4231 1450 3742
Q 1025 3253 1025 2328
Q 1025 1406 1450 917
Q 1875 428 2675 428
Q 3081 428 3442 575
Q 3803 722 4122 1019
L 4122 359
Q 3791 134 3420 21
Q 3050 -91 2638 -91
Q 1578 -91 968 557
Q 359 1206 359 2328
Q 359 3453 968 4101
Q 1578 4750 2638 4750
Q 3056 4750 3426 4639
Q 3797 4528 4122 4306
z
" transform="scale(0.015625)"/>
      <path id="DejaVuSans-50" d="M 1259 4147
L 1259 2394
L 2053 2394
Q 2494 2394 2734 2622
Q 2975 2850 2975 3272
Q 2975 3691 2734 3919
Q 2494 4147 2053 4147
L 1259 4147
z
M 628 4666
L 2053 4666
Q 2838 4666 3239 4311
Q 3641 3956 3641 3272
Q 3641 2581 3239 2228
Q 2838 1875 2053 1875
L 1259 1875
L 1259 0
L 628 0
L 628 4666
z
" transform="scale(0.015625)"/>
     </defs>
     <use xlink:href="#DejaVuSans-4d"/>
     <use xlink:href="#DejaVuSans-43" transform="translate(86.279297 0)"/>
     <use xlink:href="#DejaVuSans-50" transform="translate(156.103516 0)"/>
     <use xlink:href="#DejaVuSans-20" transform="translate(216.40625 0)"/>
     <use xlink:href="#DejaVuSans-6f" transform="translate(248.193359 0)"/>
     <use xlink:href="#DejaVuSans-72" transform="translate(309.375 0)"/>
     <use xlink:href="#DejaVuSans-20" transform="translate(350.488281 0)"/>
     <use xlink:href="#DejaVuSans-64" transform="translate(382.275391 0)"/>
     <use xlink:href="#DejaVuSans-69" transform="translate(445.751953 0)"/>
     <use xlink:href="#DejaVuSans-72" transform="translate(473.535156 0)"/>
     <use xlink:href="#DejaVuSans-65" transform="translate(512.398438 0)"/>
     <use xlink:href="#DejaVuSans-63" transform="translate(573.921875 0)"/>
     <use xlink:href="#DejaVuSans-74" transform="translate(628.902344 0)"/>
    </g>
    <!-- 4 tool domains -->
    <g style="fill: #1f2328" transform="translate(225.936 180.134075) scale(0.09 -0.09)">
     <defs>
      <path id="DejaVuSans-34" d="M 2419 4116
L 825 1625
L 2419 1625
L 2419 4116
z
M 2253 4666
L 3047 4666
L 3047 1625
L 3713 1625
L 3713 1100
L 3047 1100
L 3047 0
L 2419 0
L 2419 1100
L 313 1100
L 313 1709
L 2253 4666
z
" transform="scale(0.015625)"/>
     </defs>
     <use xlink:href="#DejaVuSans-34"/>
     <use xlink:href="#DejaVuSans-20" transform="translate(63.623047 0)"/>
     <use xlink:href="#DejaVuSans-74" transform="translate(95.410156 0)"/>
     <use xlink:href="#DejaVuSans-6f" transform="translate(134.619141 0)"/>
     <use xlink:href="#DejaVuSans-6f" transform="translate(195.800781 0)"/>
     <use xlink:href="#DejaVuSans-6c" transform="translate(256.982422 0)"/>
     <use xlink:href="#DejaVuSans-20" transform="translate(284.765625 0)"/>
     <use xlink:href="#DejaVuSans-64" transform="translate(316.552734 0)"/>
     <use xlink:href="#DejaVuSans-6f" transform="translate(380.029297 0)"/>
     <use xlink:href="#DejaVuSans-6d" transform="translate(441.210938 0)"/>
     <use xlink:href="#DejaVuSans-61" transform="translate(538.623047 0)"/>
     <use xlink:href="#DejaVuSans-69" transform="translate(599.902344 0)"/>
     <use xlink:href="#DejaVuSans-6e" transform="translate(627.685547 0)"/>
     <use xlink:href="#DejaVuSans-73" transform="translate(691.064453 0)"/>
    </g>
   </g>
   <g id="text_7">
    <!-- Trajectory -->
    <g style="fill: #6f7d2a" transform="translate(389.988 130.94208) scale(0.13 -0.13)">
     <defs>
      <path id="DejaVuSans-Bold-6a" d="M 538 3500
L 1656 3500
L 1656 63
Q 1656 -641 1318 -1011
Q 981 -1381 341 -1381
L -213 -1381
L -213 -647
L -19 -647
Q 300 -647 419 -503
Q 538 -359 538 63
L 538 3500
z
M 538 4863
L 1656 4863
L 1656 3950
L 538 3950
L 538 4863
z
" transform="scale(0.015625)"/>
      <path id="DejaVuSans-Bold-79" d="M 78 3500
L 1197 3500
L 2138 1125
L 2938 3500
L 4056 3500
L 2584 -331
Q 2363 -916 2067 -1148
Q 1772 -1381 1288 -1381
L 641 -1381
L 641 -647
L 991 -647
Q 1275 -647 1404 -556
Q 1534 -466 1606 -231
L 1638 -134
L 78 3500
z
" transform="scale(0.015625)"/>
     </defs>
     <use xlink:href="#DejaVuSans-Bold-54"/>
     <use xlink:href="#DejaVuSans-Bold-72" transform="translate(57.212891 0)"/>
     <use xlink:href="#DejaVuSans-Bold-61" transform="translate(106.529297 0)"/>
     <use xlink:href="#DejaVuSans-Bold-6a" transform="translate(174.009766 0)"/>
     <use xlink:href="#DejaVuSans-Bold-65" transform="translate(208.287109 0)"/>
     <use xlink:href="#DejaVuSans-Bold-63" transform="translate(276.109375 0)"/>
     <use xlink:href="#DejaVuSans-Bold-74" transform="translate(335.386719 0)"/>
     <use xlink:href="#DejaVuSans-Bold-6f" transform="translate(383.189453 0)"/>
     <use xlink:href="#DejaVuSans-Bold-72" transform="translate(451.890625 0)"/>
     <use xlink:href="#DejaVuSans-Bold-79" transform="translate(501.207031 0)"/>
    </g>
   </g>
   <g id="text_8">
    <!-- raw trial JSON -->
    <g style="fill: #1f2328" transform="translate(389.988 169.714114) scale(0.09 -0.09)">
     <defs>
      <path id="DejaVuSans-4a" d="M 628 4666
L 1259 4666
L 1259 325
Q 1259 -519 939 -900
Q 619 -1281 -91 -1281
L -331 -1281
L -331 -750
L -134 -750
Q 284 -750 456 -515
Q 628 -281 628 325
L 628 4666
z
" transform="scale(0.015625)"/>
      <path id="DejaVuSans-53" d="M 3425 4513
L 3425 3897
Q 3066 4069 2747 4153
Q 2428 4238 2131 4238
Q 1616 4238 1336 4038
Q 1056 3838 1056 3469
Q 1056 3159 1242 3001
Q 1428 2844 1947 2747
L 2328 2669
Q 3034 2534 3370 2195
Q 3706 1856 3706 1288
Q 3706 609 3251 259
Q 2797 -91 1919 -91
Q 1588 -91 1214 -16
Q 841 59 441 206
L 441 856
Q 825 641 1194 531
Q 1563 422 1919 422
Q 2459 422 2753 634
Q 3047 847 3047 1241
Q 3047 1584 2836 1778
Q 2625 1972 2144 2069
L 1759 2144
Q 1053 2284 737 2584
Q 422 2884 422 3419
Q 422 4038 858 4394
Q 1294 4750 2059 4750
Q 2388 4750 2728 4690
Q 3069 4631 3425 4513
z
" transform="scale(0.015625)"/>
      <path id="DejaVuSans-4f" d="M 2522 4238
Q 1834 4238 1429 3725
Q 1025 3213 1025 2328
Q 1025 1447 1429 934
Q 1834 422 2522 422
Q 3209 422 3611 934
Q 4013 1447 4013 2328
Q 4013 3213 3611 3725
Q 3209 4238 2522 4238
z
M 2522 4750
Q 3503 4750 4090 4092
Q 4678 3434 4678 2328
Q 4678 1225 4090 567
Q 3503 -91 2522 -91
Q 1538 -91 948 565
Q 359 1222 359 2328
Q 359 3434 948 4092
Q 1538 4750 2522 4750
z
" transform="scale(0.015625)"/>
      <path id="DejaVuSans-4e" d="M 628 4666
L 1478 4666
L 3547 763
L 3547 4666
L 4159 4666
L 4159 0
L 3309 0
L 1241 3903
L 1241 0
L 628 0
L 628 4666
z
" transform="scale(0.015625)"/>
     </defs>
     <use xlink:href="#DejaVuSans-72"/>
     <use xlink:href="#DejaVuSans-61" transform="translate(41.113281 0)"/>
     <use xlink:href="#DejaVuSans-77" transform="translate(102.392578 0)"/>
     <use xlink:href="#DejaVuSans-20" transform="translate(184.179688 0)"/>
     <use xlink:href="#DejaVuSans-74" transform="translate(215.966797 0)"/>
     <use xlink:href="#DejaVuSans-72" transform="translate(255.175781 0)"/>
     <use xlink:href="#DejaVuSans-69" transform="translate(296.289062 0)"/>
     <use xlink:href="#DejaVuSans-61" transform="translate(324.072266 0)"/>
     <use xlink:href="#DejaVuSans-6c" transform="translate(385.351562 0)"/>
     <use xlink:href="#DejaVuSans-20" transform="translate(413.134766 0)"/>
     <use xlink:href="#DejaVuSans-4a" transform="translate(444.921875 0)"/>
     <use xlink:href="#DejaVuSans-53" transform="translate(474.414062 0)"/>
     <use xlink:href="#DejaVuSans-4f" transform="translate(537.890625 0)"/>
     <use xlink:href="#DejaVuSans-4e" transform="translate(616.601562 0)"/>
    </g>
    <!-- latencies.jsonl -->
    <g style="fill: #1f2328" transform="translate(389.988 180.134075) scale(0.09 -0.09)">
     <use xlink:href="#DejaVuSans-6c"/>
     <use xlink:href="#DejaVuSans-61" transform="translate(27.783203 0)"/>
     <use xlink:href="#DejaVuSans-74" transform="translate(89.0625 0)"/>
     <use xlink:href="#DejaVuSans-65" transform="translate(128.271484 0)"/>
     <use xlink:href="#DejaVuSans-6e" transform="translate(189.794922 0)"/>
     <use xlink:href="#DejaVuSans-63" transform="translate(253.173828 0)"/>
     <use xlink:href="#DejaVuSans-69" transform="translate(308.154297 0)"/>
     <use xlink:href="#DejaVuSans-65" transform="translate(335.9375 0)"/>
     <use xlink:href="#DejaVuSans-73" transform="translate(397.460938 0)"/>
     <use xlink:href="#DejaVuSans-2e" transform="translate(449.560547 0)"/>
     <use xlink:href="#DejaVuSans-6a" transform="translate(481.347656 0)"/>
     <use xlink:href="#DejaVuSans-73" transform="translate(509.130859 0)"/>
     <use xlink:href="#DejaVuSans-6f" transform="translate(561.230469 0)"/>
     <use xlink:href="#DejaVuSans-6e" transform="translate(622.412109 0)"/>
     <use xlink:href="#DejaVuSans-6c" transform="translate(685.791016 0)"/>
    </g>
   </g>
   <g id="text_9">
    <!-- Judge -->
    <g style="fill: #c85a3a" transform="translate(554.04 130.94208) scale(0.13 -0.13)">
     <defs>
      <path id="DejaVuSans-Bold-4a" d="M 588 4666
L 1791 4666
L 1791 453
Q 1791 -419 1317 -850
Q 844 -1281 -116 -1281
L -359 -1281
L -359 -372
L -172 -372
Q 203 -372 395 -162
Q 588 47 588 453
L 588 4666
z
" transform="scale(0.015625)"/>
      <path id="DejaVuSans-Bold-75" d="M 500 1363
L 500 3500
L 1625 3500
L 1625 3150
Q 1625 2866 1622 2436
Q 1619 2006 1619 1863
Q 1619 1441 1641 1255
Q 1663 1069 1716 984
Q 1784 875 1895 815
Q 2006 756 2150 756
Q 2500 756 2700 1025
Q 2900 1294 2900 1772
L 2900 3500
L 4019 3500
L 4019 0
L 2900 0
L 2900 506
Q 2647 200 2364 54
Q 2081 -91 1741 -91
Q 1134 -91 817 281
Q 500 653 500 1363
z
" transform="scale(0.015625)"/>
     </defs>
     <use xlink:href="#DejaVuSans-Bold-4a"/>
     <use xlink:href="#DejaVuSans-Bold-75" transform="translate(37.207031 0)"/>
     <use xlink:href="#DejaVuSans-Bold-64" transform="translate(108.398438 0)"/>
     <use xlink:href="#DejaVuSans-Bold-67" transform="translate(179.980469 0)"/>
     <use xlink:href="#DejaVuSans-Bold-65" transform="translate(251.5625 0)"/>
    </g>
   </g>
   <g id="text_10">
    <!-- scenario scores -->
    <g style="fill: #1f2328" transform="translate(554.04 169.714114) scale(0.09 -0.09)">
     <use xlink:href="#DejaVuSans-73"/>
     <use xlink:href="#DejaVuSans-63" transform="translate(52.099609 0)"/>
     <use xlink:href="#DejaVuSans-65" transform="translate(107.080078 0)"/>
     <use xlink:href="#DejaVuSans-6e" transform="translate(168.603516 0)"/>
     <use xlink:href="#DejaVuSans-61" transform="translate(231.982422 0)"/>
     <use xlink:href="#DejaVuSans-72" transform="translate(293.261719 0)"/>
     <use xlink:href="#DejaVuSans-69" transform="translate(334.375 0)"/>
     <use xlink:href="#DejaVuSans-6f" transform="translate(362.158203 0)"/>
     <use xlink:href="#DejaVuSans-20" transform="translate(423.339844 0)"/>
     <use xlink:href="#DejaVuSans-73" transform="translate(455.126953 0)"/>
     <use xlink:href="#DejaVuSans-63" transform="translate(507.226562 0)"/>
     <use xlink:href="#DejaVuSans-6f" transform="translate(562.207031 0)"/>
     <use xlink:href="#DejaVuSans-72" transform="translate(623.388672 0)"/>
     <use xlink:href="#DejaVuSans-65" transform="translate(662.251953 0)"/>
     <use xlink:href="#DejaVuSans-73" transform="translate(723.775391 0)"/>
    </g>
    <!-- judge logs -->
    <g style="fill: #1f2328" transform="translate(554.04 180.134075) scale(0.09 -0.09)">
     <use xlink:href="#DejaVuSans-6a"/>
     <use xlink:href="#DejaVuSans-75" transform="translate(27.783203 0)"/>
     <use xlink:href="#DejaVuSans-64" transform="translate(91.162109 0)"/>
     <use xlink:href="#DejaVuSans-67" transform="translate(154.638672 0)"/>
     <use xlink:href="#DejaVuSans-65" transform="translate(218.115234 0)"/>
     <use xlink:href="#DejaVuSans-20" transform="translate(279.638672 0)"/>
     <use xlink:href="#DejaVuSans-6c" transform="translate(311.425781 0)"/>
     <use xlink:href="#DejaVuSans-6f" transform="translate(339.208984 0)"/>
     <use xlink:href="#DejaVuSans-67" transform="translate(400.390625 0)"/>
     <use xlink:href="#DejaVuSans-73" transform="translate(463.867188 0)"/>
    </g>
   </g>
   <g id="text_11">
    <!-- Deck -->
    <g style="fill: #b8860b" transform="translate(624.348 266.6592) scale(0.13 -0.13)">
     <defs>
      <path id="DejaVuSans-Bold-44" d="M 1791 3756
L 1791 909
L 2222 909
Q 2959 909 3348 1275
Q 3738 1641 3738 2338
Q 3738 3031 3350 3393
Q 2963 3756 2222 3756
L 1791 3756
z
M 588 4666
L 1856 4666
Q 2919 4666 3439 4514
Q 3959 4363 4331 4000
Q 4659 3684 4818 3271
Q 4978 2859 4978 2338
Q 4978 1809 4818 1395
Q 4659 981 4331 666
Q 3956 303 3431 151
Q 2906 0 1856 0
L 588 0
L 588 4666
z
" transform="scale(0.015625)"/>
      <path id="DejaVuSans-Bold-6b" d="M 538 4863
L 1656 4863
L 1656 2216
L 2944 3500
L 4244 3500
L 2534 1894
L 4378 0
L 3022 0
L 1656 1459
L 1656 0
L 538 0
L 538 4863
z
" transform="scale(0.015625)"/>
     </defs>
     <use xlink:href="#DejaVuSans-Bold-44"/>
     <use xlink:href="#DejaVuSans-Bold-65" transform="translate(83.007812 0)"/>
     <use xlink:href="#DejaVuSans-Bold-63" transform="translate(150.830078 0)"/>
     <use xlink:href="#DejaVuSans-Bold-6b" transform="translate(210.107422 0)"/>
    </g>
   </g>
   <g id="text_12">
    <!-- metrics CSVs -->
    <g style="fill: #1f2328" transform="translate(624.348 305.431234) scale(0.09 -0.09)">
     <defs>
      <path id="DejaVuSans-56" d="M 1831 0
L 50 4666
L 709 4666
L 2188 738
L 3669 4666
L 4325 4666
L 2547 0
L 1831 0
z
" transform="scale(0.015625)"/>
     </defs>
     <use xlink:href="#DejaVuSans-6d"/>
     <use xlink:href="#DejaVuSans-65" transform="translate(97.412109 0)"/>
     <use xlink:href="#DejaVuSans-74" transform="translate(158.935547 0)"/>
     <use xlink:href="#DejaVuSans-72" transform="translate(198.144531 0)"/>
     <use xlink:href="#DejaVuSans-69" transform="translate(239.257812 0)"/>
     <use xlink:href="#DejaVuSans-63" transform="translate(267.041016 0)"/>
     <use xlink:href="#DejaVuSans-73" transform="translate(322.021484 0)"/>
     <use xlink:href="#DejaVuSans-20" transform="translate(374.121094 0)"/>
     <use xlink:href="#DejaVuSans-43" transform="translate(405.908203 0)"/>
     <use xlink:href="#DejaVuSans-53" transform="translate(475.732422 0)"/>
     <use xlink:href="#DejaVuSans-56" transform="translate(539.208984 0)"/>
     <use xlink:href="#DejaVuSans-73" transform="translate(607.617188 0)"/>
    </g>
    <!-- figures -->
    <g style="fill: #1f2328" transform="translate(624.348 315.851195) scale(0.09 -0.09)">
     <use xlink:href="#DejaVuSans-66"/>
     <use xlink:href="#DejaVuSans-69" transform="translate(35.205078 0)"/>
     <use xlink:href="#DejaVuSans-67" transform="translate(62.988281 0)"/>
     <use xlink:href="#DejaVuSans-75" transform="translate(126.464844 0)"/>
     <use xlink:href="#DejaVuSans-72" transform="translate(189.84375 0)"/>
     <use xlink:href="#DejaVuSans-65" transform="translate(228.707031 0)"/>
     <use xlink:href="#DejaVuSans-73" transform="translate(290.230469 0)"/>
    </g>
    <!-- PPT slides -->
    <g style="fill: #1f2328" transform="translate(624.348 326.271156) scale(0.09 -0.09)">
     <defs>
      <path id="DejaVuSans-54" d="M -19 4666
L 3928 4666
L 3928 4134
L 2272 4134
L 2272 0
L 1638 0
L 1638 4134
L -19 4134
L -19 4666
z
" transform="scale(0.015625)"/>
     </defs>
     <use xlink:href="#DejaVuSans-50"/>
     <use xlink:href="#DejaVuSans-50" transform="translate(60.302734 0)"/>
     <use xlink:href="#DejaVuSans-54" transform="translate(120.605469 0)"/>
     <use xlink:href="#DejaVuSans-20" transform="translate(181.689453 0)"/>
     <use xlink:href="#DejaVuSans-73" transform="translate(213.476562 0)"/>
     <use xlink:href="#DejaVuSans-6c" transform="translate(265.576172 0)"/>
     <use xlink:href="#DejaVuSans-69" transform="translate(293.359375 0)"/>
     <use xlink:href="#DejaVuSans-64" transform="translate(321.142578 0)"/>
     <use xlink:href="#DejaVuSans-65" transform="translate(384.619141 0)"/>
     <use xlink:href="#DejaVuSans-73" transform="translate(446.142578 0)"/>
    </g>
   </g>
   <g id="text_13">
    <!-- Evidence registry filter -->
    <g style="fill: #1f2328" transform="translate(93.132 266.6592) scale(0.13 -0.13)">
     <defs>
      <path id="DejaVuSans-Bold-45" d="M 588 4666
L 3834 4666
L 3834 3756
L 1791 3756
L 1791 2888
L 3713 2888
L 3713 1978
L 1791 1978
L 1791 909
L 3903 909
L 3903 0
L 588 0
L 588 4666
z
" transform="scale(0.015625)"/>
     </defs>
     <use xlink:href="#DejaVuSans-Bold-45"/>
     <use xlink:href="#DejaVuSans-Bold-76" transform="translate(68.310547 0)"/>
     <use xlink:href="#DejaVuSans-Bold-69" transform="translate(133.496094 0)"/>
     <use xlink:href="#DejaVuSans-Bold-64" transform="translate(167.773438 0)"/>
     <use xlink:href="#DejaVuSans-Bold-65" transform="translate(239.355469 0)"/>
     <use xlink:href="#DejaVuSans-Bold-6e" transform="translate(307.177734 0)"/>
     <use xlink:href="#DejaVuSans-Bold-63" transform="translate(378.369141 0)"/>
     <use xlink:href="#DejaVuSans-Bold-65" transform="translate(437.646484 0)"/>
     <use xlink:href="#DejaVuSans-Bold-20" transform="translate(505.46875 0)"/>
     <use xlink:href="#DejaVuSans-Bold-72" transform="translate(540.283203 0)"/>
     <use xlink:href="#DejaVuSans-Bold-65" transform="translate(589.599609 0)"/>
     <use xlink:href="#DejaVuSans-Bold-67" transform="translate(657.421875 0)"/>
     <use xlink:href="#DejaVuSans-Bold-69" transform="translate(729.003906 0)"/>
     <use xlink:href="#DejaVuSans-Bold-73" transform="translate(763.28125 0)"/>
     <use xlink:href="#DejaVuSans-Bold-74" transform="translate(822.802734 0)"/>
     <use xlink:href="#DejaVuSans-Bold-72" transform="translate(870.605469 0)"/>
     <use xlink:href="#DejaVuSans-Bold-79" transform="translate(919.921875 0)"/>
     <use xlink:href="#DejaVuSans-Bold-20" transform="translate(985.107422 0)"/>
     <use xlink:href="#DejaVuSans-Bold-66" transform="translate(1019.921875 0)"/>
     <use xlink:href="#DejaVuSans-Bold-69" transform="translate(1063.427734 0)"/>
     <use xlink:href="#DejaVuSans-Bold-6c" transform="translate(1097.705078 0)"/>
     <use xlink:href="#DejaVuSans-Bold-74" transform="translate(1131.982422 0)"/>
     <use xlink:href="#DejaVuSans-Bold-65" transform="translate(1179.785156 0)"/>
     <use xlink:href="#DejaVuSans-Bold-72" transform="translate(1247.607422 0)"/>
    </g>
   </g>
   <g id="text_14">
    <!-- Rows are tagged as paper_grade, superseded, diagnostic, or invalid. -->
    <g style="fill: #1f2328" transform="translate(93.132 288.61344) scale(0.094 -0.094)">
     <defs>
      <path id="DejaVuSans-52" d="M 2841 2188
Q 3044 2119 3236 1894
Q 3428 1669 3622 1275
L 4263 0
L 3584 0
L 2988 1197
Q 2756 1666 2539 1819
Q 2322 1972 1947 1972
L 1259 1972
L 1259 0
L 628 0
L 628 4666
L 2053 4666
Q 2853 4666 3247 4331
Q 3641 3997 3641 3322
Q 3641 2881 3436 2590
Q 3231 2300 2841 2188
z
M 1259 4147
L 1259 2491
L 2053 2491
Q 2509 2491 2742 2702
Q 2975 2913 2975 3322
Q 2975 3731 2742 3939
Q 2509 4147 2053 4147
L 1259 4147
z
" transform="scale(0.015625)"/>
      <path id="DejaVuSans-5f" d="M 3263 -1063
L 3263 -1509
L -63 -1509
L -63 -1063
L 3263 -1063
z
" transform="scale(0.015625)"/>
     </defs>
     <use xlink:href="#DejaVuSans-52"/>
     <use xlink:href="#DejaVuSans-6f" transform="translate(64.982422 0)"/>
     <use xlink:href="#DejaVuSans-77" transform="translate(126.164062 0)"/>
     <use xlink:href="#DejaVuSans-73" transform="translate(207.951172 0)"/>
     <use xlink:href="#DejaVuSans-20" transform="translate(260.050781 0)"/>
     <use xlink:href="#DejaVuSans-61" transform="translate(291.837891 0)"/>
     <use xlink:href="#DejaVuSans-72" transform="translate(353.117188 0)"/>
     <use xlink:href="#DejaVuSans-65" transform="translate(391.980469 0)"/>
     <use xlink:href="#DejaVuSans-20" transform="translate(453.503906 0)"/>
     <use xlink:href="#DejaVuSans-74" transform="translate(485.291016 0)"/>
     <use xlink:href="#DejaVuSans-61" transform="translate(524.5 0)"/>
     <use xlink:href="#DejaVuSans-67" transform="translate(585.779297 0)"/>
     <use xlink:href="#DejaVuSans-67" transform="translate(649.255859 0)"/>
     <use xlink:href="#DejaVuSans-65" transform="translate(712.732422 0)"/>
     <use xlink:href="#DejaVuSans-64" transform="translate(774.255859 0)"/>
     <use xlink:href="#DejaVuSans-20" transform="translate(837.732422 0)"/>
     <use xlink:href="#DejaVuSans-61" transform="translate(869.519531 0)"/>
     <use xlink:href="#DejaVuSans-73" transform="translate(930.798828 0)"/>
     <use xlink:href="#DejaVuSans-20" transform="translate(982.898438 0)"/>
     <use xlink:href="#DejaVuSans-70" transform="translate(1014.685547 0)"/>
     <use xlink:href="#DejaVuSans-61" transform="translate(1078.162109 0)"/>
     <use xlink:href="#DejaVuSans-70" transform="translate(1139.441406 0)"/>
     <use xlink:href="#DejaVuSans-65" transform="translate(1202.917969 0)"/>
     <use xlink:href="#DejaVuSans-72" transform="translate(1264.441406 0)"/>
     <use xlink:href="#DejaVuSans-5f" transform="translate(1305.554688 0)"/>
     <use xlink:href="#DejaVuSans-67" transform="translate(1355.554688 0)"/>
     <use xlink:href="#DejaVuSans-72" transform="translate(1419.03125 0)"/>
     <use xlink:href="#DejaVuSans-61" transform="translate(1460.144531 0)"/>
     <use xlink:href="#DejaVuSans-64" transform="translate(1521.423828 0)"/>
     <use xlink:href="#DejaVuSans-65" transform="translate(1584.900391 0)"/>
     <use xlink:href="#DejaVuSans-2c" transform="translate(1646.423828 0)"/>
     <use xlink:href="#DejaVuSans-20" transform="translate(1678.210938 0)"/>
     <use xlink:href="#DejaVuSans-73" transform="translate(1709.998047 0)"/>
     <use xlink:href="#DejaVuSans-75" transform="translate(1762.097656 0)"/>
     <use xlink:href="#DejaVuSans-70" transform="translate(1825.476562 0)"/>
     <use xlink:href="#DejaVuSans-65" transform="translate(1888.953125 0)"/>
     <use xlink:href="#DejaVuSans-72" transform="translate(1950.476562 0)"/>
     <use xlink:href="#DejaVuSans-73" transform="translate(1991.589844 0)"/>
     <use xlink:href="#DejaVuSans-65" transform="translate(2043.689453 0)"/>
     <use xlink:href="#DejaVuSans-64" transform="translate(2105.212891 0)"/>
     <use xlink:href="#DejaVuSans-65" transform="translate(2168.689453 0)"/>
     <use xlink:href="#DejaVuSans-64" transform="translate(2230.212891 0)"/>
     <use xlink:href="#DejaVuSans-2c" transform="translate(2293.689453 0)"/>
     <use xlink:href="#DejaVuSans-20" transform="translate(2325.476562 0)"/>
     <use xlink:href="#DejaVuSans-64" transform="translate(2357.263672 0)"/>
     <use xlink:href="#DejaVuSans-69" transform="translate(2420.740234 0)"/>
     <use xlink:href="#DejaVuSans-61" transform="translate(2448.523438 0)"/>
     <use xlink:href="#DejaVuSans-67" transform="translate(2509.802734 0)"/>
     <use xlink:href="#DejaVuSans-6e" transform="translate(2573.279297 0)"/>
     <use xlink:href="#DejaVuSans-6f" transform="translate(2636.658203 0)"/>
     <use xlink:href="#DejaVuSans-73" transform="translate(2697.839844 0)"/>
     <use xlink:href="#DejaVuSans-74" transform="translate(2749.939453 0)"/>
     <use xlink:href="#DejaVuSans-69" transform="translate(2789.148438 0)"/>
     <use xlink:href="#DejaVuSans-63" transform="translate(2816.931641 0)"/>
     <use xlink:href="#DejaVuSans-2c" transform="translate(2871.912109 0)"/>
     <use xlink:href="#DejaVuSans-20" transform="translate(2903.699219 0)"/>
     <use xlink:href="#DejaVuSans-6f" transform="translate(2935.486328 0)"/>
     <use xlink:href="#DejaVuSans-72" transform="translate(2996.667969 0)"/>
     <use xlink:href="#DejaVuSans-20" transform="translate(3037.78125 0)"/>
     <use xlink:href="#DejaVuSans-69" transform="translate(3069.568359 0)"/>
     <use xlink:href="#DejaVuSans-6e" transform="translate(3097.351562 0)"/>
     <use xlink:href="#DejaVuSans-76" transform="translate(3160.730469 0)"/>
     <use xlink:href="#DejaVuSans-61" transform="translate(3219.910156 0)"/>
     <use xlink:href="#DejaVuSans-6c" transform="translate(3281.189453 0)"/>
     <use xlink:href="#DejaVuSans-69" transform="translate(3308.972656 0)"/>
     <use xlink:href="#DejaVuSans-64" transform="translate(3336.755859 0)"/>
     <use xlink:href="#DejaVuSans-2e" transform="translate(3400.232422 0)"/>
    </g>
   </g>
   <g id="text_15">
    <!-- Deck and paper tables use paper_grade unless a slide is explicitly diagnostic. -->
    <g style="fill: #1f2328" transform="translate(93.132 308.57184) scale(0.094 -0.094)">
     <defs>
      <path id="DejaVuSans-44" d="M 1259 4147
L 1259 519
L 2022 519
Q 2988 519 3436 956
Q 3884 1394 3884 2338
Q 3884 3275 3436 3711
Q 2988 4147 2022 4147
L 1259 4147
z
M 628 4666
L 1925 4666
Q 3281 4666 3915 4102
Q 4550 3538 4550 2338
Q 4550 1131 3912 565
Q 3275 0 1925 0
L 628 0
L 628 4666
z
" transform="scale(0.015625)"/>
     </defs>
     <use xlink:href="#DejaVuSans-44"/>
     <use xlink:href="#DejaVuSans-65" transform="translate(77.001953 0)"/>
     <use xlink:href="#DejaVuSans-63" transform="translate(138.525391 0)"/>
     <use xlink:href="#DejaVuSans-6b" transform="translate(193.505859 0)"/>
     <use xlink:href="#DejaVuSans-20" transform="translate(251.416016 0)"/>
     <use xlink:href="#DejaVuSans-61" transform="translate(283.203125 0)"/>
     <use xlink:href="#DejaVuSans-6e" transform="translate(344.482422 0)"/>
     <use xlink:href="#DejaVuSans-64" transform="translate(407.861328 0)"/>
     <use xlink:href="#DejaVuSans-20" transform="translate(471.337891 0)"/>
     <use xlink:href="#DejaVuSans-70" transform="translate(503.125 0)"/>
     <use xlink:href="#DejaVuSans-61" transform="translate(566.601562 0)"/>
     <use xlink:href="#DejaVuSans-70" transform="translate(627.880859 0)"/>
     <use xlink:href="#DejaVuSans-65" transform="translate(691.357422 0)"/>
     <use xlink:href="#DejaVuSans-72" transform="translate(752.880859 0)"/>
     <use xlink:href="#DejaVuSans-20" transform="translate(793.994141 0)"/>
     <use xlink:href="#DejaVuSans-74" transform="translate(825.78125 0)"/>
     <use xlink:href="#DejaVuSans-61" transform="translate(864.990234 0)"/>
     <use xlink:href="#DejaVuSans-62" transform="translate(926.269531 0)"/>
     <use xlink:href="#DejaVuSans-6c" transform="translate(989.746094 0)"/>
     <use xlink:href="#DejaVuSans-65" transform="translate(1017.529297 0)"/>
     <use xlink:href="#DejaVuSans-73" transform="translate(1079.052734 0)"/>
     <use xlink:href="#DejaVuSans-20" transform="translate(1131.152344 0)"/>
     <use xlink:href="#DejaVuSans-75" transform="translate(1162.939453 0)"/>
     <use xlink:href="#DejaVuSans-73" transform="translate(1226.318359 0)"/>
     <use xlink:href="#DejaVuSans-65" transform="translate(1278.417969 0)"/>
     <use xlink:href="#DejaVuSans-20" transform="translate(1339.941406 0)"/>
     <use xlink:href="#DejaVuSans-70" transform="translate(1371.728516 0)"/>
     <use xlink:href="#DejaVuSans-61" transform="translate(1435.205078 0)"/>
     <use xlink:href="#DejaVuSans-70" transform="translate(1496.484375 0)"/>
     <use xlink:href="#DejaVuSans-65" transform="translate(1559.960938 0)"/>
     <use xlink:href="#DejaVuSans-72" transform="translate(1621.484375 0)"/>
     <use xlink:href="#DejaVuSans-5f" transform="translate(1662.597656 0)"/>
     <use xlink:href="#DejaVuSans-67" transform="translate(1712.597656 0)"/>
     <use xlink:href="#DejaVuSans-72" transform="translate(1776.074219 0)"/>
     <use xlink:href="#DejaVuSans-61" transform="translate(1817.1875 0)"/>
     <use xlink:href="#DejaVuSans-64" transform="translate(1878.466797 0)"/>
     <use xlink:href="#DejaVuSans-65" transform="translate(1941.943359 0)"/>
     <use xlink:href="#DejaVuSans-20" transform="translate(2003.466797 0)"/>
     <use xlink:href="#DejaVuSans-75" transform="translate(2035.253906 0)"/>
     <use xlink:href="#DejaVuSans-6e" transform="translate(2098.632812 0)"/>
     <use xlink:href="#DejaVuSans-6c" transform="translate(2162.011719 0)"/>
     <use xlink:href="#DejaVuSans-65" transform="translate(2189.794922 0)"/>
     <use xlink:href="#DejaVuSans-73" transform="translate(2251.318359 0)"/>
     <use xlink:href="#DejaVuSans-73" transform="translate(2303.417969 0)"/>
     <use xlink:href="#DejaVuSans-20" transform="translate(2355.517578 0)"/>
     <use xlink:href="#DejaVuSans-61" transform="translate(2387.304688 0)"/>
     <use xlink:href="#DejaVuSans-20" transform="translate(2448.583984 0)"/>
     <use xlink:href="#DejaVuSans-73" transform="translate(2480.371094 0)"/>
     <use xlink:href="#DejaVuSans-6c" transform="translate(2532.470703 0)"/>
     <use xlink:href="#DejaVuSans-69" transform="translate(2560.253906 0)"/>
     <use xlink:href="#DejaVuSans-64" transform="translate(2588.037109 0)"/>
     <use xlink:href="#DejaVuSans-65" transform="translate(2651.513672 0)"/>
     <use xlink:href="#DejaVuSans-20" transform="translate(2713.037109 0)"/>
     <use xlink:href="#DejaVuSans-69" transform="translate(2744.824219 0)"/>
     <use xlink:href="#DejaVuSans-73" transform="translate(2772.607422 0)"/>
     <use xlink:href="#DejaVuSans-20" transform="translate(2824.707031 0)"/>
     <use xlink:href="#DejaVuSans-65" transform="translate(2856.494141 0)"/>
     <use xlink:href="#DejaVuSans-78" transform="translate(2916.267578 0)"/>
     <use xlink:href="#DejaVuSans-70" transform="translate(2975.447266 0)"/>
     <use xlink:href="#DejaVuSans-6c" transform="translate(3038.923828 0)"/>
     <use xlink:href="#DejaVuSans-69" transform="translate(3066.707031 0)"/>
     <use xlink:href="#DejaVuSans-63" transform="translate(3094.490234 0)"/>
     <use xlink:href="#DejaVuSans-69" transform="translate(3149.470703 0)"/>
     <use xlink:href="#DejaVuSans-74" transform="translate(3177.253906 0)"/>
     <use xlink:href="#DejaVuSans-6c" transform="translate(3216.462891 0)"/>
     <use xlink:href="#DejaVuSans-79" transform="translate(3244.246094 0)"/>
     <use xlink:href="#DejaVuSans-20" transform="translate(3303.425781 0)"/>
     <use xlink:href="#DejaVuSans-64" transform="translate(3335.212891 0)"/>
     <use xlink:href="#DejaVuSans-69" transform="translate(3398.689453 0)"/>
     <use xlink:href="#DejaVuSans-61" transform="translate(3426.472656 0)"/>
     <use xlink:href="#DejaVuSans-67" transform="translate(3487.751953 0)"/>
     <use xlink:href="#DejaVuSans-6e" transform="translate(3551.228516 0)"/>
     <use xlink:href="#DejaVuSans-6f" transform="translate(3614.607422 0)"/>
     <use xlink:href="#DejaVuSans-73" transform="translate(3675.789062 0)"/>
     <use xlink:href="#DejaVuSans-74" transform="translate(3727.888672 0)"/>
     <use xlink:href="#DejaVuSans-69" transform="translate(3767.097656 0)"/>
     <use xlink:href="#DejaVuSans-63" transform="translate(3794.880859 0)"/>
     <use xlink:href="#DejaVuSans-2e" transform="translate(3849.861328 0)"/>
    </g>
   </g>
   <g id="text_16">
    <!-- Source: docs/runbook.md, results/metrics/evidence_registry.csv, results/metrics/scenario_scores.jsonl. -->
    <g style="fill: #5b6670" transform="translate(38.448 374.43456) scale(0.1 -0.1)">
     <defs>
      <path id="DejaVuSans-3a" d="M 750 794
L 1409 794
L 1409 0
L 750 0
L 750 794
z
M 750 3309
L 1409 3309
L 1409 2516
L 750 2516
L 750 3309
z
" transform="scale(0.015625)"/>
      <path id="DejaVuSans-2f" d="M 1625 4666
L 2156 4666
L 531 -594
L 0 -594
L 1625 4666
z
" transform="scale(0.015625)"/>
     </defs>
     <use xlink:href="#DejaVuSans-53"/>
     <use xlink:href="#DejaVuSans-6f" transform="translate(63.476562 0)"/>
     <use xlink:href="#DejaVuSans-75" transform="translate(124.658203 0)"/>
     <use xlink:href="#DejaVuSans-72" transform="translate(188.037109 0)"/>
     <use xlink:href="#DejaVuSans-63" transform="translate(226.900391 0)"/>
     <use xlink:href="#DejaVuSans-65" transform="translate(281.880859 0)"/>
     <use xlink:href="#DejaVuSans-3a" transform="translate(343.404297 0)"/>
     <use xlink:href="#DejaVuSans-20" transform="translate(377.095703 0)"/>
     <use xlink:href="#DejaVuSans-64" transform="translate(408.882812 0)"/>
     <use xlink:href="#DejaVuSans-6f" transform="translate(472.359375 0)"/>
     <use xlink:href="#DejaVuSans-63" transform="translate(533.541016 0)"/>
     <use xlink:href="#DejaVuSans-73" transform="translate(588.521484 0)"/>
     <use xlink:href="#DejaVuSans-2f" transform="translate(640.621094 0)"/>
     <use xlink:href="#DejaVuSans-72" transform="translate(674.3125 0)"/>
     <use xlink:href="#DejaVuSans-75" transform="translate(715.425781 0)"/>
     <use xlink:href="#DejaVuSans-6e" transform="translate(778.804688 0)"/>
     <use xlink:href="#DejaVuSans-62" transform="translate(842.183594 0)"/>
     <use xlink:href="#DejaVuSans-6f" transform="translate(905.660156 0)"/>
     <use xlink:href="#DejaVuSans-6f" transform="translate(966.841797 0)"/>
     <use xlink:href="#DejaVuSans-6b" transform="translate(1028.023438 0)"/>
     <use xlink:href="#DejaVuSans-2e" transform="translate(1085.933594 0)"/>
     <use xlink:href="#DejaVuSans-6d" transform="translate(1117.720703 0)"/>
     <use xlink:href="#DejaVuSans-64" transform="translate(1215.132812 0)"/>
     <use xlink:href="#DejaVuSans-2c" transform="translate(1278.609375 0)"/>
     <use xlink:href="#DejaVuSans-20" transform="translate(1310.396484 0)"/>
     <use xlink:href="#DejaVuSans-72" transform="translate(1342.183594 0)"/>
     <use xlink:href="#DejaVuSans-65" transform="translate(1381.046875 0)"/>
     <use xlink:href="#DejaVuSans-73" transform="translate(1442.570312 0)"/>
     <use xlink:href="#DejaVuSans-75" transform="translate(1494.669922 0)"/>
     <use xlink:href="#DejaVuSans-6c" transform="translate(1558.048828 0)"/>
     <use xlink:href="#DejaVuSans-74" transform="translate(1585.832031 0)"/>
     <use xlink:href="#DejaVuSans-73" transform="translate(1625.041016 0)"/>
     <use xlink:href="#DejaVuSans-2f" transform="translate(1677.140625 0)"/>
     <use xlink:href="#DejaVuSans-6d" transform="translate(1710.832031 0)"/>
     <use xlink:href="#DejaVuSans-65" transform="translate(1808.244141 0)"/>
     <use xlink:href="#DejaVuSans-74" transform="translate(1869.767578 0)"/>
     <use xlink:href="#DejaVuSans-72" transform="translate(1908.976562 0)"/>
     <use xlink:href="#DejaVuSans-69" transform="translate(1950.089844 0)"/>
     <use xlink:href="#DejaVuSans-63" transform="translate(1977.873047 0)"/>
     <use xlink:href="#DejaVuSans-73" transform="translate(2032.853516 0)"/>
     <use xlink:href="#DejaVuSans-2f" transform="translate(2084.953125 0)"/>
     <use xlink:href="#DejaVuSans-65" transform="translate(2118.644531 0)"/>
     <use xlink:href="#DejaVuSans-76" transform="translate(2180.167969 0)"/>
     <use xlink:href="#DejaVuSans-69" transform="translate(2239.347656 0)"/>
     <use xlink:href="#DejaVuSans-64" transform="translate(2267.130859 0)"/>
     <use xlink:href="#DejaVuSans-65" transform="translate(2330.607422 0)"/>
     <use xlink:href="#DejaVuSans-6e" transform="translate(2392.130859 0)"/>
     <use xlink:href="#DejaVuSans-63" transform="translate(2455.509766 0)"/>
     <use xlink:href="#DejaVuSans-65" transform="translate(2510.490234 0)"/>
     <use xlink:href="#DejaVuSans-5f" transform="translate(2572.013672 0)"/>
     <use xlink:href="#DejaVuSans-72" transform="translate(2622.013672 0)"/>
     <use xlink:href="#DejaVuSans-65" transform="translate(2660.876953 0)"/>
     <use xlink:href="#DejaVuSans-67" transform="translate(2722.400391 0)"/>
     <use xlink:href="#DejaVuSans-69" transform="translate(2785.876953 0)"/>
     <use xlink:href="#DejaVuSans-73" transform="translate(2813.660156 0)"/>
     <use xlink:href="#DejaVuSans-74" transform="translate(2865.759766 0)"/>
     <use xlink:href="#DejaVuSans-72" transform="translate(2904.96875 0)"/>
     <use xlink:href="#DejaVuSans-79" transform="translate(2946.082031 0)"/>
     <use xlink:href="#DejaVuSans-2e" transform="translate(2991.011719 0)"/>
     <use xlink:href="#DejaVuSans-63" transform="translate(3022.798828 0)"/>
     <use xlink:href="#DejaVuSans-73" transform="translate(3077.779297 0)"/>
     <use xlink:href="#DejaVuSans-76" transform="translate(3129.878906 0)"/>
     <use xlink:href="#DejaVuSans-2c" transform="translate(3189.058594 0)"/>
     <use xlink:href="#DejaVuSans-20" transform="translate(3220.845703 0)"/>
     <use xlink:href="#DejaVuSans-72" transform="translate(3252.632812 0)"/>
     <use xlink:href="#DejaVuSans-65" transform="translate(3291.496094 0)"/>
     <use xlink:href="#DejaVuSans-73" transform="translate(3353.019531 0)"/>
     <use xlink:href="#DejaVuSans-75" transform="translate(3405.119141 0)"/>
     <use xlink:href="#DejaVuSans-6c" transform="translate(3468.498047 0)"/>
     <use xlink:href="#DejaVuSans-74" transform="translate(3496.28125 0)"/>
     <use xlink:href="#DejaVuSans-73" transform="translate(3535.490234 0)"/>
     <use xlink:href="#DejaVuSans-2f" transform="translate(3587.589844 0)"/>
     <use xlink:href="#DejaVuSans-6d" transform="translate(3621.28125 0)"/>
     <use xlink:href="#DejaVuSans-65" transform="translate(3718.693359 0)"/>
     <use xlink:href="#DejaVuSans-74" transform="translate(3780.216797 0)"/>
     <use xlink:href="#DejaVuSans-72" transform="translate(3819.425781 0)"/>
     <use xlink:href="#DejaVuSans-69" transform="translate(3860.539062 0)"/>
     <use xlink:href="#DejaVuSans-63" transform="translate(3888.322266 0)"/>
     <use xlink:href="#DejaVuSans-73" transform="translate(3943.302734 0)"/>
     <use xlink:href="#DejaVuSans-2f" transform="translate(3995.402344 0)"/>
     <use xlink:href="#DejaVuSans-73" transform="translate(4029.09375 0)"/>
     <use xlink:href="#DejaVuSans-63" transform="translate(4081.193359 0)"/>
     <use xlink:href="#DejaVuSans-65" transform="translate(4136.173828 0)"/>
     <use xlink:href="#DejaVuSans-6e" transform="translate(4197.697266 0)"/>
     <use xlink:href="#DejaVuSans-61" transform="translate(4261.076172 0)"/>
     <use xlink:href="#DejaVuSans-72" transform="translate(4322.355469 0)"/>
     <use xlink:href="#DejaVuSans-69" transform="translate(4363.46875 0)"/>
     <use xlink:href="#DejaVuSans-6f" transform="translate(4391.251953 0)"/>
     <use xlink:href="#DejaVuSans-5f" transform="translate(4452.433594 0)"/>
     <use xlink:href="#DejaVuSans-73" transform="translate(4502.433594 0)"/>
     <use xlink:href="#DejaVuSans-63" transform="translate(4554.533203 0)"/>
     <use xlink:href="#DejaVuSans-6f" transform="translate(4609.513672 0)"/>
     <use xlink:href="#DejaVuSans-72" transform="translate(4670.695312 0)"/>
     <use xlink:href="#DejaVuSans-65" transform="translate(4709.558594 0)"/>
     <use xlink:href="#DejaVuSans-73" transform="translate(4771.082031 0)"/>
     <use xlink:href="#DejaVuSans-2e" transform="translate(4823.181641 0)"/>
     <use xlink:href="#DejaVuSans-6a" transform="translate(4854.96875 0)"/>
     <use xlink:href="#DejaVuSans-73" transform="translate(4882.751953 0)"/>
     <use xlink:href="#DejaVuSans-6f" transform="translate(4934.851562 0)"/>
     <use xlink:href="#DejaVuSans-6e" transform="translate(4996.033203 0)"/>
     <use xlink:href="#DejaVuSans-6c" transform="translate(5059.412109 0)"/>
     <use xlink:href="#DejaVuSans-2e" transform="translate(5087.195312 0)"/>
    </g>
   </g>
  </g>
 </g>
 <defs>
  <clipPath id="p62cd0c759c">
   <rect x="7.2" y="7.2" width="781.2" height="399.168"/>
  </clipPath>
 </defs>
</svg>
