<?xml version="1.0" encoding="utf-8" standalone="no"?>
<!DOCTYPE svg PUBLIC "-//W3C//DTD SVG 1.1//EN"
  "http://www.w3.org/Graphics/SVG/1.1/DTD/svg11.dtd">
<svg xmlns:xlink="http://www.w3.org/1999/xlink" width="980.39952pt" height="571.901572pt" viewBox="0 0 980.39952 571.901572" xmlns="http://www.w3.org/2000/svg" version="1.1">
 <metadata>
  <rdf:RDF xmlns:dc="http://purl.org/dc/elements/1.1/" xmlns:cc="http://creativecommons.org/ns#" xmlns:rdf="http://www.w3.org/1999/02/22-rdf-syntax-ns#">
   <cc:Work>
    <dc:type rdf:resource="http://purl.org/dc/dcmitype/StillImage"/>
    <dc:format>image/svg+xml</dc:format>
    <dc:creator>
     <cc:Agent>
      <dc:title>Matplotlib v3.10.8, https://matplotlib.org/</dc:title>
     </cc:Agent>
    </dc:creator>
   </cc:Work>
  </rdf:RDF>
 </metadata>
 <defs>
  <style type="text/css">*{stroke-linejoin: round; stroke-linecap: butt}</style>
 </defs>
 <g id="figure_1">
  <g id="patch_1">
   <path d="M 0 571.901572
L 980.39952 571.901572
L 980.39952 0
L 0 0
z
" style="fill: #ffffff"/>
  </g>
  <g id="axes_1">
   <g id="patch_2">
    <path d="M 46.965625 185.919736
L 973.19952 185.919736
L 973.19952 31.737355
L 46.965625 31.737355
z
" style="fill: #ffffff"/>
   </g>
   <g id="matplotlib.axis_1">
    <g id="xtick_1">
     <g id="line2d_1">
      <defs>
       <path id="m6f103f3d86" d="M 0 0
L 0 3.5
" style="stroke: #5b6670; stroke-width: 0.8"/>
      </defs>
      <g>
       <use xlink:href="#m6f103f3d86" x="89.067166" y="185.919736" style="fill: #5b6670; stroke: #5b6670; stroke-width: 0.8"/>
      </g>
     </g>
    </g>
    <g id="xtick_2">
     <g id="line2d_2">
      <g>
       <use xlink:href="#m6f103f3d86" x="200.598857" y="185.919736" style="fill: #5b6670; stroke: #5b6670; stroke-width: 0.8"/>
      </g>
     </g>
    </g>
    <g id="xtick_3">
     <g id="line2d_3">
      <g>
       <use xlink:href="#m6f103f3d86" x="312.130549" y="185.919736" style="fill: #5b6670; stroke: #5b6670; stroke-width: 0.8"/>
      </g>
     </g>
    </g>
    <g id="xtick_4">
     <g id="line2d_4">
      <g>
       <use xlink:href="#m6f103f3d86" x="423.662241" y="185.919736" style="fill: #5b6670; stroke: #5b6670; stroke-width: 0.8"/>
      </g>
     </g>
    </g>
    <g id="xtick_5">
     <g id="line2d_5">
      <g>
       <use xlink:href="#m6f103f3d86" x="535.193933" y="185.919736" style="fill: #5b6670; stroke: #5b6670; stroke-width: 0.8"/>
      </g>
     </g>
    </g>
    <g id="xtick_6">
     <g id="line2d_6">
      <g>
       <use xlink:href="#m6f103f3d86" x="646.725625" y="185.919736" style="fill: #5b6670; stroke: #5b6670; stroke-width: 0.8"/>
      </g>
     </g>
    </g>
    <g id="xtick_7">
     <g id="line2d_7">
      <g>
       <use xlink:href="#m6f103f3d86" x="758.257317" y="185.919736" style="fill: #5b6670; stroke: #5b6670; stroke-width: 0.8"/>
      </g>
     </g>
    </g>
    <g id="xtick_8">
     <g id="line2d_8">
      <g>
       <use xlink:href="#m6f103f3d86" x="869.789008" y="185.919736" style="fill: #5b6670; stroke: #5b6670; stroke-width: 0.8"/>
      </g>
     </g>
    </g>
   </g>
   <g id="matplotlib.axis_2">
    <g id="ytick_1">
     <g id="line2d_9">
      <path d="M 46.965625 185.919736
L 973.19952 185.919736
" clip-path="url(#p43c522e016)" style="fill: none; stroke: #d8dee4; stroke-opacity: 0.65; stroke-width: 0.8; stroke-linecap: square"/>
     </g>
     <g id="line2d_10">
      <defs>
       <path id="mb680b44f08" d="M 0 0
L -3.5 0
" style="stroke: #5b6670; stroke-width: 0.8"/>
      </defs>
      <g>
       <use xlink:href="#mb680b44f08" x="46.965625" y="185.919736" style="fill: #5b6670; stroke: #5b6670; stroke-width: 0.8"/>
      </g>
     </g>
     <g id="text_1">
      <!-- 0 -->
      <g style="fill: #5b6670" transform="translate(33.603125 189.718955) scale(0.1 -0.1)">
       <defs>
        <path id="DejaVuSans-30" d="M 2034 4250
Q 1547 4250 1301 3770
Q 1056 3291 1056 2328
Q 1056 1369 1301 889
Q 1547 409 2034 409
Q 2525 409 2770 889
Q 3016 1369 3016 2328
Q 3016 3291 2770 3770
Q 2525 4250 2034 4250
z
M 2034 4750
Q 2819 4750 3233 4129
Q 3647 3509 3647 2328
Q 3647 1150 3233 529
Q 2819 -91 2034 -91
Q 1250 -91 836 529
Q 422 1150 422 2328
Q 422 3509 836 4129
Q 1250 4750 2034 4750
z
" transform="scale(0.015625)"/>
       </defs>
       <use xlink:href="#DejaVuSans-30"/>
      </g>
     </g>
    </g>
    <g id="ytick_2">
     <g id="line2d_11">
      <path d="M 46.965625 156.551663
L 973.19952 156.551663
" clip-path="url(#p43c522e016)" style="fill: none; stroke: #d8dee4; stroke-opacity: 0.65; stroke-width: 0.8; stroke-linecap: square"/>
     </g>
     <g id="line2d_12">
      <g>
       <use xlink:href="#mb680b44f08" x="46.965625" y="156.551663" style="fill: #5b6670; stroke: #5b6670; stroke-width: 0.8"/>
      </g>
     </g>
     <g id="text_2">
      <!-- 20 -->
      <g style="fill: #5b6670" transform="translate(27.240625 160.350882) scale(0.1 -0.1)">
       <defs>
        <path id="DejaVuSans-32" d="M 1228 531
L 3431 531
L 3431 0
L 469 0
L 469 531
Q 828 903 1448 1529
Q 2069 2156 2228 2338
Q 2531 2678 2651 2914
Q 2772 3150 2772 3378
Q 2772 3750 2511 3984
Q 2250 4219 1831 4219
Q 1534 4219 1204 4116
Q 875 4013 500 3803
L 500 4441
Q 881 4594 1212 4672
Q 1544 4750 1819 4750
Q 2544 4750 2975 4387
Q 3406 4025 3406 3419
Q 3406 3131 3298 2873
Q 3191 2616 2906 2266
Q 2828 2175 2409 1742
Q 1991 1309 1228 531
z
" transform="scale(0.015625)"/>
       </defs>
       <use xlink:href="#DejaVuSans-32"/>
       <use xlink:href="#DejaVuSans-30" transform="translate(63.623047 0)"/>
      </g>
     </g>
    </g>
    <g id="ytick_3">
     <g id="line2d_13">
      <path d="M 46.965625 127.183591
L 973.19952 127.183591
" clip-path="url(#p43c522e016)" style="fill: none; stroke: #d8dee4; stroke-opacity: 0.65; stroke-width: 0.8; stroke-linecap: square"/>
     </g>
     <g id="line2d_14">
      <g>
       <use xlink:href="#mb680b44f08" x="46.965625" y="127.183591" style="fill: #5b6670; stroke: #5b6670; stroke-width: 0.8"/>
      </g>
     </g>
     <g id="text_3">
      <!-- 40 -->
      <g style="fill: #5b6670" transform="translate(27.240625 130.98281) scale(0.1 -0.1)">
       <defs>
        <path id="DejaVuSans-34" d="M 2419 4116
L 825 1625
L 2419 1625
L 2419 4116
z
M 2253 4666
L 3047 4666
L 3047 1625
L 3713 1625
L 3713 1100
L 3047 1100
L 3047 0
L 2419 0
L 2419 1100
L 313 1100
L 313 1709
L 2253 4666
z
" transform="scale(0.015625)"/>
       </defs>
       <use xlink:href="#DejaVuSans-34"/>
       <use xlink:href="#DejaVuSans-30" transform="translate(63.623047 0)"/>
      </g>
     </g>
    </g>
    <g id="ytick_4">
     <g id="line2d_15">
      <path d="M 46.965625 97.815518
L 973.19952 97.815518
" clip-path="url(#p43c522e016)" style="fill: none; stroke: #d8dee4; stroke-opacity: 0.65; stroke-width: 0.8; stroke-linecap: square"/>
     </g>
     <g id="line2d_16">
      <g>
       <use xlink:href="#mb680b44f08" x="46.965625" y="97.815518" style="fill: #5b6670; stroke: #5b6670; stroke-width: 0.8"/>
      </g>
     </g>
     <g id="text_4">
      <!-- 60 -->
      <g style="fill: #5b6670" transform="translate(27.240625 101.614737) scale(0.1 -0.1)">
       <defs>
        <path id="DejaVuSans-36" d="M 2113 2584
Q 1688 2584 1439 2293
Q 1191 2003 1191 1497
Q 1191 994 1439 701
Q 1688 409 2113 409
Q 2538 409 2786 701
Q 3034 994 3034 1497
Q 3034 2003 2786 2293
Q 2538 2584 2113 2584
z
M 3366 4563
L 3366 3988
Q 3128 4100 2886 4159
Q 2644 4219 2406 4219
Q 1781 4219 1451 3797
Q 1122 3375 1075 2522
Q 1259 2794 1537 2939
Q 1816 3084 2150 3084
Q 2853 3084 3261 2657
Q 3669 2231 3669 1497
Q 3669 778 3244 343
Q 2819 -91 2113 -91
Q 1303 -91 875 529
Q 447 1150 447 2328
Q 447 3434 972 4092
Q 1497 4750 2381 4750
Q 2619 4750 2861 4703
Q 3103 4656 3366 4563
z
" transform="scale(0.015625)"/>
       </defs>
       <use xlink:href="#DejaVuSans-36"/>
       <use xlink:href="#DejaVuSans-30" transform="translate(63.623047 0)"/>
      </g>
     </g>
    </g>
    <g id="ytick_5">
     <g id="line2d_17">
      <path d="M 46.965625 68.447446
L 973.19952 68.447446
" clip-path="url(#p43c522e016)" style="fill: none; stroke: #d8dee4; stroke-opacity: 0.65; stroke-width: 0.8; stroke-linecap: square"/>
     </g>
     <g id="line2d_18">
      <g>
       <use xlink:href="#mb680b44f08" x="46.965625" y="68.447446" style="fill: #5b6670; stroke: #5b6670; stroke-width: 0.8"/>
      </g>
     </g>
     <g id="text_5">
      <!-- 80 -->
      <g style="fill: #5b6670" transform="translate(27.240625 72.246664) scale(0.1 -0.1)">
       <defs>
        <path id="DejaVuSans-38" d="M 2034 2216
Q 1584 2216 1326 1975
Q 1069 1734 1069 1313
Q 1069 891 1326 650
Q 1584 409 2034 409
Q 2484 409 2743 651
Q 3003 894 3003 1313
Q 3003 1734 2745 1975
Q 2488 2216 2034 2216
z
M 1403 2484
Q 997 2584 770 2862
Q 544 3141 544 3541
Q 544 4100 942 4425
Q 1341 4750 2034 4750
Q 2731 4750 3128 4425
Q 3525 4100 3525 3541
Q 3525 3141 3298 2862
Q 3072 2584 2669 2484
Q 3125 2378 3379 2068
Q 3634 1759 3634 1313
Q 3634 634 3220 271
Q 2806 -91 2034 -91
Q 1263 -91 848 271
Q 434 634 434 1313
Q 434 1759 690 2068
Q 947 2378 1403 2484
z
M 1172 3481
Q 1172 3119 1398 2916
Q 1625 2713 2034 2713
Q 2441 2713 2670 2916
Q 2900 3119 2900 3481
Q 2900 3844 2670 4047
Q 2441 4250 2034 4250
Q 1625 4250 1398 4047
Q 1172 3844 1172 3481
z
" transform="scale(0.015625)"/>
       </defs>
       <use xlink:href="#DejaVuSans-38"/>
       <use xlink:href="#DejaVuSans-30" transform="translate(63.623047 0)"/>
      </g>
     </g>
    </g>
    <g id="ytick_6">
     <g id="line2d_19">
      <path d="M 46.965625 39.079373
L 973.19952 39.079373
" clip-path="url(#p43c522e016)" style="fill: none; stroke: #d8dee4; stroke-opacity: 0.65; stroke-width: 0.8; stroke-linecap: square"/>
     </g>
     <g id="line2d_20">
      <g>
       <use xlink:href="#mb680b44f08" x="46.965625" y="39.079373" style="fill: #5b6670; stroke: #5b6670; stroke-width: 0.8"/>
      </g>
     </g>
     <g id="text_6">
      <!-- 100 -->
      <g style="fill: #5b6670" transform="translate(20.878125 42.878592) scale(0.1 -0.1)">
       <defs>
        <path id="DejaVuSans-31" d="M 794 531
L 1825 531
L 1825 4091
L 703 3866
L 703 4441
L 1819 4666
L 2450 4666
L 2450 531
L 3481 531
L 3481 0
L 794 0
L 794 531
z
" transform="scale(0.015625)"/>
       </defs>
       <use xlink:href="#DejaVuSans-31"/>
       <use xlink:href="#DejaVuSans-30" transform="translate(63.623047 0)"/>
       <use xlink:href="#DejaVuSans-30" transform="translate(127.246094 0)"/>
      </g>
     </g>
    </g>
    <g id="text_7">
     <!-- GPU util (%) -->
     <g style="fill: #1f2328" transform="translate(14.798437 139.114483) rotate(-90) scale(0.1 -0.1)">
      <defs>
       <path id="DejaVuSans-47" d="M 3809 666
L 3809 1919
L 2778 1919
L 2778 2438
L 4434 2438
L 4434 434
Q 4069 175 3628 42
Q 3188 -91 2688 -91
Q 1594 -91 976 548
Q 359 1188 359 2328
Q 359 3472 976 4111
Q 1594 4750 2688 4750
Q 3144 4750 3555 4637
Q 3966 4525 4313 4306
L 4313 3634
Q 3963 3931 3569 4081
Q 3175 4231 2741 4231
Q 1884 4231 1454 3753
Q 1025 3275 1025 2328
Q 1025 1384 1454 906
Q 1884 428 2741 428
Q 3075 428 3337 486
Q 3600 544 3809 666
z
" transform="scale(0.015625)"/>
       <path id="DejaVuSans-50" d="M 1259 4147
L 1259 2394
L 2053 2394
Q 2494 2394 2734 2622
Q 2975 2850 2975 3272
Q 2975 3691 2734 3919
Q 2494 4147 2053 4147
L 1259 4147
z
M 628 4666
L 2053 4666
Q 2838 4666 3239 4311
Q 3641 3956 3641 3272
Q 3641 2581 3239 2228
Q 2838 1875 2053 1875
L 1259 1875
L 1259 0
L 628 0
L 628 4666
z
" transform="scale(0.015625)"/>
       <path id="DejaVuSans-55" d="M 556 4666
L 1191 4666
L 1191 1831
Q 1191 1081 1462 751
Q 1734 422 2344 422
Q 2950 422 3222 751
Q 3494 1081 3494 1831
L 3494 4666
L 4128 4666
L 4128 1753
Q 4128 841 3676 375
Q 3225 -91 2344 -91
Q 1459 -91 1007 375
Q 556 841 556 1753
L 556 4666
z
" transform="scale(0.015625)"/>
       <path id="DejaVuSans-20" transform="scale(0.015625)"/>
       <path id="DejaVuSans-75" d="M 544 1381
L 544 3500
L 1119 3500
L 1119 1403
Q 1119 906 1312 657
Q 1506 409 1894 409
Q 2359 409 2629 706
Q 2900 1003 2900 1516
L 2900 3500
L 3475 3500
L 3475 0
L 2900 0
L 2900 538
Q 2691 219 2414 64
Q 2138 -91 1772 -91
Q 1169 -91 856 284
Q 544 659 544 1381
z
M 1991 3584
L 1991 3584
z
" transform="scale(0.015625)"/>
       <path id="DejaVuSans-74" d="M 1172 4494
L 1172 3500
L 2356 3500
L 2356 3053
L 1172 3053
L 1172 1153
Q 1172 725 1289 603
Q 1406 481 1766 481
L 2356 481
L 2356 0
L 1766 0
Q 1100 0 847 248
Q 594 497 594 1153
L 594 3053
L 172 3053
L 172 3500
L 594 3500
L 594 4494
L 1172 4494
z
" transform="scale(0.015625)"/>
       <path id="DejaVuSans-69" d="M 603 3500
L 1178 3500
L 1178 0
L 603 0
L 603 3500
z
M 603 4863
L 1178 4863
L 1178 4134
L 603 4134
L 603 4863
z
" transform="scale(0.015625)"/>
       <path id="DejaVuSans-6c" d="M 603 4863
L 1178 4863
L 1178 0
L 603 0
L 603 4863
z
" transform="scale(0.015625)"/>
       <path id="DejaVuSans-28" d="M 1984 4856
Q 1566 4138 1362 3434
Q 1159 2731 1159 2009
Q 1159 1288 1364 580
Q 1569 -128 1984 -844
L 1484 -844
Q 1016 -109 783 600
Q 550 1309 550 2009
Q 550 2706 781 3412
Q 1013 4119 1484 4856
L 1984 4856
z
" transform="scale(0.015625)"/>
       <path id="DejaVuSans-25" d="M 4653 2053
Q 4381 2053 4226 1822
Q 4072 1591 4072 1178
Q 4072 772 4226 539
Q 4381 306 4653 306
Q 4919 306 5073 539
Q 5228 772 5228 1178
Q 5228 1588 5073 1820
Q 4919 2053 4653 2053
z
M 4653 2450
Q 5147 2450 5437 2106
Q 5728 1763 5728 1178
Q 5728 594 5436 251
Q 5144 -91 4653 -91
Q 4153 -91 3862 251
Q 3572 594 3572 1178
Q 3572 1766 3864 2108
Q 4156 2450 4653 2450
z
M 1428 4353
Q 1159 4353 1004 4120
Q 850 3888 850 3481
Q 850 3069 1003 2837
Q 1156 2606 1428 2606
Q 1700 2606 1854 2837
Q 2009 3069 2009 3481
Q 2009 3884 1853 4118
Q 1697 4353 1428 4353
z
M 4250 4750
L 4750 4750
L 1831 -91
L 1331 -91
L 4250 4750
z
M 1428 4750
Q 1922 4750 2215 4408
Q 2509 4066 2509 3481
Q 2509 2891 2217 2550
Q 1925 2209 1428 2209
Q 931 2209 642 2551
Q 353 2894 353 3481
Q 353 4063 643 4406
Q 934 4750 1428 4750
z
" transform="scale(0.015625)"/>
       <path id="DejaVuSans-29" d="M 513 4856
L 1013 4856
Q 1481 4119 1714 3412
Q 1947 2706 1947 2009
Q 1947 1309 1714 600
Q 1481 -109 1013 -844
L 513 -844
Q 928 -128 1133 580
Q 1338 1288 1338 2009
Q 1338 2731 1133 3434
Q 928 4138 513 4856
z
" transform="scale(0.015625)"/>
      </defs>
      <use xlink:href="#DejaVuSans-47"/>
      <use xlink:href="#DejaVuSans-50" transform="translate(77.490234 0)"/>
      <use xlink:href="#DejaVuSans-55" transform="translate(137.792969 0)"/>
      <use xlink:href="#DejaVuSans-20" transform="translate(210.986328 0)"/>
      <use xlink:href="#DejaVuSans-75" transform="translate(242.773438 0)"/>
      <use xlink:href="#DejaVuSans-74" transform="translate(306.152344 0)"/>
      <use xlink:href="#DejaVuSans-69" transform="translate(345.361328 0)"/>
      <use xlink:href="#DejaVuSans-6c" transform="translate(373.144531 0)"/>
      <use xlink:href="#DejaVuSans-20" transform="translate(400.927734 0)"/>
      <use xlink:href="#DejaVuSans-28" transform="translate(432.714844 0)"/>
      <use xlink:href="#DejaVuSans-25" transform="translate(471.728516 0)"/>
      <use xlink:href="#DejaVuSans-29" transform="translate(566.748047 0)"/>
     </g>
    </g>
   </g>
   <g id="line2d_21">
    <path d="M 89.067166 185.919736
L 244.915975 185.919736
L 250.68774 177.109314
L 256.470658 185.919736
L 262.253577 159.488471
L 273.79153 159.488471
L 279.591178 160.956874
L 285.374096 159.488471
L 291.162591 159.488471
L 296.956663 174.172507
L 302.722851 185.919736
L 348.735251 185.919736
L 354.484709 172.704103
L 360.239745 134.525609
L 366.005933 153.614856
L 371.755392 134.525609
L 377.510427 140.399223
L 383.259886 180.046121
L 389.020498 185.919736
L 435.244807 185.919736
L 440.999843 39.079373
L 446.766031 39.079373
L 452.548949 94.878711
L 458.337444 39.079373
L 464.120362 162.425278
L 469.875398 185.919736
L 510.149492 185.919736
L 515.904527 39.079373
L 544.841424 39.079373
L 550.618766 185.919736
L 895.73128 185.919736
L 895.73128 185.919736
" clip-path="url(#p43c522e016)" style="fill: none; stroke: #1f6f78; stroke-width: 1.8; stroke-linecap: square"/>
   </g>
   <g id="line2d_22">
    <path d="M 89.067166 185.919736
L 245.233841 185.919736
L 251.440579 181.514525
L 257.195614 185.919736
L 262.972956 159.488471
L 291.820628 159.488471
L 297.586817 185.919736
L 349.343098 185.919736
L 355.092557 113.967958
L 360.836439 130.120398
L 366.597051 155.08326
L 372.368816 121.309976
L 378.118275 144.804434
L 383.867733 166.830489
L 389.628345 185.919736
L 435.724394 185.919736
L 441.479429 40.547777
L 447.546753 39.079373
L 453.351977 43.484584
L 459.134896 39.079373
L 464.912237 185.919736
L 505.387088 185.919736
L 511.142124 39.079373
L 516.925042 39.079373
L 522.702383 77.257867
L 528.490878 160.956874
L 534.273796 39.079373
L 540.056715 39.079373
L 545.834056 158.020067
L 551.577938 185.919736
L 557.327397 182.982929
L 563.076856 185.919736
L 925.342944 185.919736
L 931.097979 39.079373
L 931.097979 39.079373
" clip-path="url(#p43c522e016)" style="fill: none; stroke: #4c6f9f; stroke-width: 1.8; stroke-linecap: square"/>
   </g>
   <g id="line2d_23">
    <path d="M 89.067166 39.079373
L 94.811048 185.919736
L 100.55493 185.919736
L 106.304389 185.919736
L 112.048271 185.919736
L 117.820036 185.919736
L 123.591801 185.919736
L 129.363566 185.919736
L 135.135331 185.919736
L 140.907096 185.919736
L 146.678861 185.919736
L 152.450626 185.919736
L 158.227968 185.919736
L 163.999733 185.919736
L 169.777074 185.919736
L 175.54884 185.919736
L 181.326181 185.919736
L 187.103523 185.919736
L 192.869711 185.919736
L 198.641476 185.919736
L 204.418818 185.919736
L 210.185006 185.919736
L 215.956771 185.919736
L 221.728537 185.919736
L 227.494725 185.919736
L 233.26649 185.919736
L 239.038255 185.919736
L 244.79329 185.919736
L 250.548326 159.488471
L 256.35355 159.488471
L 262.114162 159.488471
L 267.91381 159.488471
L 273.674422 168.298892
L 279.47407 159.488471
L 285.240258 159.488471
L 291.012023 185.919736
L 296.761482 185.919736
L 302.510941 185.919736
L 308.2604 185.919736
L 314.009858 185.919736
L 319.759317 185.919736
L 325.508776 185.919736
L 331.258234 174.172507
L 337.018846 175.64091
L 342.768305 175.64091
L 348.517764 127.183591
L 354.278376 144.804434
L 360.033411 147.741242
L 365.799599 128.651994
L 371.549058 150.678049
L 377.30967 185.919736
L 383.059129 185.919736
L 388.808587 185.919736
L 394.563623 185.919736
L 400.318658 185.919736
L 406.073693 39.079373
L 411.851035 39.079373
L 417.633953 185.919736
L 423.383412 185.919736
L 429.272285 185.919736
L 435.021744 185.919736
L 440.771203 185.919736
L 446.520661 185.919736
L 452.398381 185.919736
L 458.365327 185.919736
L 464.198434 185.919736
L 469.975776 39.079373
L 475.764271 39.079373
L 481.547189 39.079373
L 487.341261 39.079373
L 493.124179 39.079373
L 498.907097 185.919736
L 504.656556 39.079373
L 510.439474 185.919736
L 516.194509 61.105428
L 522.066653 185.919736
L 527.816111 185.919736
L 533.56557 39.079373
L 539.348488 185.919736
L 545.1091 39.079373
L 550.886442 185.919736
L 556.635901 185.919736
L 562.385359 39.079373
L 568.134818 185.919736
" clip-path="url(#p43c522e016)" style="fill: none; stroke: #6f7d2a; stroke-width: 1.8; stroke-linecap: square"/>
   </g>
   <g id="line2d_24">
    <path d="M 89.067166 185.919736
L 94.805471 185.919736
L 100.577236 185.919736
L 106.321118 185.919736
L 112.070577 185.919736
L 117.847919 185.919736
L 123.614107 185.919736
L 129.475098 185.919736
L 135.252439 185.919736
L 141.024204 185.919736
L 146.795969 185.919736
L 152.651383 185.919736
L 158.428725 185.919736
L 164.211643 185.919736
L 169.983408 185.919736
L 175.755173 185.919736
L 181.526938 185.919736
L 187.30428 185.919736
L 193.076045 185.919736
L 198.84781 185.919736
L 204.625152 185.919736
L 210.396917 185.919736
L 216.168682 185.919736
L 221.946023 185.919736
L 227.717788 185.919736
L 233.489553 185.919736
L 239.261318 185.919736
L 245.033084 185.919736
L 250.793695 171.2357
L 256.554307 159.488471
L 262.320496 160.956874
L 268.086684 159.488471
L 273.852873 166.830489
L 279.613485 159.488471
L 285.38525 159.488471
L 291.145861 162.425278
L 296.900897 185.919736
L 302.650355 185.919736
L 308.399814 185.919736
L 314.15485 185.919736
L 319.904308 185.919736
L 325.659344 185.919736
L 331.408802 83.131482
L 337.169414 115.436362
L 342.918873 185.919736
L 348.668332 113.967958
L 354.423367 131.588802
L 360.172826 146.272838
L 365.950167 134.525609
L 371.716356 149.209645
L 377.476968 185.919736
L 383.237579 185.919736
L 388.992615 185.919736
L 394.742073 185.919736
L 400.491532 185.919736
L 406.246567 39.079373
L 412.029486 39.079373
L 417.812404 185.919736
L 423.556286 185.919736
L 429.305745 185.919736
L 435.06078 185.919736
L 440.804662 185.919736
L 446.554121 185.919736
L 452.30358 185.919736
L 458.198029 185.919736
L 463.958641 185.919736
L 469.730406 39.079373
L 475.518901 39.079373
L 481.301819 39.079373
L 487.079161 39.079373
L 492.862079 39.079373
L 498.639421 185.919736
L 504.394456 39.079373
L 510.194104 39.079373
L 515.971446 185.919736
L 521.854743 39.079373
L 527.643237 39.079373
L 533.437309 185.919736
L 539.192344 39.079373
L 544.975262 42.01618
L 551.098352 185.919736
L 556.847811 39.079373
L 562.630729 42.01618
L 568.413647 185.919736
L 574.157529 84.599886
L 579.946024 39.079373
L 585.728942 39.079373
L 591.511861 185.919736
L 597.261319 185.919736
L 603.010778 185.919736
L 608.732354 185.919736
L 614.481813 185.919736
L 620.236848 185.919736
L 625.991883 185.919736
L 631.741342 185.919736
L 637.496377 141.867627
L 643.262566 39.079373
" clip-path="url(#p43c522e016)" style="fill: none; stroke: #c85a3a; stroke-width: 1.8; stroke-linecap: square"/>
   </g>
   <g id="patch_3">
    <path d="M 46.965625 185.919736
L 46.965625 31.737355
" style="fill: none; stroke: #d8dee4; stroke-width: 0.8; stroke-linejoin: miter; stroke-linecap: square"/>
   </g>
   <g id="patch_4">
    <path d="M 46.965625 185.919736
L 973.19952 185.919736
" style="fill: none; stroke: #d8dee4; stroke-width: 0.8; stroke-linejoin: miter; stroke-linecap: square"/>
   </g>
   <g id="legend_1">
    <g id="line2d_25">
     <path d="M 685.652645 44.835793
L 695.652645 44.835793
L 705.652645 44.835793
" style="fill: none; stroke: #1f6f78; stroke-width: 1.8; stroke-linecap: square"/>
    </g>
    <g id="text_8">
     <!-- AT-M -->
     <g transform="translate(713.652645 48.335793) scale(0.1 -0.1)">
      <defs>
       <path id="DejaVuSans-41" d="M 2188 4044
L 1331 1722
L 3047 1722
L 2188 4044
z
M 1831 4666
L 2547 4666
L 4325 0
L 3669 0
L 3244 1197
L 1141 1197
L 716 0
L 50 0
L 1831 4666
z
" transform="scale(0.015625)"/>
       <path id="DejaVuSans-54" d="M -19 4666
L 3928 4666
L 3928 4134
L 2272 4134
L 2272 0
L 1638 0
L 1638 4134
L -19 4134
L -19 4666
z
" transform="scale(0.015625)"/>
       <path id="DejaVuSans-2d" d="M 313 2009
L 1997 2009
L 1997 1497
L 313 1497
L 313 2009
z
" transform="scale(0.015625)"/>
       <path id="DejaVuSans-4d" d="M 628 4666
L 1569 4666
L 2759 1491
L 3956 4666
L 4897 4666
L 4897 0
L 4281 0
L 4281 4097
L 3078 897
L 2444 897
L 1241 4097
L 1241 0
L 628 0
L 628 4666
z
" transform="scale(0.015625)"/>
      </defs>
      <use xlink:href="#DejaVuSans-41"/>
      <use xlink:href="#DejaVuSans-54" transform="translate(60.658203 0)"/>
      <use xlink:href="#DejaVuSans-2d" transform="translate(112.617188 0)"/>
      <use xlink:href="#DejaVuSans-4d" transform="translate(148.701172 0)"/>
     </g>
    </g>
    <g id="line2d_26">
     <path d="M 757.14952 44.835793
L 767.14952 44.835793
L 777.14952 44.835793
" style="fill: none; stroke: #4c6f9f; stroke-width: 1.8; stroke-linecap: square"/>
    </g>
    <g id="text_9">
     <!-- AT-T -->
     <g transform="translate(785.14952 48.335793) scale(0.1 -0.1)">
      <use xlink:href="#DejaVuSans-41"/>
      <use xlink:href="#DejaVuSans-54" transform="translate(60.658203 0)"/>
      <use xlink:href="#DejaVuSans-2d" transform="translate(112.617188 0)"/>
      <use xlink:href="#DejaVuSans-54" transform="translate(139.576172 0)"/>
     </g>
    </g>
    <g id="line2d_27">
     <path d="M 825.213582 44.835793
L 835.213582 44.835793
L 845.213582 44.835793
" style="fill: none; stroke: #6f7d2a; stroke-width: 1.8; stroke-linecap: square"/>
    </g>
    <g id="text_10">
     <!-- PE-S-M -->
     <g transform="translate(853.213582 48.335793) scale(0.1 -0.1)">
      <defs>
       <path id="DejaVuSans-45" d="M 628 4666
L 3578 4666
L 3578 4134
L 1259 4134
L 1259 2753
L 3481 2753
L 3481 2222
L 1259 2222
L 1259 531
L 3634 531
L 3634 0
L 628 0
L 628 4666
z
" transform="scale(0.015625)"/>
       <path id="DejaVuSans-53" d="M 3425 4513
L 3425 3897
Q 3066 4069 2747 4153
Q 2428 4238 2131 4238
Q 1616 4238 1336 4038
Q 1056 3838 1056 3469
Q 1056 3159 1242 3001
Q 1428 2844 1947 2747
L 2328 2669
Q 3034 2534 3370 2195
Q 3706 1856 3706 1288
Q 3706 609 3251 259
Q 2797 -91 1919 -91
Q 1588 -91 1214 -16
Q 841 59 441 206
L 441 856
Q 825 641 1194 531
Q 1563 422 1919 422
Q 2459 422 2753 634
Q 3047 847 3047 1241
Q 3047 1584 2836 1778
Q 2625 1972 2144 2069
L 1759 2144
Q 1053 2284 737 2584
Q 422 2884 422 3419
Q 422 4038 858 4394
Q 1294 4750 2059 4750
Q 2388 4750 2728 4690
Q 3069 4631 3425 4513
z
" transform="scale(0.015625)"/>
      </defs>
      <use xlink:href="#DejaVuSans-50"/>
      <use xlink:href="#DejaVuSans-45" transform="translate(60.302734 0)"/>
      <use xlink:href="#DejaVuSans-2d" transform="translate(123.486328 0)"/>
      <use xlink:href="#DejaVuSans-53" transform="translate(159.570312 0)"/>
      <use xlink:href="#DejaVuSans-2d" transform="translate(223.046875 0)"/>
      <use xlink:href="#DejaVuSans-4d" transform="translate(259.130859 0)"/>
     </g>
    </g>
    <g id="line2d_28">
     <path d="M 907.754207 44.835793
L 917.754207 44.835793
L 927.754207 44.835793
" style="fill: none; stroke: #c85a3a; stroke-width: 1.8; stroke-linecap: square"/>
    </g>
    <g id="text_11">
     <!-- V-S-M -->
     <g transform="translate(935.754207 48.335793) scale(0.1 -0.1)">
      <defs>
       <path id="DejaVuSans-56" d="M 1831 0
L 50 4666
L 709 4666
L 2188 738
L 3669 4666
L 4325 4666
L 2547 0
L 1831 0
z
" transform="scale(0.015625)"/>
      </defs>
      <use xlink:href="#DejaVuSans-56"/>
      <use xlink:href="#DejaVuSans-2d" transform="translate(62.533203 0)"/>
      <use xlink:href="#DejaVuSans-53" transform="translate(98.617188 0)"/>
      <use xlink:href="#DejaVuSans-2d" transform="translate(162.09375 0)"/>
      <use xlink:href="#DejaVuSans-4d" transform="translate(198.177734 0)"/>
     </g>
    </g>
   </g>
  </g>
  <g id="axes_2">
   <g id="patch_5">
    <path d="M 46.965625 351.981503
L 973.19952 351.981503
L 973.19952 197.799122
L 46.965625 197.799122
z
" style="fill: #ffffff"/>
   </g>
   <g id="matplotlib.axis_3">
    <g id="xtick_9">
     <g id="line2d_29">
      <g>
       <use xlink:href="#m6f103f3d86" x="89.067166" y="351.981503" style="fill: #5b6670; stroke: #5b6670; stroke-width: 0.8"/>
      </g>
     </g>
    </g>
    <g id="xtick_10">
     <g id="line2d_30">
      <g>
       <use xlink:href="#m6f103f3d86" x="200.598857" y="351.981503" style="fill: #5b6670; stroke: #5b6670; stroke-width: 0.8"/>
      </g>
     </g>
    </g>
    <g id="xtick_11">
     <g id="line2d_31">
      <g>
       <use xlink:href="#m6f103f3d86" x="312.130549" y="351.981503" style="fill: #5b6670; stroke: #5b6670; stroke-width: 0.8"/>
      </g>
     </g>
    </g>
    <g id="xtick_12">
     <g id="line2d_32">
      <g>
       <use xlink:href="#m6f103f3d86" x="423.662241" y="351.981503" style="fill: #5b6670; stroke: #5b6670; stroke-width: 0.8"/>
      </g>
     </g>
    </g>
    <g id="xtick_13">
     <g id="line2d_33">
      <g>
       <use xlink:href="#m6f103f3d86" x="535.193933" y="351.981503" style="fill: #5b6670; stroke: #5b6670; stroke-width: 0.8"/>
      </g>
     </g>
    </g>
    <g id="xtick_14">
     <g id="line2d_34">
      <g>
       <use xlink:href="#m6f103f3d86" x="646.725625" y="351.981503" style="fill: #5b6670; stroke: #5b6670; stroke-width: 0.8"/>
      </g>
     </g>
    </g>
    <g id="xtick_15">
     <g id="line2d_35">
      <g>
       <use xlink:href="#m6f103f3d86" x="758.257317" y="351.981503" style="fill: #5b6670; stroke: #5b6670; stroke-width: 0.8"/>
      </g>
     </g>
    </g>
    <g id="xtick_16">
     <g id="line2d_36">
      <g>
       <use xlink:href="#m6f103f3d86" x="869.789008" y="351.981503" style="fill: #5b6670; stroke: #5b6670; stroke-width: 0.8"/>
      </g>
     </g>
    </g>
   </g>
   <g id="matplotlib.axis_4">
    <g id="ytick_7">
     <g id="line2d_37">
      <path d="M 46.965625 351.981503
L 973.19952 351.981503
" clip-path="url(#p8c53d4b2b0)" style="fill: none; stroke: #d8dee4; stroke-opacity: 0.65; stroke-width: 0.8; stroke-linecap: square"/>
     </g>
     <g id="line2d_38">
      <g>
       <use xlink:href="#mb680b44f08" x="46.965625" y="351.981503" style="fill: #5b6670; stroke: #5b6670; stroke-width: 0.8"/>
      </g>
     </g>
     <g id="text_12">
      <!-- 0 -->
      <g style="fill: #5b6670" transform="translate(33.603125 355.780722) scale(0.1 -0.1)">
       <use xlink:href="#DejaVuSans-30"/>
      </g>
     </g>
    </g>
    <g id="ytick_8">
     <g id="line2d_39">
      <path d="M 46.965625 315.271412
L 973.19952 315.271412
" clip-path="url(#p8c53d4b2b0)" style="fill: none; stroke: #d8dee4; stroke-opacity: 0.65; stroke-width: 0.8; stroke-linecap: square"/>
     </g>
     <g id="line2d_40">
      <g>
       <use xlink:href="#mb680b44f08" x="46.965625" y="315.271412" style="fill: #5b6670; stroke: #5b6670; stroke-width: 0.8"/>
      </g>
     </g>
     <g id="text_13">
      <!-- 10 -->
      <g style="fill: #5b6670" transform="translate(27.240625 319.070631) scale(0.1 -0.1)">
       <use xlink:href="#DejaVuSans-31"/>
       <use xlink:href="#DejaVuSans-30" transform="translate(63.623047 0)"/>
      </g>
     </g>
    </g>
    <g id="ytick_9">
     <g id="line2d_41">
      <path d="M 46.965625 278.561322
L 973.19952 278.561322
" clip-path="url(#p8c53d4b2b0)" style="fill: none; stroke: #d8dee4; stroke-opacity: 0.65; stroke-width: 0.8; stroke-linecap: square"/>
     </g>
     <g id="line2d_42">
      <g>
       <use xlink:href="#mb680b44f08" x="46.965625" y="278.561322" style="fill: #5b6670; stroke: #5b6670; stroke-width: 0.8"/>
      </g>
     </g>
     <g id="text_14">
      <!-- 20 -->
      <g style="fill: #5b6670" transform="translate(27.240625 282.36054) scale(0.1 -0.1)">
       <use xlink:href="#DejaVuSans-32"/>
       <use xlink:href="#DejaVuSans-30" transform="translate(63.623047 0)"/>
      </g>
     </g>
    </g>
    <g id="ytick_10">
     <g id="line2d_43">
      <path d="M 46.965625 241.851231
L 973.19952 241.851231
" clip-path="url(#p8c53d4b2b0)" style="fill: none; stroke: #d8dee4; stroke-opacity: 0.65; stroke-width: 0.8; stroke-linecap: square"/>
     </g>
     <g id="line2d_44">
      <g>
       <use xlink:href="#mb680b44f08" x="46.965625" y="241.851231" style="fill: #5b6670; stroke: #5b6670; stroke-width: 0.8"/>
      </g>
     </g>
     <g id="text_15">
      <!-- 30 -->
      <g style="fill: #5b6670" transform="translate(27.240625 245.65045) scale(0.1 -0.1)">
       <defs>
        <path id="DejaVuSans-33" d="M 2597 2516
Q 3050 2419 3304 2112
Q 3559 1806 3559 1356
Q 3559 666 3084 287
Q 2609 -91 1734 -91
Q 1441 -91 1130 -33
Q 819 25 488 141
L 488 750
Q 750 597 1062 519
Q 1375 441 1716 441
Q 2309 441 2620 675
Q 2931 909 2931 1356
Q 2931 1769 2642 2001
Q 2353 2234 1838 2234
L 1294 2234
L 1294 2753
L 1863 2753
Q 2328 2753 2575 2939
Q 2822 3125 2822 3475
Q 2822 3834 2567 4026
Q 2313 4219 1838 4219
Q 1578 4219 1281 4162
Q 984 4106 628 3988
L 628 4550
Q 988 4650 1302 4700
Q 1616 4750 1894 4750
Q 2613 4750 3031 4423
Q 3450 4097 3450 3541
Q 3450 3153 3228 2886
Q 3006 2619 2597 2516
z
" transform="scale(0.015625)"/>
       </defs>
       <use xlink:href="#DejaVuSans-33"/>
       <use xlink:href="#DejaVuSans-30" transform="translate(63.623047 0)"/>
      </g>
     </g>
    </g>
    <g id="ytick_11">
     <g id="line2d_45">
      <path d="M 46.965625 205.14114
L 973.19952 205.14114
" clip-path="url(#p8c53d4b2b0)" style="fill: none; stroke: #d8dee4; stroke-opacity: 0.65; stroke-width: 0.8; stroke-linecap: square"/>
     </g>
     <g id="line2d_46">
      <g>
       <use xlink:href="#mb680b44f08" x="46.965625" y="205.14114" style="fill: #5b6670; stroke: #5b6670; stroke-width: 0.8"/>
      </g>
     </g>
     <g id="text_16">
      <!-- 40 -->
      <g style="fill: #5b6670" transform="translate(27.240625 208.940359) scale(0.1 -0.1)">
       <use xlink:href="#DejaVuSans-34"/>
       <use xlink:href="#DejaVuSans-30" transform="translate(63.623047 0)"/>
      </g>
     </g>
    </g>
    <g id="text_17">
     <!-- VRAM used (GiB) -->
     <g style="fill: #1f2328" transform="translate(21.160937 317.116875) rotate(-90) scale(0.1 -0.1)">
      <defs>
       <path id="DejaVuSans-52" d="M 2841 2188
Q 3044 2119 3236 1894
Q 3428 1669 3622 1275
L 4263 0
L 3584 0
L 2988 1197
Q 2756 1666 2539 1819
Q 2322 1972 1947 1972
L 1259 1972
L 1259 0
L 628 0
L 628 4666
L 2053 4666
Q 2853 4666 3247 4331
Q 3641 3997 3641 3322
Q 3641 2881 3436 2590
Q 3231 2300 2841 2188
z
M 1259 4147
L 1259 2491
L 2053 2491
Q 2509 2491 2742 2702
Q 2975 2913 2975 3322
Q 2975 3731 2742 3939
Q 2509 4147 2053 4147
L 1259 4147
z
" transform="scale(0.015625)"/>
       <path id="DejaVuSans-73" d="M 2834 3397
L 2834 2853
Q 2591 2978 2328 3040
Q 2066 3103 1784 3103
Q 1356 3103 1142 2972
Q 928 2841 928 2578
Q 928 2378 1081 2264
Q 1234 2150 1697 2047
L 1894 2003
Q 2506 1872 2764 1633
Q 3022 1394 3022 966
Q 3022 478 2636 193
Q 2250 -91 1575 -91
Q 1294 -91 989 -36
Q 684 19 347 128
L 347 722
Q 666 556 975 473
Q 1284 391 1588 391
Q 1994 391 2212 530
Q 2431 669 2431 922
Q 2431 1156 2273 1281
Q 2116 1406 1581 1522
L 1381 1569
Q 847 1681 609 1914
Q 372 2147 372 2553
Q 372 3047 722 3315
Q 1072 3584 1716 3584
Q 2034 3584 2315 3537
Q 2597 3491 2834 3397
z
" transform="scale(0.015625)"/>
       <path id="DejaVuSans-65" d="M 3597 1894
L 3597 1613
L 953 1613
Q 991 1019 1311 708
Q 1631 397 2203 397
Q 2534 397 2845 478
Q 3156 559 3463 722
L 3463 178
Q 3153 47 2828 -22
Q 2503 -91 2169 -91
Q 1331 -91 842 396
Q 353 884 353 1716
Q 353 2575 817 3079
Q 1281 3584 2069 3584
Q 2775 3584 3186 3129
Q 3597 2675 3597 1894
z
M 3022 2063
Q 3016 2534 2758 2815
Q 2500 3097 2075 3097
Q 1594 3097 1305 2825
Q 1016 2553 972 2059
L 3022 2063
z
" transform="scale(0.015625)"/>
       <path id="DejaVuSans-64" d="M 2906 2969
L 2906 4863
L 3481 4863
L 3481 0
L 2906 0
L 2906 525
Q 2725 213 2448 61
Q 2172 -91 1784 -91
Q 1150 -91 751 415
Q 353 922 353 1747
Q 353 2572 751 3078
Q 1150 3584 1784 3584
Q 2172 3584 2448 3432
Q 2725 3281 2906 2969
z
M 947 1747
Q 947 1113 1208 752
Q 1469 391 1925 391
Q 2381 391 2643 752
Q 2906 1113 2906 1747
Q 2906 2381 2643 2742
Q 2381 3103 1925 3103
Q 1469 3103 1208 2742
Q 947 2381 947 1747
z
" transform="scale(0.015625)"/>
       <path id="DejaVuSans-42" d="M 1259 2228
L 1259 519
L 2272 519
Q 2781 519 3026 730
Q 3272 941 3272 1375
Q 3272 1813 3026 2020
Q 2781 2228 2272 2228
L 1259 2228
z
M 1259 4147
L 1259 2741
L 2194 2741
Q 2656 2741 2882 2914
Q 3109 3088 3109 3444
Q 3109 3797 2882 3972
Q 2656 4147 2194 4147
L 1259 4147
z
M 628 4666
L 2241 4666
Q 2963 4666 3353 4366
Q 3744 4066 3744 3513
Q 3744 3084 3544 2831
Q 3344 2578 2956 2516
Q 3422 2416 3680 2098
Q 3938 1781 3938 1306
Q 3938 681 3513 340
Q 3088 0 2303 0
L 628 0
L 628 4666
z
" transform="scale(0.015625)"/>
      </defs>
      <use xlink:href="#DejaVuSans-56"/>
      <use xlink:href="#DejaVuSans-52" transform="translate(68.408203 0)"/>
      <use xlink:href="#DejaVuSans-41" transform="translate(133.890625 0)"/>
      <use xlink:href="#DejaVuSans-4d" transform="translate(202.298828 0)"/>
      <use xlink:href="#DejaVuSans-20" transform="translate(288.578125 0)"/>
      <use xlink:href="#DejaVuSans-75" transform="translate(320.365234 0)"/>
      <use xlink:href="#DejaVuSans-73" transform="translate(383.744141 0)"/>
      <use xlink:href="#DejaVuSans-65" transform="translate(435.84375 0)"/>
      <use xlink:href="#DejaVuSans-64" transform="translate(497.367188 0)"/>
      <use xlink:href="#DejaVuSans-20" transform="translate(560.84375 0)"/>
      <use xlink:href="#DejaVuSans-28" transform="translate(592.630859 0)"/>
      <use xlink:href="#DejaVuSans-47" transform="translate(631.644531 0)"/>
      <use xlink:href="#DejaVuSans-69" transform="translate(709.134766 0)"/>
      <use xlink:href="#DejaVuSans-42" transform="translate(736.917969 0)"/>
      <use xlink:href="#DejaVuSans-29" transform="translate(805.521484 0)"/>
     </g>
    </g>
   </g>
   <g id="line2d_47">
    <path d="M 89.067166 351.981503
L 244.915975 351.981503
L 250.68774 350.024109
L 256.470658 294.944634
L 337.236333 294.944634
L 342.985792 290.269833
L 348.735251 290.054735
L 354.484709 220.922177
L 360.239745 220.527831
L 371.755392 220.025935
L 383.259886 219.538379
L 389.020498 217.882123
L 895.73128 217.831933
L 895.73128 217.831933
" clip-path="url(#p8c53d4b2b0)" style="fill: none; stroke: #1f6f78; stroke-width: 1.8; stroke-linecap: square"/>
   </g>
   <g id="line2d_48">
    <path d="M 89.067166 351.981503
L 245.233841 351.977918
L 251.440579 346.145172
L 257.195614 294.944634
L 332.089146 294.944634
L 337.838604 294.679346
L 343.59364 290.269833
L 349.343098 294.363868
L 355.092557 220.864818
L 360.836439 220.448961
L 372.368816 219.925556
L 378.118275 219.645928
L 383.867733 217.882123
L 925.342944 217.831933
L 931.097979 351.981503
L 931.097979 351.981503
" clip-path="url(#p8c53d4b2b0)" style="fill: none; stroke: #4c6f9f; stroke-width: 1.8; stroke-linecap: square"/>
   </g>
   <g id="line2d_49">
    <path d="M 89.067166 351.981503
L 94.811048 351.981503
L 100.55493 351.981503
L 106.304389 351.981503
L 112.048271 351.981503
L 117.820036 351.981503
L 123.591801 351.959993
L 129.363566 351.981503
L 135.135331 351.981503
L 140.907096 351.981503
L 146.678861 351.981503
L 152.450626 351.981503
L 158.227968 351.981503
L 163.999733 351.981503
L 169.777074 351.981503
L 175.54884 351.981503
L 181.326181 351.981503
L 187.103523 351.981503
L 192.869711 351.981503
L 198.641476 351.981503
L 204.418818 351.981503
L 210.185006 351.981503
L 215.956771 351.981503
L 221.728537 351.981503
L 227.494725 351.981503
L 233.26649 351.981503
L 239.038255 350.447136
L 244.79329 311.9589
L 250.548326 294.944634
L 256.35355 294.944634
L 262.114162 294.944634
L 267.91381 294.944634
L 273.674422 294.944634
L 279.47407 294.944634
L 285.240258 294.944634
L 291.012023 294.944634
L 296.761482 294.944634
L 302.510941 294.944634
L 308.2604 294.944634
L 314.009858 294.944634
L 319.759317 294.944634
L 325.508776 294.944634
L 331.258234 292.449495
L 337.018846 290.054735
L 342.768305 221.287844
L 348.517764 220.62821
L 354.278376 220.362922
L 360.033411 220.097634
L 365.799599 219.825176
L 371.549058 219.538379
L 377.30967 217.882123
L 383.059129 217.882123
L 388.808587 217.882123
L 394.563623 217.882123
L 400.318658 217.882123
L 406.073693 217.882123
L 411.851035 217.882123
L 417.633953 217.882123
L 423.383412 217.882123
L 429.272285 217.882123
L 435.021744 217.882123
L 440.771203 217.882123
L 446.520661 217.882123
L 452.398381 217.882123
L 458.365327 217.882123
L 464.198434 217.882123
L 469.975776 217.882123
L 475.764271 217.882123
L 481.547189 217.882123
L 487.341261 217.882123
L 493.124179 217.882123
L 498.907097 217.882123
L 504.656556 217.882123
L 510.439474 217.882123
L 516.194509 217.882123
L 522.066653 217.882123
L 527.816111 217.882123
L 533.56557 217.882123
L 539.348488 217.882123
L 545.1091 217.882123
L 550.886442 217.882123
L 556.635901 217.882123
L 562.385359 351.981503
L 568.134818 351.981503
" clip-path="url(#p8c53d4b2b0)" style="fill: none; stroke: #6f7d2a; stroke-width: 1.8; stroke-linecap: square"/>
   </g>
   <g id="line2d_50">
    <path d="M 89.067166 351.981503
L 94.805471 351.981503
L 100.577236 351.981503
L 106.321118 351.981503
L 112.070577 351.981503
L 117.847919 351.981503
L 123.614107 351.959993
L 129.475098 351.981503
L 135.252439 351.981503
L 141.024204 351.981503
L 146.795969 351.981503
L 152.651383 351.981503
L 158.428725 351.981503
L 164.211643 351.981503
L 169.983408 351.981503
L 175.755173 351.981503
L 181.526938 351.981503
L 187.30428 351.981503
L 193.076045 351.981503
L 198.84781 351.981503
L 204.625152 351.981503
L 210.396917 351.981503
L 216.168682 351.981503
L 221.946023 351.981503
L 227.717788 351.981503
L 233.489553 351.981503
L 239.261318 351.845274
L 245.033084 332.550967
L 250.793695 294.944634
L 256.554307 294.944634
L 262.320496 294.944634
L 268.086684 294.944634
L 273.852873 294.944634
L 279.613485 294.944634
L 285.38525 294.944634
L 291.145861 294.944634
L 296.900897 294.944634
L 302.650355 294.944634
L 308.399814 294.944634
L 314.15485 294.944634
L 319.904308 294.944634
L 325.659344 294.944634
L 331.408802 292.449495
L 337.169414 290.054735
L 342.918873 221.287844
L 348.668332 220.707079
L 354.423367 220.456131
L 360.172826 220.133484
L 365.950167 219.782157
L 371.716356 219.552719
L 377.476968 217.882123
L 383.237579 217.882123
L 388.992615 217.882123
L 394.742073 217.882123
L 400.491532 217.882123
L 406.246567 217.882123
L 412.029486 217.882123
L 417.812404 217.882123
L 423.556286 217.882123
L 429.305745 217.882123
L 435.06078 217.882123
L 440.804662 217.882123
L 446.554121 217.882123
L 452.30358 217.882123
L 458.198029 217.882123
L 463.958641 217.882123
L 469.730406 217.882123
L 475.518901 217.882123
L 481.301819 217.882123
L 487.079161 217.882123
L 492.862079 217.882123
L 498.639421 217.882123
L 504.394456 217.882123
L 510.194104 217.882123
L 515.971446 217.882123
L 521.854743 217.882123
L 527.643237 217.882123
L 533.437309 217.882123
L 539.192344 217.882123
L 544.975262 217.882123
L 551.098352 217.882123
L 556.847811 217.882123
L 562.630729 217.882123
L 568.413647 217.882123
L 574.157529 217.882123
L 579.946024 217.882123
L 585.728942 217.882123
L 591.511861 217.882123
L 597.261319 217.882123
L 603.010778 217.882123
L 608.732354 217.882123
L 614.481813 217.882123
L 620.236848 217.882123
L 625.991883 217.882123
L 631.741342 217.882123
L 637.496377 351.981503
L 643.262566 351.981503
" clip-path="url(#p8c53d4b2b0)" style="fill: none; stroke: #c85a3a; stroke-width: 1.8; stroke-linecap: square"/>
   </g>
   <g id="patch_6">
    <path d="M 46.965625 351.981503
L 46.965625 197.799122
" style="fill: none; stroke: #d8dee4; stroke-width: 0.8; stroke-linejoin: miter; stroke-linecap: square"/>
   </g>
   <g id="patch_7">
    <path d="M 46.965625 351.981503
L 973.19952 351.981503
" style="fill: none; stroke: #d8dee4; stroke-width: 0.8; stroke-linejoin: miter; stroke-linecap: square"/>
   </g>
  </g>
  <g id="axes_3">
   <g id="patch_8">
    <path d="M 46.965625 518.04327
L 973.19952 518.04327
L 973.19952 363.860889
L 46.965625 363.860889
z
" style="fill: #ffffff"/>
   </g>
   <g id="matplotlib.axis_5">
    <g id="xtick_17">
     <g id="line2d_51">
      <g>
       <use xlink:href="#m6f103f3d86" x="89.067166" y="518.04327" style="fill: #5b6670; stroke: #5b6670; stroke-width: 0.8"/>
      </g>
     </g>
     <g id="text_18">
      <!-- 0 -->
      <g style="fill: #5b6670" transform="translate(85.885916 532.641707) scale(0.1 -0.1)">
       <use xlink:href="#DejaVuSans-30"/>
      </g>
     </g>
    </g>
    <g id="xtick_18">
     <g id="line2d_52">
      <g>
       <use xlink:href="#m6f103f3d86" x="200.598857" y="518.04327" style="fill: #5b6670; stroke: #5b6670; stroke-width: 0.8"/>
      </g>
     </g>
     <g id="text_19">
      <!-- 20 -->
      <g style="fill: #5b6670" transform="translate(194.236357 532.641707) scale(0.1 -0.1)">
       <use xlink:href="#DejaVuSans-32"/>
       <use xlink:href="#DejaVuSans-30" transform="translate(63.623047 0)"/>
      </g>
     </g>
    </g>
    <g id="xtick_19">
     <g id="line2d_53">
      <g>
       <use xlink:href="#m6f103f3d86" x="312.130549" y="518.04327" style="fill: #5b6670; stroke: #5b6670; stroke-width: 0.8"/>
      </g>
     </g>
     <g id="text_20">
      <!-- 40 -->
      <g style="fill: #5b6670" transform="translate(305.768049 532.641707) scale(0.1 -0.1)">
       <use xlink:href="#DejaVuSans-34"/>
       <use xlink:href="#DejaVuSans-30" transform="translate(63.623047 0)"/>
      </g>
     </g>
    </g>
    <g id="xtick_20">
     <g id="line2d_54">
      <g>
       <use xlink:href="#m6f103f3d86" x="423.662241" y="518.04327" style="fill: #5b6670; stroke: #5b6670; stroke-width: 0.8"/>
      </g>
     </g>
     <g id="text_21">
      <!-- 60 -->
      <g style="fill: #5b6670" transform="translate(417.299741 532.641707) scale(0.1 -0.1)">
       <use xlink:href="#DejaVuSans-36"/>
       <use xlink:href="#DejaVuSans-30" transform="translate(63.623047 0)"/>
      </g>
     </g>
    </g>
    <g id="xtick_21">
     <g id="line2d_55">
      <g>
       <use xlink:href="#m6f103f3d86" x="535.193933" y="518.04327" style="fill: #5b6670; stroke: #5b6670; stroke-width: 0.8"/>
      </g>
     </g>
     <g id="text_22">
      <!-- 80 -->
      <g style="fill: #5b6670" transform="translate(528.831433 532.641707) scale(0.1 -0.1)">
       <use xlink:href="#DejaVuSans-38"/>
       <use xlink:href="#DejaVuSans-30" transform="translate(63.623047 0)"/>
      </g>
     </g>
    </g>
    <g id="xtick_22">
     <g id="line2d_56">
      <g>
       <use xlink:href="#m6f103f3d86" x="646.725625" y="518.04327" style="fill: #5b6670; stroke: #5b6670; stroke-width: 0.8"/>
      </g>
     </g>
     <g id="text_23">
      <!-- 100 -->
      <g style="fill: #5b6670" transform="translate(637.181875 532.641707) scale(0.1 -0.1)">
       <use xlink:href="#DejaVuSans-31"/>
       <use xlink:href="#DejaVuSans-30" transform="translate(63.623047 0)"/>
       <use xlink:href="#DejaVuSans-30" transform="translate(127.246094 0)"/>
      </g>
     </g>
    </g>
    <g id="xtick_23">
     <g id="line2d_57">
      <g>
       <use xlink:href="#m6f103f3d86" x="758.257317" y="518.04327" style="fill: #5b6670; stroke: #5b6670; stroke-width: 0.8"/>
      </g>
     </g>
     <g id="text_24">
      <!-- 120 -->
      <g style="fill: #5b6670" transform="translate(748.713567 532.641707) scale(0.1 -0.1)">
       <use xlink:href="#DejaVuSans-31"/>
       <use xlink:href="#DejaVuSans-32" transform="translate(63.623047 0)"/>
       <use xlink:href="#DejaVuSans-30" transform="translate(127.246094 0)"/>
      </g>
     </g>
    </g>
    <g id="xtick_24">
     <g id="line2d_58">
      <g>
       <use xlink:href="#m6f103f3d86" x="869.789008" y="518.04327" style="fill: #5b6670; stroke: #5b6670; stroke-width: 0.8"/>
      </g>
     </g>
     <g id="text_25">
      <!-- 140 -->
      <g style="fill: #5b6670" transform="translate(860.245258 532.641707) scale(0.1 -0.1)">
       <use xlink:href="#DejaVuSans-31"/>
       <use xlink:href="#DejaVuSans-34" transform="translate(63.623047 0)"/>
       <use xlink:href="#DejaVuSans-30" transform="translate(127.246094 0)"/>
      </g>
     </g>
    </g>
    <g id="text_26">
     <!-- seconds since capture start -->
     <g style="fill: #1f2328" transform="translate(441.109135 546.319832) scale(0.1 -0.1)">
      <defs>
       <path id="DejaVuSans-63" d="M 3122 3366
L 3122 2828
Q 2878 2963 2633 3030
Q 2388 3097 2138 3097
Q 1578 3097 1268 2742
Q 959 2388 959 1747
Q 959 1106 1268 751
Q 1578 397 2138 397
Q 2388 397 2633 464
Q 2878 531 3122 666
L 3122 134
Q 2881 22 2623 -34
Q 2366 -91 2075 -91
Q 1284 -91 818 406
Q 353 903 353 1747
Q 353 2603 823 3093
Q 1294 3584 2113 3584
Q 2378 3584 2631 3529
Q 2884 3475 3122 3366
z
" transform="scale(0.015625)"/>
       <path id="DejaVuSans-6f" d="M 1959 3097
Q 1497 3097 1228 2736
Q 959 2375 959 1747
Q 959 1119 1226 758
Q 1494 397 1959 397
Q 2419 397 2687 759
Q 2956 1122 2956 1747
Q 2956 2369 2687 2733
Q 2419 3097 1959 3097
z
M 1959 3584
Q 2709 3584 3137 3096
Q 3566 2609 3566 1747
Q 3566 888 3137 398
Q 2709 -91 1959 -91
Q 1206 -91 779 398
Q 353 888 353 1747
Q 353 2609 779 3096
Q 1206 3584 1959 3584
z
" transform="scale(0.015625)"/>
       <path id="DejaVuSans-6e" d="M 3513 2113
L 3513 0
L 2938 0
L 2938 2094
Q 2938 2591 2744 2837
Q 2550 3084 2163 3084
Q 1697 3084 1428 2787
Q 1159 2491 1159 1978
L 1159 0
L 581 0
L 581 3500
L 1159 3500
L 1159 2956
Q 1366 3272 1645 3428
Q 1925 3584 2291 3584
Q 2894 3584 3203 3211
Q 3513 2838 3513 2113
z
" transform="scale(0.015625)"/>
       <path id="DejaVuSans-61" d="M 2194 1759
Q 1497 1759 1228 1600
Q 959 1441 959 1056
Q 959 750 1161 570
Q 1363 391 1709 391
Q 2188 391 2477 730
Q 2766 1069 2766 1631
L 2766 1759
L 2194 1759
z
M 3341 1997
L 3341 0
L 2766 0
L 2766 531
Q 2569 213 2275 61
Q 1981 -91 1556 -91
Q 1019 -91 701 211
Q 384 513 384 1019
Q 384 1609 779 1909
Q 1175 2209 1959 2209
L 2766 2209
L 2766 2266
Q 2766 2663 2505 2880
Q 2244 3097 1772 3097
Q 1472 3097 1187 3025
Q 903 2953 641 2809
L 641 3341
Q 956 3463 1253 3523
Q 1550 3584 1831 3584
Q 2591 3584 2966 3190
Q 3341 2797 3341 1997
z
" transform="scale(0.015625)"/>
       <path id="DejaVuSans-70" d="M 1159 525
L 1159 -1331
L 581 -1331
L 581 3500
L 1159 3500
L 1159 2969
Q 1341 3281 1617 3432
Q 1894 3584 2278 3584
Q 2916 3584 3314 3078
Q 3713 2572 3713 1747
Q 3713 922 3314 415
Q 2916 -91 2278 -91
Q 1894 -91 1617 61
Q 1341 213 1159 525
z
M 3116 1747
Q 3116 2381 2855 2742
Q 2594 3103 2138 3103
Q 1681 3103 1420 2742
Q 1159 2381 1159 1747
Q 1159 1113 1420 752
Q 1681 391 2138 391
Q 2594 391 2855 752
Q 3116 1113 3116 1747
z
" transform="scale(0.015625)"/>
       <path id="DejaVuSans-72" d="M 2631 2963
Q 2534 3019 2420 3045
Q 2306 3072 2169 3072
Q 1681 3072 1420 2755
Q 1159 2438 1159 1844
L 1159 0
L 581 0
L 581 3500
L 1159 3500
L 1159 2956
Q 1341 3275 1631 3429
Q 1922 3584 2338 3584
Q 2397 3584 2469 3576
Q 2541 3569 2628 3553
L 2631 2963
z
" transform="scale(0.015625)"/>
      </defs>
      <use xlink:href="#DejaVuSans-73"/>
      <use xlink:href="#DejaVuSans-65" transform="translate(52.099609 0)"/>
      <use xlink:href="#DejaVuSans-63" transform="translate(113.623047 0)"/>
      <use xlink:href="#DejaVuSans-6f" transform="translate(168.603516 0)"/>
      <use xlink:href="#DejaVuSans-6e" transform="translate(229.785156 0)"/>
      <use xlink:href="#DejaVuSans-64" transform="translate(293.164062 0)"/>
      <use xlink:href="#DejaVuSans-73" transform="translate(356.640625 0)"/>
      <use xlink:href="#DejaVuSans-20" transform="translate(408.740234 0)"/>
      <use xlink:href="#DejaVuSans-73" transform="translate(440.527344 0)"/>
      <use xlink:href="#DejaVuSans-69" transform="translate(492.626953 0)"/>
      <use xlink:href="#DejaVuSans-6e" transform="translate(520.410156 0)"/>
      <use xlink:href="#DejaVuSans-63" transform="translate(583.789062 0)"/>
      <use xlink:href="#DejaVuSans-65" transform="translate(638.769531 0)"/>
      <use xlink:href="#DejaVuSans-20" transform="translate(700.292969 0)"/>
      <use xlink:href="#DejaVuSans-63" transform="translate(732.080078 0)"/>
      <use xlink:href="#DejaVuSans-61" transform="translate(787.060547 0)"/>
      <use xlink:href="#DejaVuSans-70" transform="translate(848.339844 0)"/>
      <use xlink:href="#DejaVuSans-74" transform="translate(911.816406 0)"/>
      <use xlink:href="#DejaVuSans-75" transform="translate(951.025391 0)"/>
      <use xlink:href="#DejaVuSans-72" transform="translate(1014.404297 0)"/>
      <use xlink:href="#DejaVuSans-65" transform="translate(1053.267578 0)"/>
      <use xlink:href="#DejaVuSans-20" transform="translate(1114.791016 0)"/>
      <use xlink:href="#DejaVuSans-73" transform="translate(1146.578125 0)"/>
      <use xlink:href="#DejaVuSans-74" transform="translate(1198.677734 0)"/>
      <use xlink:href="#DejaVuSans-61" transform="translate(1237.886719 0)"/>
      <use xlink:href="#DejaVuSans-72" transform="translate(1299.166016 0)"/>
      <use xlink:href="#DejaVuSans-74" transform="translate(1340.279297 0)"/>
     </g>
    </g>
   </g>
   <g id="matplotlib.axis_6">
    <g id="ytick_12">
     <g id="line2d_59">
      <path d="M 46.965625 518.04327
L 973.19952 518.04327
" clip-path="url(#pdd40d25b10)" style="fill: none; stroke: #d8dee4; stroke-opacity: 0.65; stroke-width: 0.8; stroke-linecap: square"/>
     </g>
     <g id="line2d_60">
      <g>
       <use xlink:href="#mb680b44f08" x="46.965625" y="518.04327" style="fill: #5b6670; stroke: #5b6670; stroke-width: 0.8"/>
      </g>
     </g>
     <g id="text_27">
      <!-- 0 -->
      <g style="fill: #5b6670" transform="translate(33.603125 521.842489) scale(0.1 -0.1)">
       <use xlink:href="#DejaVuSans-30"/>
      </g>
     </g>
    </g>
    <g id="ytick_13">
     <g id="line2d_61">
      <path d="M 46.965625 485.238508
L 973.19952 485.238508
" clip-path="url(#pdd40d25b10)" style="fill: none; stroke: #d8dee4; stroke-opacity: 0.65; stroke-width: 0.8; stroke-linecap: square"/>
     </g>
     <g id="line2d_62">
      <g>
       <use xlink:href="#mb680b44f08" x="46.965625" y="485.238508" style="fill: #5b6670; stroke: #5b6670; stroke-width: 0.8"/>
      </g>
     </g>
     <g id="text_28">
      <!-- 100 -->
      <g style="fill: #5b6670" transform="translate(20.878125 489.037727) scale(0.1 -0.1)">
       <use xlink:href="#DejaVuSans-31"/>
       <use xlink:href="#DejaVuSans-30" transform="translate(63.623047 0)"/>
       <use xlink:href="#DejaVuSans-30" transform="translate(127.246094 0)"/>
      </g>
     </g>
    </g>
    <g id="ytick_14">
     <g id="line2d_63">
      <path d="M 46.965625 452.433746
L 973.19952 452.433746
" clip-path="url(#pdd40d25b10)" style="fill: none; stroke: #d8dee4; stroke-opacity: 0.65; stroke-width: 0.8; stroke-linecap: square"/>
     </g>
     <g id="line2d_64">
      <g>
       <use xlink:href="#mb680b44f08" x="46.965625" y="452.433746" style="fill: #5b6670; stroke: #5b6670; stroke-width: 0.8"/>
      </g>
     </g>
     <g id="text_29">
      <!-- 200 -->
      <g style="fill: #5b6670" transform="translate(20.878125 456.232965) scale(0.1 -0.1)">
       <use xlink:href="#DejaVuSans-32"/>
       <use xlink:href="#DejaVuSans-30" transform="translate(63.623047 0)"/>
       <use xlink:href="#DejaVuSans-30" transform="translate(127.246094 0)"/>
      </g>
     </g>
    </g>
    <g id="ytick_15">
     <g id="line2d_65">
      <path d="M 46.965625 419.628984
L 973.19952 419.628984
" clip-path="url(#pdd40d25b10)" style="fill: none; stroke: #d8dee4; stroke-opacity: 0.65; stroke-width: 0.8; stroke-linecap: square"/>
     </g>
     <g id="line2d_66">
      <g>
       <use xlink:href="#mb680b44f08" x="46.965625" y="419.628984" style="fill: #5b6670; stroke: #5b6670; stroke-width: 0.8"/>
      </g>
     </g>
     <g id="text_30">
      <!-- 300 -->
      <g style="fill: #5b6670" transform="translate(20.878125 423.428203) scale(0.1 -0.1)">
       <use xlink:href="#DejaVuSans-33"/>
       <use xlink:href="#DejaVuSans-30" transform="translate(63.623047 0)"/>
       <use xlink:href="#DejaVuSans-30" transform="translate(127.246094 0)"/>
      </g>
     </g>
    </g>
    <g id="ytick_16">
     <g id="line2d_67">
      <path d="M 46.965625 386.824222
L 973.19952 386.824222
" clip-path="url(#pdd40d25b10)" style="fill: none; stroke: #d8dee4; stroke-opacity: 0.65; stroke-width: 0.8; stroke-linecap: square"/>
     </g>
     <g id="line2d_68">
      <g>
       <use xlink:href="#mb680b44f08" x="46.965625" y="386.824222" style="fill: #5b6670; stroke: #5b6670; stroke-width: 0.8"/>
      </g>
     </g>
     <g id="text_31">
      <!-- 400 -->
      <g style="fill: #5b6670" transform="translate(20.878125 390.623441) scale(0.1 -0.1)">
       <use xlink:href="#DejaVuSans-34"/>
       <use xlink:href="#DejaVuSans-30" transform="translate(63.623047 0)"/>
       <use xlink:href="#DejaVuSans-30" transform="translate(127.246094 0)"/>
      </g>
     </g>
    </g>
    <g id="text_32">
     <!-- Power draw (W) -->
     <g style="fill: #1f2328" transform="translate(14.798437 480.472392) rotate(-90) scale(0.1 -0.1)">
      <defs>
       <path id="DejaVuSans-77" d="M 269 3500
L 844 3500
L 1563 769
L 2278 3500
L 2956 3500
L 3675 769
L 4391 3500
L 4966 3500
L 4050 0
L 3372 0
L 2619 2869
L 1863 0
L 1184 0
L 269 3500
z
" transform="scale(0.015625)"/>
       <path id="DejaVuSans-57" d="M 213 4666
L 850 4666
L 1831 722
L 2809 4666
L 3519 4666
L 4500 722
L 5478 4666
L 6119 4666
L 4947 0
L 4153 0
L 3169 4050
L 2175 0
L 1381 0
L 213 4666
z
" transform="scale(0.015625)"/>
      </defs>
      <use xlink:href="#DejaVuSans-50"/>
      <use xlink:href="#DejaVuSans-6f" transform="translate(56.677734 0)"/>
      <use xlink:href="#DejaVuSans-77" transform="translate(117.859375 0)"/>
      <use xlink:href="#DejaVuSans-65" transform="translate(199.646484 0)"/>
      <use xlink:href="#DejaVuSans-72" transform="translate(261.169922 0)"/>
      <use xlink:href="#DejaVuSans-20" transform="translate(302.283203 0)"/>
      <use xlink:href="#DejaVuSans-64" transform="translate(334.070312 0)"/>
      <use xlink:href="#DejaVuSans-72" transform="translate(397.546875 0)"/>
      <use xlink:href="#DejaVuSans-61" transform="translate(438.660156 0)"/>
      <use xlink:href="#DejaVuSans-77" transform="translate(499.939453 0)"/>
      <use xlink:href="#DejaVuSans-20" transform="translate(581.726562 0)"/>
      <use xlink:href="#DejaVuSans-28" transform="translate(613.513672 0)"/>
      <use xlink:href="#DejaVuSans-57" transform="translate(652.527344 0)"/>
      <use xlink:href="#DejaVuSans-29" transform="translate(751.404297 0)"/>
     </g>
    </g>
   </g>
   <g id="line2d_69">
    <path d="M 89.067166 503.29753
L 94.838931 503.402505
L 100.605119 496.795626
L 106.382461 496.510224
L 112.126343 503.313932
L 123.669873 503.402505
L 129.452791 503.313932
L 141.001898 503.402505
L 146.773663 503.313932
L 158.317193 503.402505
L 164.094535 503.208957
L 169.871876 503.402505
L 244.915975 503.402505
L 250.68774 501.496548
L 273.79153 501.391573
L 279.591178 501.211147
L 291.162591 501.391573
L 296.956663 501.194744
L 314.227345 501.496548
L 325.720686 501.391573
L 337.236333 501.480146
L 342.985792 496.421651
L 348.735251 496.313396
L 354.484709 484.648022
L 360.239745 470.807693
L 366.005933 455.130298
L 371.755392 494.978242
L 377.510427 476.400905
L 383.259886 497.953634
L 389.020498 501.29972
L 400.524992 501.391573
L 412.235819 501.391573
L 417.990855 501.017599
L 423.74589 501.391573
L 435.244807 501.391573
L 440.999843 410.086079
L 446.766031 434.561712
L 452.548949 408.078428
L 458.337444 434.561712
L 464.120362 495.457191
L 469.875398 495.834446
L 475.624856 501.194744
L 504.38888 501.194744
L 510.149492 501.316122
L 515.904527 436.182267
L 521.693022 434.847113
L 527.487093 437.23202
L 533.275588 434.276311
L 539.058506 434.650285
L 544.841424 435.522891
L 550.618766 495.6573
L 556.368225 495.6573
L 562.117683 500.909343
L 567.867142 501.106171
L 636.88853 501.194744
L 642.637988 501.29972
L 648.404177 501.106171
L 654.153635 501.29972
L 665.652553 501.29972
L 671.396435 501.175061
L 677.145894 501.29972
L 711.653799 501.29972
L 728.907752 501.29972
L 734.662787 501.106171
L 740.417822 501.29972
L 792.185257 501.391573
L 797.934716 501.106171
L 803.695328 501.37517
L 843.958269 501.391573
L 855.468339 501.391573
L 861.217798 501.017599
L 866.97841 501.391573
L 895.73128 501.391573
L 895.73128 501.391573
" clip-path="url(#pdd40d25b10)" style="fill: none; stroke: #1f6f78; stroke-width: 1.8; stroke-linecap: square"/>
   </g>
   <g id="line2d_70">
    <path d="M 89.067166 503.402505
L 94.833354 503.402505
L 100.599543 500.909343
L 106.349001 501.194744
L 112.104037 503.402505
L 239.38958 503.386102
L 245.233841 503.208957
L 251.440579 501.496548
L 286.060016 501.391573
L 297.586817 501.29972
L 303.347429 501.496548
L 309.102464 501.391573
L 314.846346 501.496548
L 320.595805 501.391573
L 326.345263 501.496548
L 337.838604 501.29972
L 343.59364 496.421651
L 349.343098 496.031275
L 355.092557 472.139567
L 360.836439 472.139567
L 366.597051 494.496012
L 372.368816 483.152125
L 378.118275 466.3036
L 383.867733 501.194744
L 395.377804 501.29972
L 406.954794 501.391573
L 435.724394 501.391573
L 441.479429 397.377514
L 447.546753 434.368164
L 453.351977 434.650285
L 459.134896 434.456737
L 464.912237 495.6573
L 470.656119 496.031275
L 476.611912 501.175061
L 505.387088 501.29972
L 511.142124 437.901237
L 516.925042 434.935686
L 522.702383 435.696757
L 528.490878 437.422287
L 534.273796 434.453456
L 540.056715 435.132515
L 545.834056 494.978242
L 551.577938 495.549045
L 557.327397 501.017599
L 563.076856 500.732197
L 568.820738 501.106171
L 637.825396 501.194744
L 649.324313 501.29972
L 752.836876 501.391573
L 758.591912 501.106171
L 764.352523 501.391573
L 839.128946 501.391573
L 844.878405 501.194744
L 850.627864 501.391573
L 925.342944 501.391573
L 931.097979 495.6573
L 931.097979 495.6573
" clip-path="url(#pdd40d25b10)" style="fill: none; stroke: #4c6f9f; stroke-width: 1.8; stroke-linecap: square"/>
   </g>
   <g id="line2d_71">
    <path d="M 89.067166 495.6573
L 94.811048 496.510224
L 100.55493 495.745873
L 106.304389 496.421651
L 112.048271 503.313932
L 117.820036 503.313932
L 123.591801 503.313932
L 129.363566 503.313932
L 135.135331 503.313932
L 140.907096 503.313932
L 146.678861 503.313932
L 152.450626 503.313932
L 158.227968 503.313932
L 163.999733 503.313932
L 169.777074 503.313932
L 175.54884 503.313932
L 181.326181 503.313932
L 187.103523 503.313932
L 192.869711 503.313932
L 198.641476 503.313932
L 204.418818 503.313932
L 210.185006 503.313932
L 215.956771 503.313932
L 221.728537 503.313932
L 227.494725 503.313932
L 233.26649 503.313932
L 239.038255 501.391573
L 244.79329 501.391573
L 250.548326 501.29972
L 256.35355 501.29972
L 262.114162 501.391573
L 267.91381 501.391573
L 273.674422 501.017599
L 279.47407 501.29972
L 285.240258 501.29972
L 291.012023 501.391573
L 296.761482 501.391573
L 302.510941 501.391573
L 308.2604 501.391573
L 314.009858 501.194744
L 319.759317 501.496548
L 325.508776 501.496548
L 331.258234 495.834446
L 337.018846 496.224823
L 342.768305 496.421651
L 348.517764 415.062562
L 354.278376 462.301419
L 360.033411 492.993554
L 365.799599 479.858527
L 371.549058 493.072285
L 377.30967 501.194744
L 383.059129 501.29972
L 388.808587 501.29972
L 394.563623 501.391573
L 400.318658 501.017599
L 406.073693 436.572644
L 411.851035 435.043942
L 417.633953 495.939421
L 423.383412 495.939421
L 429.272285 501.194744
L 435.021744 501.391573
L 440.771203 501.194744
L 446.520661 501.29972
L 452.398381 501.29972
L 458.365327 501.391573
L 464.198434 501.29972
L 469.975776 433.882653
L 475.764271 433.315131
L 481.547189 433.406984
L 487.341261 433.974507
L 493.124179 433.51196
L 498.907097 495.549045
L 504.656556 434.758541
L 510.439474 495.371899
L 516.194509 434.650285
L 522.066653 495.85741
L 527.816111 495.745873
L 533.56557 434.456737
L 539.348488 495.549045
L 545.1091 434.368164
L 550.886442 495.371899
L 556.635901 495.6573
L 562.385359 494.784694
L 568.134818 495.939421
" clip-path="url(#pdd40d25b10)" style="fill: none; stroke: #6f7d2a; stroke-width: 1.8; stroke-linecap: square"/>
   </g>
   <g id="line2d_72">
    <path d="M 89.067166 495.371899
L 94.805471 503.02853
L 100.577236 496.13625
L 106.321118 496.13625
L 112.070577 503.117103
L 117.847919 503.117103
L 123.614107 502.920275
L 129.475098 503.117103
L 135.252439 503.117103
L 141.024204 503.117103
L 146.795969 503.208957
L 152.651383 503.208957
L 158.428725 503.208957
L 164.211643 503.208957
L 169.983408 503.208957
L 175.755173 503.208957
L 181.526938 503.208957
L 187.30428 503.208957
L 193.076045 503.208957
L 198.84781 503.208957
L 204.625152 503.208957
L 210.396917 503.313932
L 216.168682 503.208957
L 221.946023 503.313932
L 227.717788 503.313932
L 233.489553 503.313932
L 239.261318 500.249967
L 245.033084 501.391573
L 250.793695 501.29972
L 256.554307 501.316122
L 262.320496 501.391573
L 268.086684 501.29972
L 273.852873 501.29972
L 279.613485 501.29972
L 285.38525 501.391573
L 291.145861 501.391573
L 296.900897 501.391573
L 302.650355 501.391573
L 308.399814 501.391573
L 314.15485 501.391573
L 319.904308 501.391573
L 325.659344 501.391573
L 331.408802 492.199679
L 337.169414 490.297002
L 342.918873 496.313396
L 348.668332 461.428812
L 354.423367 463.636572
L 360.172826 487.889133
L 365.950167 477.365365
L 371.716356 493.534832
L 377.476968 501.194744
L 383.237579 501.29972
L 388.992615 501.29972
L 394.742073 501.29972
L 400.491532 501.29972
L 406.246567 436.372535
L 412.029486 434.758541
L 417.812404 495.834446
L 423.556286 496.031275
L 429.305745 501.194744
L 435.06078 501.194744
L 440.804662 501.194744
L 446.554121 501.29972
L 452.30358 501.29972
L 458.198029 501.29972
L 463.958641 432.357232
L 469.730406 433.689105
L 475.518901 433.797361
L 481.301819 434.082762
L 487.079161 433.974507
L 492.862079 433.689105
L 498.639421 495.17507
L 504.394456 434.932406
L 510.194104 434.256628
L 515.971446 493.534832
L 521.854743 434.932406
L 527.643237 372.370444
L 533.437309 495.286607
L 539.192344 434.256628
L 544.975262 435.893585
L 551.098352 495.286607
L 556.847811 433.974507
L 562.630729 433.210156
L 568.413647 495.066815
L 574.157529 434.168055
L 579.946024 433.99419
L 585.728942 433.777678
L 591.511861 495.457191
L 597.261319 500.82077
L 603.010778 501.017599
L 608.732354 500.909343
L 614.481813 501.017599
L 620.236848 501.106171
L 625.991883 501.106171
L 631.741342 501.106171
L 637.496377 500.732197
L 643.262566 496.031275
" clip-path="url(#pdd40d25b10)" style="fill: none; stroke: #c85a3a; stroke-width: 1.8; stroke-linecap: square"/>
   </g>
   <g id="patch_9">
    <path d="M 46.965625 518.04327
L 46.965625 363.860889
" style="fill: none; stroke: #d8dee4; stroke-width: 0.8; stroke-linejoin: miter; stroke-linecap: square"/>
   </g>
   <g id="patch_10">
    <path d="M 46.965625 518.04327
L 973.19952 518.04327
" style="fill: none; stroke: #d8dee4; stroke-width: 0.8; stroke-linejoin: miter; stroke-linecap: square"/>
   </g>
  </g>
  <g id="text_33">
   <!-- Profiler spot-check: A100 telemetry over one-scenario runs -->
   <g style="fill: #1f2328" transform="translate(171.970541 21.637031) scale(0.19 -0.19)">
    <defs>
     <path id="DejaVuSans-Bold-50" d="M 588 4666
L 2584 4666
Q 3475 4666 3951 4270
Q 4428 3875 4428 3144
Q 4428 2409 3951 2014
Q 3475 1619 2584 1619
L 1791 1619
L 1791 0
L 588 0
L 588 4666
z
M 1791 3794
L 1791 2491
L 2456 2491
Q 2806 2491 2997 2661
Q 3188 2831 3188 3144
Q 3188 3456 2997 3625
Q 2806 3794 2456 3794
L 1791 3794
z
" transform="scale(0.015625)"/>
     <path id="DejaVuSans-Bold-72" d="M 3138 2547
Q 2991 2616 2845 2648
Q 2700 2681 2553 2681
Q 2122 2681 1889 2404
Q 1656 2128 1656 1613
L 1656 0
L 538 0
L 538 3500
L 1656 3500
L 1656 2925
Q 1872 3269 2151 3426
Q 2431 3584 2822 3584
Q 2878 3584 2943 3579
Q 3009 3575 3134 3559
L 3138 2547
z
" transform="scale(0.015625)"/>
     <path id="DejaVuSans-Bold-6f" d="M 2203 2784
Q 1831 2784 1636 2517
Q 1441 2250 1441 1747
Q 1441 1244 1636 976
Q 1831 709 2203 709
Q 2569 709 2762 976
Q 2956 1244 2956 1747
Q 2956 2250 2762 2517
Q 2569 2784 2203 2784
z
M 2203 3584
Q 3106 3584 3614 3096
Q 4122 2609 4122 1747
Q 4122 884 3614 396
Q 3106 -91 2203 -91
Q 1297 -91 786 396
Q 275 884 275 1747
Q 275 2609 786 3096
Q 1297 3584 2203 3584
z
" transform="scale(0.015625)"/>
     <path id="DejaVuSans-Bold-66" d="M 2841 4863
L 2841 4128
L 2222 4128
Q 1984 4128 1890 4042
Q 1797 3956 1797 3744
L 1797 3500
L 2753 3500
L 2753 2700
L 1797 2700
L 1797 0
L 678 0
L 678 2700
L 122 2700
L 122 3500
L 678 3500
L 678 3744
Q 678 4316 997 4589
Q 1316 4863 1984 4863
L 2841 4863
z
" transform="scale(0.015625)"/>
     <path id="DejaVuSans-Bold-69" d="M 538 3500
L 1656 3500
L 1656 0
L 538 0
L 538 3500
z
M 538 4863
L 1656 4863
L 1656 3950
L 538 3950
L 538 4863
z
" transform="scale(0.015625)"/>
     <path id="DejaVuSans-Bold-6c" d="M 538 4863
L 1656 4863
L 1656 0
L 538 0
L 538 4863
z
" transform="scale(0.015625)"/>
     <path id="DejaVuSans-Bold-65" d="M 4031 1759
L 4031 1441
L 1416 1441
Q 1456 1047 1700 850
Q 1944 653 2381 653
Q 2734 653 3104 758
Q 3475 863 3866 1075
L 3866 213
Q 3469 63 3072 -14
Q 2675 -91 2278 -91
Q 1328 -91 801 392
Q 275 875 275 1747
Q 275 2603 792 3093
Q 1309 3584 2216 3584
Q 3041 3584 3536 3087
Q 4031 2591 4031 1759
z
M 2881 2131
Q 2881 2450 2695 2645
Q 2509 2841 2209 2841
Q 1884 2841 1681 2658
Q 1478 2475 1428 2131
L 2881 2131
z
" transform="scale(0.015625)"/>
     <path id="DejaVuSans-Bold-20" transform="scale(0.015625)"/>
     <path id="DejaVuSans-Bold-73" d="M 3272 3391
L 3272 2541
Q 2913 2691 2578 2766
Q 2244 2841 1947 2841
Q 1628 2841 1473 2761
Q 1319 2681 1319 2516
Q 1319 2381 1436 2309
Q 1553 2238 1856 2203
L 2053 2175
Q 2913 2066 3209 1816
Q 3506 1566 3506 1031
Q 3506 472 3093 190
Q 2681 -91 1863 -91
Q 1516 -91 1145 -36
Q 775 19 384 128
L 384 978
Q 719 816 1070 734
Q 1422 653 1784 653
Q 2113 653 2278 743
Q 2444 834 2444 1013
Q 2444 1163 2330 1236
Q 2216 1309 1875 1350
L 1678 1375
Q 931 1469 631 1722
Q 331 1975 331 2491
Q 331 3047 712 3315
Q 1094 3584 1881 3584
Q 2191 3584 2531 3537
Q 2872 3491 3272 3391
z
" transform="scale(0.015625)"/>
     <path id="DejaVuSans-Bold-70" d="M 1656 506
L 1656 -1331
L 538 -1331
L 538 3500
L 1656 3500
L 1656 2988
Q 1888 3294 2169 3439
Q 2450 3584 2816 3584
Q 3463 3584 3878 3070
Q 4294 2556 4294 1747
Q 4294 938 3878 423
Q 3463 -91 2816 -91
Q 2450 -91 2169 54
Q 1888 200 1656 506
z
M 2400 2772
Q 2041 2772 1848 2508
Q 1656 2244 1656 1747
Q 1656 1250 1848 986
Q 2041 722 2400 722
Q 2759 722 2948 984
Q 3138 1247 3138 1747
Q 3138 2247 2948 2509
Q 2759 2772 2400 2772
z
" transform="scale(0.015625)"/>
     <path id="DejaVuSans-Bold-74" d="M 1759 4494
L 1759 3500
L 2913 3500
L 2913 2700
L 1759 2700
L 1759 1216
Q 1759 972 1856 886
Q 1953 800 2241 800
L 2816 800
L 2816 0
L 1856 0
Q 1194 0 917 276
Q 641 553 641 1216
L 641 2700
L 84 2700
L 84 3500
L 641 3500
L 641 4494
L 1759 4494
z
" transform="scale(0.015625)"/>
     <path id="DejaVuSans-Bold-2d" d="M 347 2297
L 2309 2297
L 2309 1388
L 347 1388
L 347 2297
z
" transform="scale(0.015625)"/>
     <path id="DejaVuSans-Bold-63" d="M 3366 3391
L 3366 2478
Q 3138 2634 2908 2709
Q 2678 2784 2431 2784
Q 1963 2784 1702 2511
Q 1441 2238 1441 1747
Q 1441 1256 1702 982
Q 1963 709 2431 709
Q 2694 709 2930 787
Q 3166 866 3366 1019
L 3366 103
Q 3103 6 2833 -42
Q 2563 -91 2291 -91
Q 1344 -91 809 395
Q 275 881 275 1747
Q 275 2613 809 3098
Q 1344 3584 2291 3584
Q 2566 3584 2833 3536
Q 3100 3488 3366 3391
z
" transform="scale(0.015625)"/>
     <path id="DejaVuSans-Bold-68" d="M 4056 2131
L 4056 0
L 2931 0
L 2931 347
L 2931 1625
Q 2931 2084 2911 2256
Q 2891 2428 2841 2509
Q 2775 2619 2662 2680
Q 2550 2741 2406 2741
Q 2056 2741 1856 2470
Q 1656 2200 1656 1722
L 1656 0
L 538 0
L 538 4863
L 1656 4863
L 1656 2988
Q 1909 3294 2193 3439
Q 2478 3584 2822 3584
Q 3428 3584 3742 3212
Q 4056 2841 4056 2131
z
" transform="scale(0.015625)"/>
     <path id="DejaVuSans-Bold-6b" d="M 538 4863
L 1656 4863
L 1656 2216
L 2944 3500
L 4244 3500
L 2534 1894
L 4378 0
L 3022 0
L 1656 1459
L 1656 0
L 538 0
L 538 4863
z
" transform="scale(0.015625)"/>
     <path id="DejaVuSans-Bold-3a" d="M 716 3500
L 1844 3500
L 1844 2291
L 716 2291
L 716 3500
z
M 716 1209
L 1844 1209
L 1844 0
L 716 0
L 716 1209
z
" transform="scale(0.015625)"/>
     <path id="DejaVuSans-Bold-41" d="M 3419 850
L 1538 850
L 1241 0
L 31 0
L 1759 4666
L 3194 4666
L 4922 0
L 3713 0
L 3419 850
z
M 1838 1716
L 3116 1716
L 2478 3572
L 1838 1716
z
" transform="scale(0.015625)"/>
     <path id="DejaVuSans-Bold-31" d="M 750 831
L 1813 831
L 1813 3847
L 722 3622
L 722 4441
L 1806 4666
L 2950 4666
L 2950 831
L 4013 831
L 4013 0
L 750 0
L 750 831
z
" transform="scale(0.015625)"/>
     <path id="DejaVuSans-Bold-30" d="M 2944 2338
Q 2944 3213 2780 3570
Q 2616 3928 2228 3928
Q 1841 3928 1675 3570
Q 1509 3213 1509 2338
Q 1509 1453 1675 1090
Q 1841 728 2228 728
Q 2613 728 2778 1090
Q 2944 1453 2944 2338
z
M 4147 2328
Q 4147 1169 3647 539
Q 3147 -91 2228 -91
Q 1306 -91 806 539
Q 306 1169 306 2328
Q 306 3491 806 4120
Q 1306 4750 2228 4750
Q 3147 4750 3647 4120
Q 4147 3491 4147 2328
z
" transform="scale(0.015625)"/>
     <path id="DejaVuSans-Bold-6d" d="M 3781 2919
Q 3994 3244 4286 3414
Q 4578 3584 4928 3584
Q 5531 3584 5847 3212
Q 6163 2841 6163 2131
L 6163 0
L 5038 0
L 5038 1825
Q 5041 1866 5042 1909
Q 5044 1953 5044 2034
Q 5044 2406 4934 2573
Q 4825 2741 4581 2741
Q 4263 2741 4089 2478
Q 3916 2216 3909 1719
L 3909 0
L 2784 0
L 2784 1825
Q 2784 2406 2684 2573
Q 2584 2741 2328 2741
Q 2006 2741 1831 2477
Q 1656 2213 1656 1722
L 1656 0
L 531 0
L 531 3500
L 1656 3500
L 1656 2988
Q 1863 3284 2130 3434
Q 2397 3584 2719 3584
Q 3081 3584 3359 3409
Q 3638 3234 3781 2919
z
" transform="scale(0.015625)"/>
     <path id="DejaVuSans-Bold-79" d="M 78 3500
L 1197 3500
L 2138 1125
L 2938 3500
L 4056 3500
L 2584 -331
Q 2363 -916 2067 -1148
Q 1772 -1381 1288 -1381
L 641 -1381
L 641 -647
L 991 -647
Q 1275 -647 1404 -556
Q 1534 -466 1606 -231
L 1638 -134
L 78 3500
z
" transform="scale(0.015625)"/>
     <path id="DejaVuSans-Bold-76" d="M 97 3500
L 1216 3500
L 2088 1081
L 2956 3500
L 4078 3500
L 2700 0
L 1472 0
L 97 3500
z
" transform="scale(0.015625)"/>
     <path id="DejaVuSans-Bold-6e" d="M 4056 2131
L 4056 0
L 2931 0
L 2931 347
L 2931 1631
Q 2931 2084 2911 2256
Q 2891 2428 2841 2509
Q 2775 2619 2662 2680
Q 2550 2741 2406 2741
Q 2056 2741 1856 2470
Q 1656 2200 1656 1722
L 1656 0
L 538 0
L 538 3500
L 1656 3500
L 1656 2988
Q 1909 3294 2193 3439
Q 2478 3584 2822 3584
Q 3428 3584 3742 3212
Q 4056 2841 4056 2131
z
" transform="scale(0.015625)"/>
     <path id="DejaVuSans-Bold-61" d="M 2106 1575
Q 1756 1575 1579 1456
Q 1403 1338 1403 1106
Q 1403 894 1545 773
Q 1688 653 1941 653
Q 2256 653 2472 879
Q 2688 1106 2688 1447
L 2688 1575
L 2106 1575
z
M 3816 1997
L 3816 0
L 2688 0
L 2688 519
Q 2463 200 2181 54
Q 1900 -91 1497 -91
Q 953 -91 614 226
Q 275 544 275 1050
Q 275 1666 698 1953
Q 1122 2241 2028 2241
L 2688 2241
L 2688 2328
Q 2688 2594 2478 2717
Q 2269 2841 1825 2841
Q 1466 2841 1156 2769
Q 847 2697 581 2553
L 581 3406
Q 941 3494 1303 3539
Q 1666 3584 2028 3584
Q 2975 3584 3395 3211
Q 3816 2838 3816 1997
z
" transform="scale(0.015625)"/>
     <path id="DejaVuSans-Bold-75" d="M 500 1363
L 500 3500
L 1625 3500
L 1625 3150
Q 1625 2866 1622 2436
Q 1619 2006 1619 1863
Q 1619 1441 1641 1255
Q 1663 1069 1716 984
Q 1784 875 1895 815
Q 2006 756 2150 756
Q 2500 756 2700 1025
Q 2900 1294 2900 1772
L 2900 3500
L 4019 3500
L 4019 0
L 2900 0
L 2900 506
Q 2647 200 2364 54
Q 2081 -91 1741 -91
Q 1134 -91 817 281
Q 500 653 500 1363
z
" transform="scale(0.015625)"/>
    </defs>
    <use xlink:href="#DejaVuSans-Bold-50"/>
    <use xlink:href="#DejaVuSans-Bold-72" transform="translate(73.291016 0)"/>
    <use xlink:href="#DejaVuSans-Bold-6f" transform="translate(122.607422 0)"/>
    <use xlink:href="#DejaVuSans-Bold-66" transform="translate(191.308594 0)"/>
    <use xlink:href="#DejaVuSans-Bold-69" transform="translate(234.814453 0)"/>
    <use xlink:href="#DejaVuSans-Bold-6c" transform="translate(269.091797 0)"/>
    <use xlink:href="#DejaVuSans-Bold-65" transform="translate(303.369141 0)"/>
    <use xlink:href="#DejaVuSans-Bold-72" transform="translate(371.191406 0)"/>
    <use xlink:href="#DejaVuSans-Bold-20" transform="translate(420.507812 0)"/>
    <use xlink:href="#DejaVuSans-Bold-73" transform="translate(455.322266 0)"/>
    <use xlink:href="#DejaVuSans-Bold-70" transform="translate(514.84375 0)"/>
    <use xlink:href="#DejaVuSans-Bold-6f" transform="translate(586.425781 0)"/>
    <use xlink:href="#DejaVuSans-Bold-74" transform="translate(655.126953 0)"/>
    <use xlink:href="#DejaVuSans-Bold-2d" transform="translate(702.929688 0)"/>
    <use xlink:href="#DejaVuSans-Bold-63" transform="translate(744.433594 0)"/>
    <use xlink:href="#DejaVuSans-Bold-68" transform="translate(803.710938 0)"/>
    <use xlink:href="#DejaVuSans-Bold-65" transform="translate(874.902344 0)"/>
    <use xlink:href="#DejaVuSans-Bold-63" transform="translate(942.724609 0)"/>
    <use xlink:href="#DejaVuSans-Bold-6b" transform="translate(1002.001953 0)"/>
    <use xlink:href="#DejaVuSans-Bold-3a" transform="translate(1068.505859 0)"/>
    <use xlink:href="#DejaVuSans-Bold-20" transform="translate(1108.496094 0)"/>
    <use xlink:href="#DejaVuSans-Bold-41" transform="translate(1143.310547 0)"/>
    <use xlink:href="#DejaVuSans-Bold-31" transform="translate(1220.703125 0)"/>
    <use xlink:href="#DejaVuSans-Bold-30" transform="translate(1290.283203 0)"/>
    <use xlink:href="#DejaVuSans-Bold-30" transform="translate(1359.863281 0)"/>
    <use xlink:href="#DejaVuSans-Bold-20" transform="translate(1429.443359 0)"/>
    <use xlink:href="#DejaVuSans-Bold-74" transform="translate(1464.257812 0)"/>
    <use xlink:href="#DejaVuSans-Bold-65" transform="translate(1512.060547 0)"/>
    <use xlink:href="#DejaVuSans-Bold-6c" transform="translate(1579.882812 0)"/>
    <use xlink:href="#DejaVuSans-Bold-65" transform="translate(1614.160156 0)"/>
    <use xlink:href="#DejaVuSans-Bold-6d" transform="translate(1681.982422 0)"/>
    <use xlink:href="#DejaVuSans-Bold-65" transform="translate(1786.181641 0)"/>
    <use xlink:href="#DejaVuSans-Bold-74" transform="translate(1854.003906 0)"/>
    <use xlink:href="#DejaVuSans-Bold-72" transform="translate(1901.806641 0)"/>
    <use xlink:href="#DejaVuSans-Bold-79" transform="translate(1951.123047 0)"/>
    <use xlink:href="#DejaVuSans-Bold-20" transform="translate(2016.308594 0)"/>
    <use xlink:href="#DejaVuSans-Bold-6f" transform="translate(2051.123047 0)"/>
    <use xlink:href="#DejaVuSans-Bold-76" transform="translate(2119.824219 0)"/>
    <use xlink:href="#DejaVuSans-Bold-65" transform="translate(2185.009766 0)"/>
    <use xlink:href="#DejaVuSans-Bold-72" transform="translate(2252.832031 0)"/>
    <use xlink:href="#DejaVuSans-Bold-20" transform="translate(2302.148438 0)"/>
    <use xlink:href="#DejaVuSans-Bold-6f" transform="translate(2336.962891 0)"/>
    <use xlink:href="#DejaVuSans-Bold-6e" transform="translate(2405.664062 0)"/>
    <use xlink:href="#DejaVuSans-Bold-65" transform="translate(2476.855469 0)"/>
    <use xlink:href="#DejaVuSans-Bold-2d" transform="translate(2544.677734 0)"/>
    <use xlink:href="#DejaVuSans-Bold-73" transform="translate(2586.181641 0)"/>
    <use xlink:href="#DejaVuSans-Bold-63" transform="translate(2645.703125 0)"/>
    <use xlink:href="#DejaVuSans-Bold-65" transform="translate(2704.980469 0)"/>
    <use xlink:href="#DejaVuSans-Bold-6e" transform="translate(2772.802734 0)"/>
    <use xlink:href="#DejaVuSans-Bold-61" transform="translate(2843.994141 0)"/>
    <use xlink:href="#DejaVuSans-Bold-72" transform="translate(2911.474609 0)"/>
    <use xlink:href="#DejaVuSans-Bold-69" transform="translate(2960.791016 0)"/>
    <use xlink:href="#DejaVuSans-Bold-6f" transform="translate(2995.068359 0)"/>
    <use xlink:href="#DejaVuSans-Bold-20" transform="translate(3063.769531 0)"/>
    <use xlink:href="#DejaVuSans-Bold-72" transform="translate(3098.583984 0)"/>
    <use xlink:href="#DejaVuSans-Bold-75" transform="translate(3147.900391 0)"/>
    <use xlink:href="#DejaVuSans-Bold-6e" transform="translate(3219.091797 0)"/>
    <use xlink:href="#DejaVuSans-Bold-73" transform="translate(3290.283203 0)"/>
   </g>
  </g>
  <g id="text_34">
   <!-- Source: profiling/traces/profile_spotcheck_20260507T0604Z_*_nvidia_smi/nvidia_smi.csv. Use as profiling/observability evidence, not judged quality evidence. -->
   <g style="fill: #5b6670" transform="translate(13.91976 562.34376) scale(0.1 -0.1)">
    <defs>
     <path id="DejaVuSans-3a" d="M 750 794
L 1409 794
L 1409 0
L 750 0
L 750 794
z
M 750 3309
L 1409 3309
L 1409 2516
L 750 2516
L 750 3309
z
" transform="scale(0.015625)"/>
     <path id="DejaVuSans-66" d="M 2375 4863
L 2375 4384
L 1825 4384
Q 1516 4384 1395 4259
Q 1275 4134 1275 3809
L 1275 3500
L 2222 3500
L 2222 3053
L 1275 3053
L 1275 0
L 697 0
L 697 3053
L 147 3053
L 147 3500
L 697 3500
L 697 3744
Q 697 4328 969 4595
Q 1241 4863 1831 4863
L 2375 4863
z
" transform="scale(0.015625)"/>
     <path id="DejaVuSans-67" d="M 2906 1791
Q 2906 2416 2648 2759
Q 2391 3103 1925 3103
Q 1463 3103 1205 2759
Q 947 2416 947 1791
Q 947 1169 1205 825
Q 1463 481 1925 481
Q 2391 481 2648 825
Q 2906 1169 2906 1791
z
M 3481 434
Q 3481 -459 3084 -895
Q 2688 -1331 1869 -1331
Q 1566 -1331 1297 -1286
Q 1028 -1241 775 -1147
L 775 -588
Q 1028 -725 1275 -790
Q 1522 -856 1778 -856
Q 2344 -856 2625 -561
Q 2906 -266 2906 331
L 2906 616
Q 2728 306 2450 153
Q 2172 0 1784 0
Q 1141 0 747 490
Q 353 981 353 1791
Q 353 2603 747 3093
Q 1141 3584 1784 3584
Q 2172 3584 2450 3431
Q 2728 3278 2906 2969
L 2906 3500
L 3481 3500
L 3481 434
z
" transform="scale(0.015625)"/>
     <path id="DejaVuSans-2f" d="M 1625 4666
L 2156 4666
L 531 -594
L 0 -594
L 1625 4666
z
" transform="scale(0.015625)"/>
     <path id="DejaVuSans-5f" d="M 3263 -1063
L 3263 -1509
L -63 -1509
L -63 -1063
L 3263 -1063
z
" transform="scale(0.015625)"/>
     <path id="DejaVuSans-68" d="M 3513 2113
L 3513 0
L 2938 0
L 2938 2094
Q 2938 2591 2744 2837
Q 2550 3084 2163 3084
Q 1697 3084 1428 2787
Q 1159 2491 1159 1978
L 1159 0
L 581 0
L 581 4863
L 1159 4863
L 1159 2956
Q 1366 3272 1645 3428
Q 1925 3584 2291 3584
Q 2894 3584 3203 3211
Q 3513 2838 3513 2113
z
" transform="scale(0.015625)"/>
     <path id="DejaVuSans-6b" d="M 581 4863
L 1159 4863
L 1159 1991
L 2875 3500
L 3609 3500
L 1753 1863
L 3688 0
L 2938 0
L 1159 1709
L 1159 0
L 581 0
L 581 4863
z
" transform="scale(0.015625)"/>
     <path id="DejaVuSans-35" d="M 691 4666
L 3169 4666
L 3169 4134
L 1269 4134
L 1269 2991
Q 1406 3038 1543 3061
Q 1681 3084 1819 3084
Q 2600 3084 3056 2656
Q 3513 2228 3513 1497
Q 3513 744 3044 326
Q 2575 -91 1722 -91
Q 1428 -91 1123 -41
Q 819 9 494 109
L 494 744
Q 775 591 1075 516
Q 1375 441 1709 441
Q 2250 441 2565 725
Q 2881 1009 2881 1497
Q 2881 1984 2565 2268
Q 2250 2553 1709 2553
Q 1456 2553 1204 2497
Q 953 2441 691 2322
L 691 4666
z
" transform="scale(0.015625)"/>
     <path id="DejaVuSans-37" d="M 525 4666
L 3525 4666
L 3525 4397
L 1831 0
L 1172 0
L 2766 4134
L 525 4134
L 525 4666
z
" transform="scale(0.015625)"/>
     <path id="DejaVuSans-5a" d="M 359 4666
L 4025 4666
L 4025 4184
L 1075 531
L 4097 531
L 4097 0
L 288 0
L 288 481
L 3238 4134
L 359 4134
L 359 4666
z
" transform="scale(0.015625)"/>
     <path id="DejaVuSans-2a" d="M 3009 3897
L 1888 3291
L 3009 2681
L 2828 2375
L 1778 3009
L 1778 1831
L 1422 1831
L 1422 3009
L 372 2375
L 191 2681
L 1313 3291
L 191 3897
L 372 4206
L 1422 3572
L 1422 4750
L 1778 4750
L 1778 3572
L 2828 4206
L 3009 3897
z
" transform="scale(0.015625)"/>
     <path id="DejaVuSans-76" d="M 191 3500
L 800 3500
L 1894 563
L 2988 3500
L 3597 3500
L 2284 0
L 1503 0
L 191 3500
z
" transform="scale(0.015625)"/>
     <path id="DejaVuSans-6d" d="M 3328 2828
Q 3544 3216 3844 3400
Q 4144 3584 4550 3584
Q 5097 3584 5394 3201
Q 5691 2819 5691 2113
L 5691 0
L 5113 0
L 5113 2094
Q 5113 2597 4934 2840
Q 4756 3084 4391 3084
Q 3944 3084 3684 2787
Q 3425 2491 3425 1978
L 3425 0
L 2847 0
L 2847 2094
Q 2847 2600 2669 2842
Q 2491 3084 2119 3084
Q 1678 3084 1418 2786
Q 1159 2488 1159 1978
L 1159 0
L 581 0
L 581 3500
L 1159 3500
L 1159 2956
Q 1356 3278 1631 3431
Q 1906 3584 2284 3584
Q 2666 3584 2933 3390
Q 3200 3197 3328 2828
z
" transform="scale(0.015625)"/>
     <path id="DejaVuSans-2e" d="M 684 794
L 1344 794
L 1344 0
L 684 0
L 684 794
z
" transform="scale(0.015625)"/>
     <path id="DejaVuSans-62" d="M 3116 1747
Q 3116 2381 2855 2742
Q 2594 3103 2138 3103
Q 1681 3103 1420 2742
Q 1159 2381 1159 1747
Q 1159 1113 1420 752
Q 1681 391 2138 391
Q 2594 391 2855 752
Q 3116 1113 3116 1747
z
M 1159 2969
Q 1341 3281 1617 3432
Q 1894 3584 2278 3584
Q 2916 3584 3314 3078
Q 3713 2572 3713 1747
Q 3713 922 3314 415
Q 2916 -91 2278 -91
Q 1894 -91 1617 61
Q 1341 213 1159 525
L 1159 0
L 581 0
L 581 4863
L 1159 4863
L 1159 2969
z
" transform="scale(0.015625)"/>
     <path id="DejaVuSans-79" d="M 2059 -325
Q 1816 -950 1584 -1140
Q 1353 -1331 966 -1331
L 506 -1331
L 506 -850
L 844 -850
Q 1081 -850 1212 -737
Q 1344 -625 1503 -206
L 1606 56
L 191 3500
L 800 3500
L 1894 763
L 2988 3500
L 3597 3500
L 2059 -325
z
" transform="scale(0.015625)"/>
     <path id="DejaVuSans-2c" d="M 750 794
L 1409 794
L 1409 256
L 897 -744
L 494 -744
L 750 256
L 750 794
z
" transform="scale(0.015625)"/>
     <path id="DejaVuSans-6a" d="M 603 3500
L 1178 3500
L 1178 -63
Q 1178 -731 923 -1031
Q 669 -1331 103 -1331
L -116 -1331
L -116 -844
L 38 -844
Q 366 -844 484 -692
Q 603 -541 603 -63
L 603 3500
z
M 603 4863
L 1178 4863
L 1178 4134
L 603 4134
L 603 4863
z
" transform="scale(0.015625)"/>
     <path id="DejaVuSans-71" d="M 947 1747
Q 947 1113 1208 752
Q 1469 391 1925 391
Q 2381 391 2643 752
Q 2906 1113 2906 1747
Q 2906 2381 2643 2742
Q 2381 3103 1925 3103
Q 1469 3103 1208 2742
Q 947 2381 947 1747
z
M 2906 525
Q 2725 213 2448 61
Q 2172 -91 1784 -91
Q 1150 -91 751 415
Q 353 922 353 1747
Q 353 2572 751 3078
Q 1150 3584 1784 3584
Q 2172 3584 2448 3432
Q 2725 3281 2906 2969
L 2906 3500
L 3481 3500
L 3481 -1331
L 2906 -1331
L 2906 525
z
" transform="scale(0.015625)"/>
    </defs>
    <use xlink:href="#DejaVuSans-53"/>
    <use xlink:href="#DejaVuSans-6f" transform="translate(63.476562 0)"/>
    <use xlink:href="#DejaVuSans-75" transform="translate(124.658203 0)"/>
    <use xlink:href="#DejaVuSans-72" transform="translate(188.037109 0)"/>
    <use xlink:href="#DejaVuSans-63" transform="translate(226.900391 0)"/>
    <use xlink:href="#DejaVuSans-65" transform="translate(281.880859 0)"/>
    <use xlink:href="#DejaVuSans-3a" transform="translate(343.404297 0)"/>
    <use xlink:href="#DejaVuSans-20" transform="translate(377.095703 0)"/>
    <use xlink:href="#DejaVuSans-70" transform="translate(408.882812 0)"/>
    <use xlink:href="#DejaVuSans-72" transform="translate(472.359375 0)"/>
    <use xlink:href="#DejaVuSans-6f" transform="translate(511.222656 0)"/>
    <use xlink:href="#DejaVuSans-66" transform="translate(572.404297 0)"/>
    <use xlink:href="#DejaVuSans-69" transform="translate(607.609375 0)"/>
    <use xlink:href="#DejaVuSans-6c" transform="translate(635.392578 0)"/>
    <use xlink:href="#DejaVuSans-69" transform="translate(663.175781 0)"/>
    <use xlink:href="#DejaVuSans-6e" transform="translate(690.958984 0)"/>
    <use xlink:href="#DejaVuSans-67" transform="translate(754.337891 0)"/>
    <use xlink:href="#DejaVuSans-2f" transform="translate(817.814453 0)"/>
    <use xlink:href="#DejaVuSans-74" transform="translate(851.505859 0)"/>
    <use xlink:href="#DejaVuSans-72" transform="translate(890.714844 0)"/>
    <use xlink:href="#DejaVuSans-61" transform="translate(931.828125 0)"/>
    <use xlink:href="#DejaVuSans-63" transform="translate(993.107422 0)"/>
    <use xlink:href="#DejaVuSans-65" transform="translate(1048.087891 0)"/>
    <use xlink:href="#DejaVuSans-73" transform="translate(1109.611328 0)"/>
    <use xlink:href="#DejaVuSans-2f" transform="translate(1161.710938 0)"/>
    <use xlink:href="#DejaVuSans-70" transform="translate(1195.402344 0)"/>
    <use xlink:href="#DejaVuSans-72" transform="translate(1258.878906 0)"/>
    <use xlink:href="#DejaVuSans-6f" transform="translate(1297.742188 0)"/>
    <use xlink:href="#DejaVuSans-66" transform="translate(1358.923828 0)"/>
    <use xlink:href="#DejaVuSans-69" transform="translate(1394.128906 0)"/>
    <use xlink:href="#DejaVuSans-6c" transform="translate(1421.912109 0)"/>
    <use xlink:href="#DejaVuSans-65" transform="translate(1449.695312 0)"/>
    <use xlink:href="#DejaVuSans-5f" transform="translate(1511.21875 0)"/>
    <use xlink:href="#DejaVuSans-73" transform="translate(1561.21875 0)"/>
    <use xlink:href="#DejaVuSans-70" transform="translate(1613.318359 0)"/>
    <use xlink:href="#DejaVuSans-6f" transform="translate(1676.794922 0)"/>
    <use xlink:href="#DejaVuSans-74" transform="translate(1737.976562 0)"/>
    <use xlink:href="#DejaVuSans-63" transform="translate(1777.185547 0)"/>
    <use xlink:href="#DejaVuSans-68" transform="translate(1832.166016 0)"/>
    <use xlink:href="#DejaVuSans-65" transform="translate(1895.544922 0)"/>
    <use xlink:href="#DejaVuSans-63" transform="translate(1957.068359 0)"/>
    <use xlink:href="#DejaVuSans-6b" transform="translate(2012.048828 0)"/>
    <use xlink:href="#DejaVuSans-5f" transform="translate(2069.958984 0)"/>
    <use xlink:href="#DejaVuSans-32" transform="translate(2119.958984 0)"/>
    <use xlink:href="#DejaVuSans-30" transform="translate(2183.582031 0)"/>
    <use xlink:href="#DejaVuSans-32" transform="translate(2247.205078 0)"/>
    <use xlink:href="#DejaVuSans-36" transform="translate(2310.828125 0)"/>
    <use xlink:href="#DejaVuSans-30" transform="translate(2374.451172 0)"/>
    <use xlink:href="#DejaVuSans-35" transform="translate(2438.074219 0)"/>
    <use xlink:href="#DejaVuSans-30" transform="translate(2501.697266 0)"/>
    <use xlink:href="#DejaVuSans-37" transform="translate(2565.320312 0)"/>
    <use xlink:href="#DejaVuSans-54" transform="translate(2628.943359 0)"/>
    <use xlink:href="#DejaVuSans-30" transform="translate(2690.027344 0)"/>
    <use xlink:href="#DejaVuSans-36" transform="translate(2753.650391 0)"/>
    <use xlink:href="#DejaVuSans-30" transform="translate(2817.273438 0)"/>
    <use xlink:href="#DejaVuSans-34" transform="translate(2880.896484 0)"/>
    <use xlink:href="#DejaVuSans-5a" transform="translate(2944.519531 0)"/>
    <use xlink:href="#DejaVuSans-5f" transform="translate(3013.025391 0)"/>
    <use xlink:href="#DejaVuSans-2a" transform="translate(3063.025391 0)"/>
    <use xlink:href="#DejaVuSans-5f" transform="translate(3113.025391 0)"/>
    <use xlink:href="#DejaVuSans-6e" transform="translate(3163.025391 0)"/>
    <use xlink:href="#DejaVuSans-76" transform="translate(3226.404297 0)"/>
    <use xlink:href="#DejaVuSans-69" transform="translate(3285.583984 0)"/>
    <use xlink:href="#DejaVuSans-64" transform="translate(3313.367188 0)"/>
    <use xlink:href="#DejaVuSans-69" transform="translate(3376.84375 0)"/>
    <use xlink:href="#DejaVuSans-61" transform="translate(3404.626953 0)"/>
    <use xlink:href="#DejaVuSans-5f" transform="translate(3465.90625 0)"/>
    <use xlink:href="#DejaVuSans-73" transform="translate(3515.90625 0)"/>
    <use xlink:href="#DejaVuSans-6d" transform="translate(3568.005859 0)"/>
    <use xlink:href="#DejaVuSans-69" transform="translate(3665.417969 0)"/>
    <use xlink:href="#DejaVuSans-2f" transform="translate(3693.201172 0)"/>
    <use xlink:href="#DejaVuSans-6e" transform="translate(3726.892578 0)"/>
    <use xlink:href="#DejaVuSans-76" transform="translate(3790.271484 0)"/>
    <use xlink:href="#DejaVuSans-69" transform="translate(3849.451172 0)"/>
    <use xlink:href="#DejaVuSans-64" transform="translate(3877.234375 0)"/>
    <use xlink:href="#DejaVuSans-69" transform="translate(3940.710938 0)"/>
    <use xlink:href="#DejaVuSans-61" transform="translate(3968.494141 0)"/>
    <use xlink:href="#DejaVuSans-5f" transform="translate(4029.773438 0)"/>
    <use xlink:href="#DejaVuSans-73" transform="translate(4079.773438 0)"/>
    <use xlink:href="#DejaVuSans-6d" transform="translate(4131.873047 0)"/>
    <use xlink:href="#DejaVuSans-69" transform="translate(4229.285156 0)"/>
    <use xlink:href="#DejaVuSans-2e" transform="translate(4257.068359 0)"/>
    <use xlink:href="#DejaVuSans-63" transform="translate(4288.855469 0)"/>
    <use xlink:href="#DejaVuSans-73" transform="translate(4343.835938 0)"/>
    <use xlink:href="#DejaVuSans-76" transform="translate(4395.935547 0)"/>
    <use xlink:href="#DejaVuSans-2e" transform="translate(4447.365234 0)"/>
    <use xlink:href="#DejaVuSans-20" transform="translate(4479.152344 0)"/>
    <use xlink:href="#DejaVuSans-55" transform="translate(4510.939453 0)"/>
    <use xlink:href="#DejaVuSans-73" transform="translate(4584.132812 0)"/>
    <use xlink:href="#DejaVuSans-65" transform="translate(4636.232422 0)"/>
    <use xlink:href="#DejaVuSans-20" transform="translate(4697.755859 0)"/>
    <use xlink:href="#DejaVuSans-61" transform="translate(4729.542969 0)"/>
    <use xlink:href="#DejaVuSans-73" transform="translate(4790.822266 0)"/>
    <use xlink:href="#DejaVuSans-20" transform="translate(4842.921875 0)"/>
    <use xlink:href="#DejaVuSans-70" transform="translate(4874.708984 0)"/>
    <use xlink:href="#DejaVuSans-72" transform="translate(4938.185547 0)"/>
    <use xlink:href="#DejaVuSans-6f" transform="translate(4977.048828 0)"/>
    <use xlink:href="#DejaVuSans-66" transform="translate(5038.230469 0)"/>
    <use xlink:href="#DejaVuSans-69" transform="translate(5073.435547 0)"/>
    <use xlink:href="#DejaVuSans-6c" transform="translate(5101.21875 0)"/>
    <use xlink:href="#DejaVuSans-69" transform="translate(5129.001953 0)"/>
    <use xlink:href="#DejaVuSans-6e" transform="translate(5156.785156 0)"/>
    <use xlink:href="#DejaVuSans-67" transform="translate(5220.164062 0)"/>
    <use xlink:href="#DejaVuSans-2f" transform="translate(5283.640625 0)"/>
    <use xlink:href="#DejaVuSans-6f" transform="translate(5317.332031 0)"/>
    <use xlink:href="#DejaVuSans-62" transform="translate(5378.513672 0)"/>
    <use xlink:href="#DejaVuSans-73" transform="translate(5441.990234 0)"/>
    <use xlink:href="#DejaVuSans-65" transform="translate(5494.089844 0)"/>
    <use xlink:href="#DejaVuSans-72" transform="translate(5555.613281 0)"/>
    <use xlink:href="#DejaVuSans-76" transform="translate(5596.726562 0)"/>
    <use xlink:href="#DejaVuSans-61" transform="translate(5655.90625 0)"/>
    <use xlink:href="#DejaVuSans-62" transform="translate(5717.185547 0)"/>
    <use xlink:href="#DejaVuSans-69" transform="translate(5780.662109 0)"/>
    <use xlink:href="#DejaVuSans-6c" transform="translate(5808.445312 0)"/>
    <use xlink:href="#DejaVuSans-69" transform="translate(5836.228516 0)"/>
    <use xlink:href="#DejaVuSans-74" transform="translate(5864.011719 0)"/>
    <use xlink:href="#DejaVuSans-79" transform="translate(5903.220703 0)"/>
    <use xlink:href="#DejaVuSans-20" transform="translate(5962.400391 0)"/>
    <use xlink:href="#DejaVuSans-65" transform="translate(5994.1875 0)"/>
    <use xlink:href="#DejaVuSans-76" transform="translate(6055.710938 0)"/>
    <use xlink:href="#DejaVuSans-69" transform="translate(6114.890625 0)"/>
    <use xlink:href="#DejaVuSans-64" transform="translate(6142.673828 0)"/>
    <use xlink:href="#DejaVuSans-65" transform="translate(6206.150391 0)"/>
    <use xlink:href="#DejaVuSans-6e" transform="translate(6267.673828 0)"/>
    <use xlink:href="#DejaVuSans-63" transform="translate(6331.052734 0)"/>
    <use xlink:href="#DejaVuSans-65" transform="translate(6386.033203 0)"/>
    <use xlink:href="#DejaVuSans-2c" transform="translate(6447.556641 0)"/>
    <use xlink:href="#DejaVuSans-20" transform="translate(6479.34375 0)"/>
    <use xlink:href="#DejaVuSans-6e" transform="translate(6511.130859 0)"/>
    <use xlink:href="#DejaVuSans-6f" transform="translate(6574.509766 0)"/>
    <use xlink:href="#DejaVuSans-74" transform="translate(6635.691406 0)"/>
    <use xlink:href="#DejaVuSans-20" transform="translate(6674.900391 0)"/>
    <use xlink:href="#DejaVuSans-6a" transform="translate(6706.6875 0)"/>
    <use xlink:href="#DejaVuSans-75" transform="translate(6734.470703 0)"/>
    <use xlink:href="#DejaVuSans-64" transform="translate(6797.849609 0)"/>
    <use xlink:href="#DejaVuSans-67" transform="translate(6861.326172 0)"/>
    <use xlink:href="#DejaVuSans-65" transform="translate(6924.802734 0)"/>
    <use xlink:href="#DejaVuSans-64" transform="translate(6986.326172 0)"/>
    <use xlink:href="#DejaVuSans-20" transform="translate(7049.802734 0)"/>
    <use xlink:href="#DejaVuSans-71" transform="translate(7081.589844 0)"/>
    <use xlink:href="#DejaVuSans-75" transform="translate(7145.066406 0)"/>
    <use xlink:href="#DejaVuSans-61" transform="translate(7208.445312 0)"/>
    <use xlink:href="#DejaVuSans-6c" transform="translate(7269.724609 0)"/>
    <use xlink:href="#DejaVuSans-69" transform="translate(7297.507812 0)"/>
    <use xlink:href="#DejaVuSans-74" transform="translate(7325.291016 0)"/>
    <use xlink:href="#DejaVuSans-79" transform="translate(7364.5 0)"/>
    <use xlink:href="#DejaVuSans-20" transform="translate(7423.679688 0)"/>
    <use xlink:href="#DejaVuSans-65" transform="translate(7455.466797 0)"/>
    <use xlink:href="#DejaVuSans-76" transform="translate(7516.990234 0)"/>
    <use xlink:href="#DejaVuSans-69" transform="translate(7576.169922 0)"/>
    <use xlink:href="#DejaVuSans-64" transform="translate(7603.953125 0)"/>
    <use xlink:href="#DejaVuSans-65" transform="translate(7667.429688 0)"/>
    <use xlink:href="#DejaVuSans-6e" transform="translate(7728.953125 0)"/>
    <use xlink:href="#DejaVuSans-63" transform="translate(7792.332031 0)"/>
    <use xlink:href="#DejaVuSans-65" transform="translate(7847.3125 0)"/>
    <use xlink:href="#DejaVuSans-2e" transform="translate(7908.835938 0)"/>
   </g>
  </g>
 </g>
 <defs>
  <clipPath id="p43c522e016">
   <rect x="46.965625" y="31.737355" width="926.233895" height="154.182381"/>
  </clipPath>
  <clipPath id="p8c53d4b2b0">
   <rect x="46.965625" y="197.799122" width="926.233895" height="154.182381"/>
  </clipPath>
  <clipPath id="pdd40d25b10">
   <rect x="46.965625" y="363.860889" width="926.233895" height="154.182381"/>
  </clipPath>
 </defs>
</svg>
